<?xml version="1.0" encoding="utf-8"?>
<!-- Generator: Adobe Illustrator 22.0.0, SVG Export Plug-In . SVG Version: 6.00 Build 0)  -->
<svg version="1.1" id="Capa_1" xmlns="http://www.w3.org/2000/svg" xmlns:xlink="http://www.w3.org/1999/xlink" x="0px" y="0px"
	 viewBox="0 0 277 218" style="enable-background:new 0 0 277 218;" xml:space="preserve">
<style type="text/css">
	.st0{fill:url(#SVGID_1_);}
	.st1{fill:#BEDAFF;}
	.st2{fill:url(#SVGID_2_);}
	.st3{fill:#010400;}
	.st4{fill:#383260;}
	.st5{fill:url(#SVGID_3_);}
	.st6{fill:url(#SVGID_4_);}
	.st7{fill:url(#SVGID_5_);}
	.st8{fill:url(#SVGID_6_);}
	.st9{fill:url(#SVGID_7_);}
	.st10{fill:#E28C66;}
	.st11{fill:#943BBB;}
	.st12{fill:#F9AB83;}
	.st13{fill:url(#SVGID_8_);}
	.st14{fill:url(#SVGID_9_);}
	.st15{fill:#293677;}
	.st16{fill:#1C1C38;}
	.st17{fill:url(#SVGID_10_);}
	.st18{fill:url(#SVGID_11_);}
	.st19{fill:url(#SVGID_12_);}
	.st20{fill:#E5A89C;}
	.st21{fill:url(#SVGID_13_);}
	.st22{fill:url(#SVGID_14_);}
	.st23{fill-rule:evenodd;clip-rule:evenodd;fill:#E58800;}
	.st24{fill:#FCC4B7;}
	.st25{fill:#FFFFFF;}
	.st26{fill:url(#SVGID_15_);}
	.st27{fill:url(#SVGID_16_);}
	.st28{fill:url(#SVGID_17_);}
	.st29{fill:url(#SVGID_18_);}
	.st30{fill:url(#SVGID_19_);}
	.st31{fill:url(#SVGID_20_);}
	.st32{fill:url(#SVGID_21_);}
	.st33{fill:url(#SVGID_22_);}
	.st34{fill:url(#SVGID_23_);}
	.st35{fill:url(#SVGID_24_);}
	.st36{fill:#2D0D60;}
	.st37{fill:url(#SVGID_25_);}
	.st38{fill:#D6E3E5;}
	.st39{fill:url(#SVGID_26_);}
	.st40{fill:url(#SVGID_27_);}
	.st41{fill:url(#SVGID_28_);}
	.st42{fill:#DD936F;}
	.st43{fill:url(#SVGID_29_);}
	.st44{fill:url(#SVGID_30_);}
	.st45{fill-rule:evenodd;clip-rule:evenodd;fill:#B25E02;}
	.st46{fill:#F1AC85;}
</style>
<g>
	
		<linearGradient id="SVGID_1_" gradientUnits="userSpaceOnUse" x1="69.2668" y1="87.0316" x2="69.2668" y2="203.532" gradientTransform="matrix(0.8683 0.496 -0.9973 0.5819 280.0993 14.478)">
		<stop  offset="0" style="stop-color:#E4F2FF;stop-opacity:0"/>
		<stop  offset="5.554383e-02" style="stop-color:#E1EFFF;stop-opacity:5.558312e-02"/>
		<stop  offset="0.6478" style="stop-color:#C7D7FB;stop-opacity:0.6483"/>
		<stop  offset="0.9993" style="stop-color:#BDCEFA"/>
	</linearGradient>
	<path class="st0" d="M143.6,174l-10.5-6c-5.1-2.9-5.1-10.2-0.1-13.1L235.7,95c2.3-1.4,5.2-1.4,7.6,0l10.5,6
		c5.1,2.9,5.1,10.2,0.1,13.1L151.1,174C148.8,175.4,145.9,175.4,143.6,174z"/>
	<path class="st1" d="M263.8,100.1l-13.7-7.8c-1.1-0.6-1-1.8,0.3-2.5l1.4-0.8c1.3-0.8,3.2-0.8,4.4-0.2l13.7,7.8
		c1.1,0.6,1,1.8-0.3,2.5l-1.4,0.8C266.8,100.6,264.9,100.7,263.8,100.1z"/>
</g>
<g>
	<g>
		<linearGradient id="SVGID_2_" gradientUnits="userSpaceOnUse" x1="81.1554" y1="146.5549" x2="87.9481" y2="146.5549">
			<stop  offset="7.079140e-02" style="stop-color:#FCC4B7"/>
			<stop  offset="0.3148" style="stop-color:#F7B8A6"/>
			<stop  offset="0.7948" style="stop-color:#E99A7B"/>
			<stop  offset="0.9993" style="stop-color:#E28C66"/>
		</linearGradient>
		<path class="st2" d="M83.2,159.5L83.2,159.5c1.2,0.1,2.3-0.8,2.5-2l2.3-21.5c0.1-1.2-0.8-2.3-2-2.5l0,0c-1.2-0.1-2.3,0.8-2.5,2
			l-2.3,21.5C81,158.3,81.9,159.4,83.2,159.5z"/>
	</g>
	<g>
		<g>
			<g>
				<path class="st3" d="M96.1,189c0,0.3-0.2,0.6-0.6,0.8c-0.1,0.1,0-1.6-0.4-1.3c-0.1,0.1-5.5,4.3-8.5,3.5
					c-0.3-0.1-0.4-0.4-0.4-0.6l0-0.7c0-0.8,1.1-1.9,2.8-3.6c1.9-1.9,3.1-3,6-1.4c0.8,0.5,1.1,0.8,1.1,1.1L96.1,189z"/>
				<path class="st4" d="M89,187.1c-2.3,2.2-3.5,3.6-2.4,4.2c1.2,0.7,3.5-0.3,6-2.2c2.1-1.6,5.2-1.8,2.4-3.4
					C92.1,184,90.9,185.2,89,187.1z"/>
			</g>
		</g>
		<linearGradient id="SVGID_3_" gradientUnits="userSpaceOnUse" x1="94.2795" y1="186.0319" x2="94.2795" y2="164.6625">
			<stop  offset="7.079140e-02" style="stop-color:#FCC4B7"/>
			<stop  offset="0.3148" style="stop-color:#F7B8A6"/>
			<stop  offset="0.7948" style="stop-color:#E99A7B"/>
			<stop  offset="0.9993" style="stop-color:#E28C66"/>
		</linearGradient>
		<path class="st5" d="M91.3,186l0.2-20.7l5.7,1.9l-0.1,3.7c0,0,0.5,4.5-0.9,9.1c0,0-1,2-0.8,6.6C95.5,186.6,93,188,91.3,186z"/>
	</g>
	<g>
		<g>
			<g>
				<path class="st3" d="M89.5,183.6c0,0.3-0.2,0.6-0.6,0.8c-0.1,0.1,0-1.6-0.4-1.3c-0.1,0.1-5.5,4.3-8.5,3.5
					c-0.3-0.1-0.4-0.4-0.4-0.6l0-0.7c0-0.8,1.1-1.9,2.8-3.6c1.9-1.9,3.1-3,6-1.4c0.8,0.5,1.1,0.8,1.1,1.1L89.5,183.6z"/>
				<path class="st4" d="M82.4,181.6c-2.3,2.2-3.5,3.6-2.4,4.2c1.2,0.7,3.5-0.3,6-2.2c2.1-1.6,5.2-1.8,2.4-3.4
					C85.5,178.6,84.3,179.8,82.4,181.6z"/>
			</g>
		</g>
		<linearGradient id="SVGID_4_" gradientUnits="userSpaceOnUse" x1="88.2253" y1="178.2776" x2="88.2253" y2="162.5664">
			<stop  offset="7.079140e-02" style="stop-color:#FCC4B7"/>
			<stop  offset="0.3148" style="stop-color:#F7B8A6"/>
			<stop  offset="0.7948" style="stop-color:#E99A7B"/>
			<stop  offset="0.9993" style="stop-color:#E28C66"/>
		</linearGradient>
		<path class="st6" d="M84.7,180.6l0.2-20.7l6.8,2.2l-1.2,3.4c0,0,0.5,4.5-0.9,9.1c0,0-1,2-0.8,6.6
			C88.9,181.2,86.4,182.6,84.7,180.6z"/>
	</g>
	<linearGradient id="SVGID_5_" gradientUnits="userSpaceOnUse" x1="83.385" y1="160.8245" x2="100.7273" y2="160.8245">
		<stop  offset="7.043800e-02" style="stop-color:#FF7100"/>
		<stop  offset="0.1884" style="stop-color:#F46711"/>
		<stop  offset="0.4218" style="stop-color:#D94D3D"/>
		<stop  offset="0.745" style="stop-color:#AD2383"/>
		<stop  offset="0.9996" style="stop-color:#8800BF"/>
	</linearGradient>
	<path class="st7" d="M100.7,160.5v7.6c0,0-8.9,3-17.3-7.6v-7.4L100.7,160.5z"/>
	<linearGradient id="SVGID_6_" gradientUnits="userSpaceOnUse" x1="83.1897" y1="147.8487" x2="100.9227" y2="147.8487">
		<stop  offset="7.043800e-02" style="stop-color:#FFFFEB"/>
		<stop  offset="0.4884" style="stop-color:#EEEEE2"/>
		<stop  offset="0.9996" style="stop-color:#D4D4D4"/>
	</linearGradient>
	<path class="st8" d="M96.5,163.4c-0.1,0.1-0.2,0.1-0.3,0.1c-1.5,0.1-6.9-1.1-12.3-7.1c-0.4-0.5-0.7-1.2-0.7-1.7v-17.2
		c0-1.3,0.5-2.2,1.2-2.6l4.1-2.4c0.7-0.4,1.8-0.4,2.9,0.3l5.5,3.2c2.2,1.3,4.1,4.5,4.1,7v17.3c0,0.4-0.1,0.7-0.4,0.8L96.5,163.4z"/>
	<g>
		<linearGradient id="SVGID_7_" gradientUnits="userSpaceOnUse" x1="102.1964" y1="165.04" x2="96.1188" y2="140.1006">
			<stop  offset="7.079140e-02" style="stop-color:#FCC4B7"/>
			<stop  offset="0.3148" style="stop-color:#F7B8A6"/>
			<stop  offset="0.7948" style="stop-color:#E99A7B"/>
			<stop  offset="0.9993" style="stop-color:#E28C66"/>
		</linearGradient>
		<path class="st9" d="M99,165L99,165c1.2,0,2.2-1,2.2-2.2v-21.6c0-1.2-1-2.2-2.2-2.2l0,0c-1.2,0-2.2,1-2.2,2.2v21.6
			C96.8,164,97.8,165,99,165z"/>
	</g>
	<path class="st10" d="M94.9,137c0,0.4-0.3,0.9-0.8,1.2c-1.1,0.6-2.9,0.6-4,0c-0.6-0.3-0.8-0.8-0.8-1.2v-3.8c0-0.4,0.3-0.9,0.8-1.2
		c1.1-0.6,2.9-0.6,4,0c0.6,0.3,0.8,0.8,0.8,1.2V137z"/>
	<g>
		<path class="st11" d="M84.8,125.1L82,136c-0.3,1,0.8,1.9,1.7,1.5l6.5-2.7c0.6-0.2,0.9-0.8,0.8-1.4l-2.1-10.8
			c-0.2-1.1-1.7-1.4-2.3-0.4l-1.5,2.5C84.9,124.8,84.8,124.9,84.8,125.1z"/>
		<path class="st12" d="M94.7,131.6c0,0.9,0.7,1.3,1.5,0.8s1.5-1.6,1.5-2.5c0-0.9-0.7-1.3-1.5-0.8C95.3,129.6,94.7,130.7,94.7,131.6
			z"/>
		<linearGradient id="SVGID_8_" gradientUnits="userSpaceOnUse" x1="85.9759" y1="131.3111" x2="97.7122" y2="123.3472">
			<stop  offset="7.079140e-02" style="stop-color:#FCC4B7"/>
			<stop  offset="0.3148" style="stop-color:#F7B8A6"/>
			<stop  offset="0.7948" style="stop-color:#E99A7B"/>
			<stop  offset="0.9993" style="stop-color:#E28C66"/>
		</linearGradient>
		<circle class="st13" cx="92.1" cy="127.2" r="7.9"/>
		<path class="st11" d="M99.7,128.2c0,0-6.6,3.6-9.9-5.8c0,0-1.7,4-6.1,3.1c0,0,0-6.2,6.4-7.4C90.2,118,101.6,116.9,99.7,128.2z"/>
		<path class="st11" d="M96.1,128.5l-2.8,11c-0.3,1,0.8,1.9,1.7,1.5l6.5-2.7c0.6-0.2,0.9-0.8,0.8-1.4l-2.1-10.8
			c-0.2-1.1-1.7-1.4-2.3-0.4l-1.5,2.5C96.2,128.3,96.1,128.4,96.1,128.5z"/>
	</g>
</g>
<g>
	<g>
		<linearGradient id="SVGID_9_" gradientUnits="userSpaceOnUse" x1="41.6098" y1="138.4908" x2="39.146" y2="118.78">
			<stop  offset="7.079140e-02" style="stop-color:#FCC4B7"/>
			<stop  offset="0.3148" style="stop-color:#F7B8A6"/>
			<stop  offset="0.7948" style="stop-color:#E99A7B"/>
			<stop  offset="0.9993" style="stop-color:#E28C66"/>
		</linearGradient>
		<path class="st14" d="M41.5,139L41.5,139c-1.2,0.1-2.3-0.8-2.4-2l-1.8-17.2c-0.1-1.2,0.8-2.3,2-2.4l0,0c1.2-0.1,2.3,0.8,2.4,2
			l1.8,17.2C43.6,137.8,42.7,138.9,41.5,139z"/>
		<path class="st15" d="M43.1,122l-0.6-5.5c-0.2-1.9-1.9-3.2-3.8-3l0,0c-1.9,0.2-3.2,1.9-3,3.8l0.6,5.5
			C36.3,122.7,39,125.6,43.1,122z"/>
	</g>
	<g>
		<g>
			<path class="st3" d="M27.6,166.7c-0.1,1,2.2,1.6,4.1,2.7c2.7,1.6,5.6,2.4,7,1.6c0.3-0.2,0.5-0.5,0.5-0.8l0-1.6
				c0-0.9-1.3-2.3-3.3-4.2c-2.2-2.2-3.6-3.5-7-1.6c-1,0.5-1.3,1-1.3,1.3L27.6,166.7z"/>
			<path class="st16" d="M35.9,164.4c2.7,2.6,4.2,4.2,2.8,5c-1.4,0.8-4.1-0.4-7-2.5c-2.5-1.9-6.1-2.1-2.8-4
				C32.3,160.9,33.7,162.2,35.9,164.4z"/>
		</g>
		<linearGradient id="SVGID_10_" gradientUnits="userSpaceOnUse" x1="30.5762" y1="165.0355" x2="30.5762" y2="137.4156">
			<stop  offset="7.110540e-02" style="stop-color:#3A55CA"/>
			<stop  offset="0.2683" style="stop-color:#354CB9"/>
			<stop  offset="0.6562" style="stop-color:#28368E"/>
			<stop  offset="0.9993" style="stop-color:#1B2062"/>
		</linearGradient>
		<path class="st17" d="M33.8,162.5c0.1-0.2,0.2-0.4,0.2-0.7v-23.1c0-1.5-1.5-2.7-3.3-2.7l0,0c-1.8,0-3.3,1.2-3.3,2.7v25.1
			c0,0.4,0.2,0.7,0.6,0.8C29.1,165.1,32.2,165.6,33.8,162.5z"/>
	</g>
	<g>
		<g>
			<path class="st3" d="M34.8,161.4c-0.1,1,2.2,1.6,4.1,2.7c2.7,1.6,5.6,2.4,7,1.6c0.3-0.2,0.5-0.5,0.5-0.8l0-1.6
				c0-0.9-1.3-2.3-3.3-4.2c-2.2-2.2-3.6-3.5-7-1.6c-1,0.5-1.3,1-1.3,1.3L34.8,161.4z"/>
			<path class="st16" d="M43.2,159.1c2.7,2.6,4.2,4.2,2.8,5c-1.4,0.8-4.1-0.4-7-2.5c-2.5-1.9-6.1-2.1-2.8-4
				C39.5,155.6,40.9,156.9,43.2,159.1z"/>
		</g>
		<linearGradient id="SVGID_11_" gradientUnits="userSpaceOnUse" x1="37.8169" y1="161.2054" x2="37.8169" y2="133.2344">
			<stop  offset="7.110540e-02" style="stop-color:#3A55CA"/>
			<stop  offset="0.2683" style="stop-color:#354CB9"/>
			<stop  offset="0.6562" style="stop-color:#28368E"/>
			<stop  offset="0.9993" style="stop-color:#1B2062"/>
		</linearGradient>
		<path class="st18" d="M41,157.2c0.1-0.2,0.2-0.4,0.2-0.7v-23.1c0-1.5-1.5-2.7-3.3-2.7l0,0c-1.8,0-3.3,1.2-3.3,2.7v25.1
			c0,0.4,0.2,0.7,0.6,0.8C36.3,159.7,39.4,160.3,41,157.2z"/>
	</g>
	<linearGradient id="SVGID_12_" gradientUnits="userSpaceOnUse" x1="46.777" y1="119.1421" x2="24.9449" y2="132.1648">
		<stop  offset="7.110540e-02" style="stop-color:#54A5F8"/>
		<stop  offset="0.2734" style="stop-color:#5095E7"/>
		<stop  offset="0.671" style="stop-color:#476DBC"/>
		<stop  offset="0.9993" style="stop-color:#3F4893"/>
	</linearGradient>
	<path class="st19" d="M28.3,142.9c0.1,0.1,0.2,0.1,0.3,0.1c1.5,0.1,6.8-1,12.1-7c0.4-0.5,0.7-1.2,0.7-1.7v-17
		c0-1.3-0.5-2.2-1.2-2.6l-4-2.3c-0.7-0.4-1.7-0.4-2.9,0.3l-5.5,3.1c-2.2,1.3-4,4.4-4,6.9v17.1c0,0.4,0.1,0.7,0.4,0.8L28.3,142.9z"/>
	<path class="st20" d="M29.9,116.8c0,0.4,0.3,0.8,0.8,1.2c1.1,0.6,2.9,0.6,4,0c0.6-0.3,0.8-0.7,0.8-1.2v-3.7c0-0.4-0.3-0.8-0.8-1.2
		c-1.1-0.6-2.9-0.6-4,0c-0.6,0.3-0.8,0.7-0.8,1.2V116.8z"/>
	<linearGradient id="SVGID_13_" gradientUnits="userSpaceOnUse" x1="37.9798" y1="113.7436" x2="27.9071" y2="101.1527">
		<stop  offset="7.079140e-02" style="stop-color:#FCC4B7"/>
		<stop  offset="0.3148" style="stop-color:#F7B8A6"/>
		<stop  offset="0.7948" style="stop-color:#E99A7B"/>
		<stop  offset="0.9993" style="stop-color:#E28C66"/>
	</linearGradient>
	<circle class="st21" cx="32.7" cy="107.1" r="7.8"/>
	<g>
		<linearGradient id="SVGID_14_" gradientUnits="userSpaceOnUse" x1="25.8274" y1="142.8204" x2="25.8274" y2="123.1033">
			<stop  offset="7.079140e-02" style="stop-color:#FCC4B7"/>
			<stop  offset="0.3148" style="stop-color:#F7B8A6"/>
			<stop  offset="0.7948" style="stop-color:#E99A7B"/>
			<stop  offset="0.9993" style="stop-color:#E28C66"/>
		</linearGradient>
		<path class="st22" d="M25.8,144.5L25.8,144.5c-1.2,0-2.2-1-2.2-2.2V125c0-1.2,1-2.2,2.2-2.2l0,0c1.2,0,2.2,1,2.2,2.2v17.3
			C28,143.5,27,144.5,25.8,144.5z"/>
		<path class="st15" d="M29.2,127.8v-5.6c0-1.9-1.5-3.4-3.4-3.4h0c-1.9,0-3.4,1.5-3.4,3.4v5.6C22.4,127.8,24.8,130.9,29.2,127.8z"/>
	</g>
	<path class="st23" d="M26.2,98c-6.6,2.3-3.3,12,1.5,15.5c2.4-1.3-0.5-3.6,2.7-2c0.6-3.1-0.8-2.2,0.1-6.1c3.4,1.8,9.9-0.4,11-3.6
		c-1.2-0.5-2.4-3.9-5.2-5.1C32.8,95.1,28.2,95.7,26.2,98z"/>
	<path class="st24" d="M30.1,111.5c0,0.9-0.7,1.3-1.5,0.8c-0.8-0.5-1.5-1.6-1.5-2.5c0-0.9,0.7-1.3,1.5-0.8
		C29.5,109.5,30.1,110.6,30.1,111.5z"/>
</g>
<g>
	<g>
		<ellipse class="st25" cx="58.5" cy="172.9" rx="34.8" ry="20.1"/>
		<linearGradient id="SVGID_15_" gradientUnits="userSpaceOnUse" x1="93.5801" y1="195.3728" x2="22.3701" y2="194.3871">
			<stop  offset="0" style="stop-color:#E4F2FF"/>
			<stop  offset="5.554383e-02" style="stop-color:#E1EFFF"/>
			<stop  offset="0.6478" style="stop-color:#C7D7FB"/>
			<stop  offset="0.9993" style="stop-color:#BDCEFA"/>
		</linearGradient>
		<path class="st26" d="M83.1,187.1c-13.6,7.8-35.6,7.8-49.2,0c-6.7-3.9-10.1-9-10.2-14.1v24.1c-0.1,5.2,3.3,10.4,10.2,14.3
			c13.6,7.8,35.6,7.8,49.2,0c6.8-4,10.2-9.1,10.2-14.3V173C93.2,178.1,89.8,183.2,83.1,187.1z"/>
		<linearGradient id="SVGID_16_" gradientUnits="userSpaceOnUse" x1="24.3349" y1="165.4348" x2="89.3344" y2="166.8128">
			<stop  offset="0" style="stop-color:#00E9FF"/>
			<stop  offset="0.1813" style="stop-color:#01D1FF"/>
			<stop  offset="0.5456" style="stop-color:#02A6FF"/>
			<stop  offset="0.8306" style="stop-color:#038CFF"/>
			<stop  offset="0.9993" style="stop-color:#0382FF"/>
		</linearGradient>
		<path class="st27" d="M37.1,167.3c11.8-6.8,30.9-6.8,42.7,0c4.4,2.5,7.1,5.7,8.3,8.9c1.9-5.5-0.9-11.5-8.3-15.7
			c-11.8-6.8-30.9-6.8-42.7,0c-7.4,4.3-10.2,10.2-8.3,15.7C30,173,32.7,169.9,37.1,167.3z"/>
	</g>
	<g>
		<g>
			<linearGradient id="SVGID_17_" gradientUnits="userSpaceOnUse" x1="72.9713" y1="64.6495" x2="45.0476" y2="144.9876">
				<stop  offset="0" style="stop-color:#00E9FF"/>
				<stop  offset="0.1813" style="stop-color:#01D1FF"/>
				<stop  offset="0.5456" style="stop-color:#02A6FF"/>
				<stop  offset="0.8306" style="stop-color:#038CFF"/>
				<stop  offset="0.9993" style="stop-color:#0382FF"/>
			</linearGradient>
			<path class="st28" d="M40.1,136.5c-0.1,0-0.3-0.1-0.3-0.2c-0.1-0.1-0.1-0.3-0.1-0.5l15.9-29.2L39.8,92.7
				c-0.1-0.1-0.2-0.2-0.2-0.4c0-0.1,0.1-0.3,0.2-0.4l35.5-21.5c0.2-0.1,0.4-0.1,0.6,0.1c0.1,0.1,0.2,0.4,0.1,0.5l-19.3,35.3
				L76,123.3c0.1,0.1,0.2,0.3,0.1,0.4c0,0.2-0.1,0.3-0.3,0.3l-35.5,12.4C40.2,136.5,40.2,136.5,40.1,136.5z M56.4,107.2l-15.3,28
				l33.7-11.8L56.4,107.2z M40.9,92.4l15.2,13.4l18.4-33.6L40.9,92.4z"/>
			<radialGradient id="SVGID_18_" cx="76.5976" cy="67.8928" r="6.6893" gradientUnits="userSpaceOnUse">
				<stop  offset="0" style="stop-color:#00E9FF"/>
				<stop  offset="0.3341" style="stop-color:#04DAEE"/>
				<stop  offset="0.9921" style="stop-color:#0DB1C3"/>
				<stop  offset="0.9996" style="stop-color:#0DB1C2"/>
			</radialGradient>
			<path class="st29" d="M80.7,70.9c0,2.8-2.3,5-5,5c-2.8,0-5-2.3-5-5c0-2.8,2.3-5,5-5C78.5,65.8,80.7,68.1,80.7,70.9z"/>
			<radialGradient id="SVGID_19_" cx="41.7406" cy="89.849" r="7.671" gradientUnits="userSpaceOnUse">
				<stop  offset="0" style="stop-color:#A29AFB"/>
				<stop  offset="0.3251" style="stop-color:#9389F4"/>
				<stop  offset="0.9653" style="stop-color:#6D5EE0"/>
				<stop  offset="0.9996" style="stop-color:#6B5BDF"/>
			</radialGradient>
			<path class="st30" d="M45.2,92.4c0,2.8-2.3,5-5,5c-2.8,0-5-2.3-5-5c0-2.8,2.3-5,5-5C42.9,87.3,45.2,89.6,45.2,92.4z"/>
			<radialGradient id="SVGID_20_" cx="57.9566" cy="103.5327" r="6.4717" gradientUnits="userSpaceOnUse">
				<stop  offset="0" style="stop-color:#00E9FF"/>
				<stop  offset="0.3341" style="stop-color:#04DAEE"/>
				<stop  offset="0.9921" style="stop-color:#0DB1C3"/>
				<stop  offset="0.9996" style="stop-color:#0DB1C2"/>
			</radialGradient>
			<path class="st31" d="M61.2,106.5c0,2.8-2.3,5-5,5c-2.8,0-5-2.3-5-5c0-2.8,2.3-5,5-5C58.9,101.5,61.2,103.7,61.2,106.5z"/>
			<radialGradient id="SVGID_21_" cx="77.0516" cy="121.7692" r="6.098" gradientUnits="userSpaceOnUse">
				<stop  offset="0" style="stop-color:#6C91EA"/>
				<stop  offset="0.3656" style="stop-color:#4E75CF"/>
				<stop  offset="0.7632" style="stop-color:#345DB8"/>
				<stop  offset="0.9993" style="stop-color:#2A54AF"/>
			</radialGradient>
			<path class="st32" d="M80.7,123.6c0,2.8-2.3,5-5,5c-2.8,0-5-2.3-5-5c0-2.8,2.3-5,5-5C78.5,118.6,80.7,120.8,80.7,123.6z"/>
			<radialGradient id="SVGID_22_" cx="41.9645" cy="133.038" r="6.9416" gradientUnits="userSpaceOnUse">
				<stop  offset="0" style="stop-color:#A29AFB"/>
				<stop  offset="0.3251" style="stop-color:#9389F4"/>
				<stop  offset="0.9653" style="stop-color:#6D5EE0"/>
				<stop  offset="0.9996" style="stop-color:#6B5BDF"/>
			</radialGradient>
			<path class="st33" d="M45.2,136c0,2.8-2.3,5-5,5c-2.8,0-5-2.3-5-5s2.3-5,5-5C42.9,131,45.2,133.2,45.2,136z"/>
		</g>
		<g>
			<linearGradient id="SVGID_23_" gradientUnits="userSpaceOnUse" x1="58.4638" y1="22.421" x2="58.4638" y2="218.4632">
				<stop  offset="0" style="stop-color:#FFFFFF;stop-opacity:0"/>
				<stop  offset="1" style="stop-color:#00E9FF"/>
			</linearGradient>
			<path class="st34" d="M28.3,172.2c-0.3,4.7,2.6,9.4,8.8,13c11.8,6.8,30.9,6.8,42.7,0c6.2-3.6,9.1-8.3,8.8-13V34.7
				c0.3-4.7-2.6-9.4-8.8-13c-11.8-6.8-30.9-6.8-42.7,0c-6.2,3.6-9.1,8.3-8.8,13V172.2z"/>
			<linearGradient id="SVGID_24_" gradientUnits="userSpaceOnUse" x1="58.4638" y1="215.2866" x2="58.4638" y2="42.6681">
				<stop  offset="0" style="stop-color:#FFFFFF"/>
				<stop  offset="7.993175e-02" style="stop-color:#E6E6EB;stop-opacity:0.92"/>
				<stop  offset="0.3367" style="stop-color:#9A9CAD;stop-opacity:0.6631"/>
				<stop  offset="0.566" style="stop-color:#5F617C;stop-opacity:0.4336"/>
				<stop  offset="0.7597" style="stop-color:#333659;stop-opacity:0.2397"/>
				<stop  offset="0.9103" style="stop-color:#191C43;stop-opacity:8.906609e-02"/>
				<stop  offset="0.9993" style="stop-color:#0F123B;stop-opacity:0"/>
			</linearGradient>
			<path class="st35" d="M37.7,165.8c-0.2,4.9,1.8,9.9,6.1,13.7c8.1,7.2,21.3,7.2,29.4,0c4.3-3.8,6.3-8.8,6.1-13.7l9.4-137
				c0.3-4.7-2.6-9.4-8.8-13C68,9,48.9,9,37.1,15.8c-6.2,3.6-9.1,8.3-8.8,13L37.7,165.8z"/>
		</g>
	</g>
</g>
<g>
	<g>
		<path d="M32.6,210.8c0.1,0.9-1.3,2.2-3.4,3.4c-2.8,1.6-3.8,3.7-7.3,1.7c-1-0.6-1.4-1-1.4-1.4v-2.2c-0.1-1,2.3-1.6,4.3-2.8
			c2.8-1.6,5.8-2.5,7.3-1.7c0.4,0.2,0.5,0.5,0.5,0.8V210.8z"/>
		<path class="st36" d="M29.1,212c2.8-1.6,4.3-3.4,2.9-4.2c-1.4-0.8-4.5,0.1-7.3,1.7c-2.8,1.6-6.4,2.2-2.9,4.2
			C25.3,215.7,26.3,213.7,29.1,212z"/>
	</g>
	<g>
		<path d="M24.8,205.4c0.1,0.9-1.3,2.2-3.4,3.4c-2.8,1.6-3.8,3.7-7.3,1.7c-1-0.6-1.4-1-1.4-1.4v-2.2c-0.1-1,2.3-1.6,4.3-2.8
			c2.8-1.6,5.8-2.5,7.3-1.7c0.4,0.2,0.5,0.5,0.5,0.8V205.4z"/>
		<path class="st36" d="M21.3,206.7c2.8-1.6,4.3-3.4,2.9-4.2c-1.4-0.8-4.5,0.1-7.3,1.7c-2.8,1.6-6.4,2.2-2.9,4.2
			C17.5,210.3,18.5,208.3,21.3,206.7z"/>
	</g>
	<g>
		
			<linearGradient id="SVGID_25_" gradientUnits="userSpaceOnUse" x1="100.5448" y1="396.984" x2="108.1039" y2="409.6309" gradientTransform="matrix(0.8905 -0.455 -0.455 -0.8905 104.3544 581.6517)">
			<stop  offset="7.079140e-02" style="stop-color:#FCC4B7"/>
			<stop  offset="0.3148" style="stop-color:#F7B8A6"/>
			<stop  offset="0.7948" style="stop-color:#E99A7B"/>
			<stop  offset="0.9993" style="stop-color:#E28C66"/>
		</linearGradient>
		<path class="st37" d="M13,183.2L13,183.2c1.3,0.1,2.4-0.8,2.5-2.1l1.5-17.9c0.1-1.3-0.8-2.4-2.1-2.5l0,0c-1.3-0.1-2.4,0.8-2.5,2.1
			l-1.5,17.9C10.8,181.9,11.7,183.1,13,183.2z"/>
		<path class="st38" d="M10.9,165.5l0.5-5.8c0.2-2,1.9-3.4,3.9-3.3l0,0c2,0.2,3.4,1.9,3.3,3.9l-0.5,5.8
			C18,166.1,15.3,169.1,10.9,165.5z"/>
	</g>
	<g>
		
			<linearGradient id="SVGID_26_" gradientUnits="userSpaceOnUse" x1="1164.0829" y1="211.9588" x2="1164.0829" y2="191.4457" gradientTransform="matrix(-1 0 0 1 1187.9214 0)">
			<stop  offset="7.079140e-02" style="stop-color:#58A3FC"/>
			<stop  offset="0.2311" style="stop-color:#5295EB"/>
			<stop  offset="0.548" style="stop-color:#4371BF"/>
			<stop  offset="0.9881" style="stop-color:#2A3879"/>
			<stop  offset="0.9996" style="stop-color:#293677"/>
		</linearGradient>
		<path class="st39" d="M20.5,211.3c-0.1-0.2-0.2-0.5-0.2-0.7v-24.1c0-1.5,1.6-2.8,3.5-2.8l0,0c1.9,0,3.5,1.2,3.5,2.8v26.2
			c0,0.4-0.3,0.7-0.6,0.8C25.4,214,22.2,214.6,20.5,211.3z"/>
	</g>
	<g>
		
			<linearGradient id="SVGID_27_" gradientUnits="userSpaceOnUse" x1="1171.6385" y1="206.4796" x2="1171.6385" y2="184.3871" gradientTransform="matrix(-1 0 0 1 1187.9214 0)">
			<stop  offset="7.079140e-02" style="stop-color:#3A55CA"/>
			<stop  offset="0.2682" style="stop-color:#354CB9"/>
			<stop  offset="0.6563" style="stop-color:#28368E"/>
			<stop  offset="0.9996" style="stop-color:#1B2062"/>
		</linearGradient>
		<path class="st40" d="M13,205.8c-0.1-0.2-0.2-0.5-0.2-0.7V181c0-1.5,1.6-2.8,3.5-2.8l0,0c1.9,0,3.5,1.2,3.5,2.8v26.2
			c0,0.4-0.3,0.7-0.6,0.8C17.8,208.4,14.6,209,13,205.8z"/>
	</g>
	
		<linearGradient id="SVGID_28_" gradientUnits="userSpaceOnUse" x1="475.5876" y1="173.3715" x2="452.7081" y2="175.8633" gradientTransform="matrix(-1 0 0 1 484.7448 0)">
		<stop  offset="7.108580e-02" style="stop-color:#B7ECF4"/>
		<stop  offset="0.2066" style="stop-color:#A6E8F3"/>
		<stop  offset="0.4747" style="stop-color:#7ADDF1"/>
		<stop  offset="0.8463" style="stop-color:#34CCED"/>
		<stop  offset="0.9993" style="stop-color:#15C4EB"/>
	</linearGradient>
	<path class="st41" d="M26.2,190.9c-0.1,0.1-0.2,0.1-0.3,0.1c-1.5,0.1-7.1-1.1-12.6-7.3c-0.5-0.5-0.8-1.2-0.8-1.8v-17.8
		c0-1.3,0.5-2.3,1.2-2.7l4.2-2.4c0.8-0.5,1.8-0.4,3,0.3l5.7,3.3c2.3,1.3,4.2,4.6,4.2,7.2v17.9c0,0.4-0.1,0.7-0.4,0.9L26.2,190.9z"/>
	<path class="st42" d="M24.6,163.6c0,0.4-0.3,0.9-0.9,1.2c-1.1,0.7-3,0.7-4.2,0c-0.6-0.3-0.9-0.8-0.9-1.2v-3.9
		c0-0.4,0.3-0.9,0.9-1.2c1.1-0.7,3-0.7,4.2,0c0.6,0.3,0.9,0.8,0.9,1.2V163.6z"/>
	
		<linearGradient id="SVGID_29_" gradientUnits="userSpaceOnUse" x1="1170.3148" y1="155.5987" x2="1155.059" y2="147.8012" gradientTransform="matrix(-1 0 0 1 1187.9214 0)">
		<stop  offset="7.079140e-02" style="stop-color:#FCC4B7"/>
		<stop  offset="0.3148" style="stop-color:#F7B8A6"/>
		<stop  offset="0.7948" style="stop-color:#E99A7B"/>
		<stop  offset="0.9993" style="stop-color:#E28C66"/>
	</linearGradient>
	<circle class="st43" cx="21.6" cy="153.5" r="8.1"/>
	<g>
		
			<linearGradient id="SVGID_30_" gradientUnits="userSpaceOnUse" x1="79.7201" y1="-571.9438" x2="79.7201" y2="-594.7329" gradientTransform="matrix(0.7828 0.6222 0.6222 -0.7828 334.7909 -347.421)">
			<stop  offset="7.079140e-02" style="stop-color:#FCC4B7"/>
			<stop  offset="0.3148" style="stop-color:#F7B8A6"/>
			<stop  offset="0.7948" style="stop-color:#E99A7B"/>
			<stop  offset="0.9993" style="stop-color:#E28C66"/>
		</linearGradient>
		<path class="st44" d="M41.6,148.6L41.6,148.6c-1-0.8-2.5-0.5-3.2,0.5l-10.1,14.4c-0.8,1-0.5,2.5,0.5,3.2l0,0
			c1,0.8,2.5,0.5,3.2-0.5l10.1-14.4C42.8,150.8,42.6,149.4,41.6,148.6z"/>
		<path class="st25" d="M34.7,164.7l-3.5,4.7c-1.2,1.6-3.4,1.9-5,0.7l0,0c-1.6-1.2-1.9-3.4-0.7-5l3.5-4.7
			C28.9,160.4,32.9,159.3,34.7,164.7z"/>
	</g>
	<path class="st45" d="M17.1,160.9c2.6,1.5,4.5,0.4,5.2-0.7c1.7-2.7,2-0.9,3.1-2.2c1.4-2.2,1.1-5.3,3-6.7c2.7-2,2-6.1-5.1-7.9
		C13.6,141,9.9,153,15.8,160C16.3,160.5,16.5,160.6,17.1,160.9z"/>
	<path class="st46" d="M24.5,158.4c0.7,0.7,1.4,0.5,1.7-0.5c0.3-0.9-0.1-2.2-0.8-2.9c-0.7-0.7-1.4-0.5-1.7,0.5
		C23.4,156.4,23.8,157.7,24.5,158.4z"/>
</g>
</svg>
