<?xml version="1.0" encoding="utf-8"?>
<!-- Generator: Adobe Illustrator 22.0.0, SVG Export Plug-In . SVG Version: 6.00 Build 0)  -->
<svg version="1.1" id="Capa_1" xmlns="http://www.w3.org/2000/svg" xmlns:xlink="http://www.w3.org/1999/xlink" x="0px" y="0px"
	 viewBox="0 0 102.1 206.6" style="enable-background:new 0 0 102.1 206.6;" xml:space="preserve">
<style type="text/css">
	.st0{fill:url(#SVGID_1_);}
	.st1{fill:#030403;}
	.st2{fill:#37315F;}
	.st3{fill:url(#SVGID_2_);}
	.st4{fill:url(#SVGID_3_);}
	.st5{fill:url(#SVGID_4_);}
	.st6{fill:url(#SVGID_5_);}
	.st7{fill:url(#SVGID_6_);}
	.st8{fill:#E28C66;}
	.st9{fill:#7A4695;}
	.st10{fill:#F6AA83;}
	.st11{fill:url(#SVGID_7_);}
	.st12{fill:url(#SVGID_8_);}
	.st13{fill:#283676;}
	.st14{fill:#1C1C38;}
	.st15{fill:url(#SVGID_9_);}
	.st16{fill:url(#SVGID_10_);}
	.st17{fill:url(#SVGID_11_);}
	.st18{fill:#E5A89C;}
	.st19{fill:url(#SVGID_12_);}
	.st20{fill:url(#SVGID_13_);}
	.st21{fill:#E58802;}
	.st22{fill:#F8C3B7;}
	.st23{fill:#FFFFFF;}
	.st24{fill:url(#SVGID_14_);}
	.st25{fill:url(#SVGID_15_);}
	.st26{fill:url(#SVGID_16_);}
	.st27{fill:url(#SVGID_17_);}
	.st28{fill:url(#SVGID_18_);}
	.st29{fill:url(#SVGID_19_);}
	.st30{fill:url(#SVGID_20_);}
	.st31{fill:url(#SVGID_21_);}
	.st32{fill:url(#SVGID_22_);}
	.st33{fill:url(#SVGID_23_);}
	.st34{fill:#010101;}
	.st35{fill:#2D245B;}
	.st36{fill:url(#SVGID_24_);}
	.st37{fill:#D6E3E5;}
	.st38{fill:url(#SVGID_25_);}
	.st39{fill:url(#SVGID_26_);}
	.st40{fill:url(#SVGID_27_);}
	.st41{fill:#DD936E;}
	.st42{fill:url(#SVGID_28_);}
	.st43{fill:url(#SVGID_29_);}
	.st44{fill:#B25F17;}
	.st45{fill:#F0AC84;}
</style>
<title>11</title>
<g>
	<g id="Capa_1_1_">
		
			<linearGradient id="SVGID_1_" gradientUnits="userSpaceOnUse" x1="78.5195" y1="79.3944" x2="86.1055" y2="79.3944" gradientTransform="matrix(1 0 0 -1 0 207)">
			<stop  offset="7.000000e-02" style="stop-color:#F8C3B7"/>
			<stop  offset="0.31" style="stop-color:#F3B8A6"/>
			<stop  offset="0.79" style="stop-color:#E89A7B"/>
			<stop  offset="1" style="stop-color:#E28C66"/>
		</linearGradient>
		<path class="st0" d="M80.7,142.1L80.7,142.1c1.4,0.1,2.6-0.9,2.8-2.2l2.6-24c0.1-1.4-0.9-2.6-2.2-2.7l0,0
			c-1.4-0.1-2.6,0.8-2.7,2.2c0,0,0,0,0,0l-2.6,24C78.4,140.7,79.4,141.9,80.7,142.1z"/>
		<path class="st1" d="M95.2,175c0,0.3-0.2,0.6-0.7,0.9c-0.1,0.1,0-1.8-0.4-1.5c-0.1,0.1-6.1,4.8-9.5,3.9c-0.3-0.1-0.5-0.4-0.5-0.7
			v-0.8c0-0.8,1.2-2.1,3.2-4c2.1-2.1,3.5-3.4,6.6-1.5c0.9,0.5,1.3,0.9,1.3,1.3L95.2,175z"/>
		<path class="st2" d="M87.3,172.9c-2.6,2.5-4,4-2.6,4.7c1.3,0.8,3.9-0.4,6.7-2.4c2.4-1.8,5.8-2,2.6-3.8
			C90.8,169.5,89.4,170.8,87.3,172.9z"/>
		
			<linearGradient id="SVGID_2_" gradientUnits="userSpaceOnUse" x1="93.1769" y1="35.2911" x2="93.1769" y2="59.1664" gradientTransform="matrix(1 0 0 -1 0 207)">
			<stop  offset="7.000000e-02" style="stop-color:#F8C3B7"/>
			<stop  offset="0.31" style="stop-color:#F3B8A6"/>
			<stop  offset="0.79" style="stop-color:#E89A7B"/>
			<stop  offset="1" style="stop-color:#E28C66"/>
		</linearGradient>
		<path class="st3" d="M89.9,171.7l0.2-23.1l6.4,2.1l-0.1,4.2c0.3,3.4,0,6.8-1,10.1c0,0-1.1,2.2-0.9,7.4
			C94.5,172.3,91.7,173.9,89.9,171.7z"/>
		<path class="st1" d="M87.9,169c0,0.3-0.2,0.6-0.7,0.9c-0.1,0.1,0-1.8-0.4-1.5c-0.1,0.1-6.1,4.8-9.5,3.9c-0.3-0.1-0.5-0.4-0.5-0.7
			v-0.8c0-0.9,1.2-2.2,3.2-4c2.1-2.1,3.5-3.4,6.7-1.5c0.9,0.5,1.3,0.9,1.3,1.3L87.9,169z"/>
		<path class="st2" d="M79.9,166.8c-2.6,2.5-4,4-2.6,4.7c1.3,0.8,3.9-0.4,6.7-2.4c2.4-1.8,5.8-2,2.6-3.8
			C83.5,163.5,82,164.7,79.9,166.8z"/>
		
			<linearGradient id="SVGID_3_" gradientUnits="userSpaceOnUse" x1="86.4128" y1="43.9497" x2="86.4128" y2="61.5014" gradientTransform="matrix(1 0 0 -1 0 207)">
			<stop  offset="7.000000e-02" style="stop-color:#F8C3B7"/>
			<stop  offset="0.31" style="stop-color:#F3B8A6"/>
			<stop  offset="0.79" style="stop-color:#E89A7B"/>
			<stop  offset="1" style="stop-color:#E28C66"/>
		</linearGradient>
		<path class="st4" d="M82.5,165.6l0.2-23.1l7.6,2.5l-1.3,3.8c0.3,3.4,0,6.8-1,10.1c0,0-1.1,2.2-0.9,7.4
			C87.2,166.3,84.4,167.9,82.5,165.6z"/>
		
			<linearGradient id="SVGID_4_" gradientUnits="userSpaceOnUse" x1="80.9998" y1="63.4507" x2="100.3838" y2="63.4507" gradientTransform="matrix(1 0 0 -1 0 207)">
			<stop  offset="7.000000e-02" style="stop-color:#EE711B"/>
			<stop  offset="0.23" style="stop-color:#DD6A2A"/>
			<stop  offset="0.55" style="stop-color:#B15850"/>
			<stop  offset="0.99" style="stop-color:#6B3A8D"/>
			<stop  offset="1" style="stop-color:#6A3A8E"/>
		</linearGradient>
		<path class="st5" d="M100.4,143.2v8.5c0,0-10,3.4-19.4-8.5v-8.3L100.4,143.2z"/>
		
			<linearGradient id="SVGID_5_" gradientUnits="userSpaceOnUse" x1="80.7692" y1="77.9426" x2="100.5691" y2="77.9426" gradientTransform="matrix(1 0 0 -1 0 207)">
			<stop  offset="7.000000e-02" style="stop-color:#FEFCEC"/>
			<stop  offset="0.5" style="stop-color:#EDECE3"/>
			<stop  offset="1" style="stop-color:#D4D4D5"/>
		</linearGradient>
		<path class="st6" d="M95.6,146.5c-0.1,0.1-0.2,0.1-0.3,0.1c-1.7,0.1-7.7-1.2-13.7-8c-0.5-0.5-0.8-1.2-0.8-2v-19.2
			c-0.1-1.2,0.4-2.3,1.4-2.9l4.5-2.6c1-0.5,2.3-0.4,3.2,0.3l6.3,3.6c2.6,1.8,4.3,4.7,4.5,7.8v19.4c0,0.4-0.1,0.7-0.4,0.9L95.6,146.5
			z"/>
		
			<linearGradient id="SVGID_6_" gradientUnits="userSpaceOnUse" x1="102.0237" y1="58.7412" x2="95.2309" y2="86.605" gradientTransform="matrix(1 0 0 -1 0 207)">
			<stop  offset="7.000000e-02" style="stop-color:#F8C3B7"/>
			<stop  offset="0.31" style="stop-color:#F3B8A6"/>
			<stop  offset="0.79" style="stop-color:#E89A7B"/>
			<stop  offset="1" style="stop-color:#E28C66"/>
		</linearGradient>
		<path class="st7" d="M98.5,148.2L98.5,148.2c1.4,0,2.5-1.1,2.5-2.5v-24.1c0-1.4-1.1-2.5-2.5-2.5l0,0c-1.4,0-2.5,1.1-2.5,2.5v24.1
			C96,147.1,97.1,148.2,98.5,148.2z"/>
		<path class="st8" d="M93.9,116.9c0,0.6-0.4,1.1-0.9,1.3c-1.4,0.7-3.1,0.7-4.5,0c-0.5-0.2-0.9-0.7-0.9-1.3v-4.2
			c0-0.6,0.4-1.1,0.9-1.3c1.4-0.7,3.1-0.7,4.5,0c0.5,0.2,0.9,0.7,0.9,1.3V116.9z"/>
		<path class="st9" d="M82.6,103.6l-3.2,12.3c-0.2,0.8,0.3,1.5,1,1.7c0.3,0.1,0.6,0.1,0.9-0.1l7.3-3c0.6-0.3,1-0.9,0.8-1.6l-2.4-12
			c-0.2-0.8-0.9-1.3-1.7-1.1c-0.4,0.1-0.7,0.3-0.9,0.6l-1.7,2.8C82.7,103.4,82.6,103.5,82.6,103.6z"/>
		<path class="st10" d="M93.6,111c0,1.1,0.7,1.5,1.7,0.9c1-0.6,1.6-1.7,1.6-2.8c0-1.1-0.7-1.5-1.6-0.9
			C94.3,108.7,93.7,109.8,93.6,111z"/>
		
			<linearGradient id="SVGID_7_" gradientUnits="userSpaceOnUse" x1="83.9062" y1="96.4237" x2="97.0113" y2="105.3169" gradientTransform="matrix(1 0 0 -1 0 207)">
			<stop  offset="7.000000e-02" style="stop-color:#F8C3B7"/>
			<stop  offset="0.31" style="stop-color:#F3B8A6"/>
			<stop  offset="0.79" style="stop-color:#E89A7B"/>
			<stop  offset="1" style="stop-color:#E28C66"/>
		</linearGradient>
		<circle class="st11" cx="90.7" cy="105.9" r="8.8"/>
		<path class="st9" d="M99.3,107.1c0,0-7.4,4.1-11-6.5c-1.2,2.6-4,4-6.8,3.5c0.1-4.1,3.1-7.6,7.2-8.3
			C88.7,95.8,101.4,94.5,99.3,107.1z"/>
		<path class="st9" d="M95.2,107.5L92,119.7c-0.2,0.8,0.2,1.5,1,1.7c0.3,0.1,0.6,0.1,0.9-0.1l7.3-3c0.6-0.3,1-0.9,0.8-1.6l-2.4-12
			c-0.1-0.8-0.9-1.3-1.7-1.1c-0.4,0.1-0.8,0.3-1,0.7l-1.7,2.8C95.3,107.2,95.2,107.3,95.2,107.5z"/>
		
			<linearGradient id="SVGID_8_" gradientUnits="userSpaceOnUse" x1="34.3548" y1="88.407" x2="31.6064" y2="110.4277" gradientTransform="matrix(1 0 0 -1 0 207)">
			<stop  offset="7.000000e-02" style="stop-color:#F8C3B7"/>
			<stop  offset="0.31" style="stop-color:#F3B8A6"/>
			<stop  offset="0.79" style="stop-color:#E89A7B"/>
			<stop  offset="1" style="stop-color:#E28C66"/>
		</linearGradient>
		<path class="st12" d="M34.2,119.2L34.2,119.2c-1.4,0.1-2.6-0.8-2.7-2.2c0,0,0,0,0,0l-2.1-19.2c-0.1-1.4,0.8-2.6,2.2-2.7
			c0,0,0,0,0,0l0,0c1.4-0.1,2.6,0.9,2.7,2.2c0,0,0,0,0,0l2.1,19.2C36.6,117.8,35.6,119.1,34.2,119.2
			C34.2,119.2,34.2,119.2,34.2,119.2z"/>
		<path class="st13" d="M36,100.2L35.3,94c-0.2-2.1-2.1-3.6-4.2-3.4l0,0c-2.1,0.3-3.6,2.1-3.4,4.2l0.7,6.2
			C28.4,101,31.5,104.3,36,100.2z"/>
		<path class="st1" d="M18.6,150.1c-0.1,1.1,2.5,1.8,4.6,3c3,1.7,6.2,2.7,7.8,1.8c0.3-0.2,0.6-0.5,0.6-0.8v-1.7
			c0.1-1-1.4-2.5-3.7-4.7c-2.5-2.4-4.1-3.9-7.8-1.8c-1.1,0.6-1.5,1.1-1.5,1.5L18.6,150.1z"/>
		<path class="st14" d="M27.9,147.6c3,2.9,4.6,4.7,3.1,5.6c-1.6,0.9-4.6-0.5-7.8-2.8c-2.8-2.1-6.8-2.3-3.1-4.5
			C23.8,143.7,25.5,145.1,27.9,147.6z"/>
		
			<linearGradient id="SVGID_9_" gradientUnits="userSpaceOnUse" x1="22.0044" y1="58.7418" x2="22.0044" y2="89.5998" gradientTransform="matrix(1 0 0 -1 0 207)">
			<stop  offset="7.000000e-02" style="stop-color:#3E57A3"/>
			<stop  offset="0.34" style="stop-color:#394D92"/>
			<stop  offset="0.88" style="stop-color:#2A3267"/>
			<stop  offset="1" style="stop-color:#272B5C"/>
		</linearGradient>
		<path class="st15" d="M25.6,145.4c0.1-0.2,0.2-0.5,0.2-0.7v-25.8c0-1.6-1.7-3-3.7-3l0,0c-2.1,0-3.7,1.3-3.7,3V147
			c0,0.4,0.3,0.8,0.7,0.9C20.4,148.3,23.8,149,25.6,145.4z"/>
		<path class="st1" d="M26.7,144.2c-0.1,1.1,2.5,1.7,4.6,3c3,1.7,6.2,2.7,7.8,1.8c0.3-0.2,0.6-0.5,0.6-0.8v-1.8c0-1-1.4-2.5-3.7-4.7
			c-2.5-2.4-4.1-3.9-7.8-1.8c-1.1,0.6-1.5,1.1-1.5,1.5L26.7,144.2z"/>
		<path class="st14" d="M36.1,141.6c3,2.9,4.6,4.7,3.1,5.6c-1.5,0.9-4.6-0.4-7.8-2.8c-2.8-2.1-6.8-2.4-3.1-4.5
			S33.5,139.2,36.1,141.6z"/>
		
			<linearGradient id="SVGID_10_" gradientUnits="userSpaceOnUse" x1="30.0933" y1="63.0208" x2="30.0933" y2="94.2698" gradientTransform="matrix(1 0 0 -1 0 207)">
			<stop  offset="7.000000e-02" style="stop-color:#3E57A3"/>
			<stop  offset="0.34" style="stop-color:#394D92"/>
			<stop  offset="0.88" style="stop-color:#2A3267"/>
			<stop  offset="1" style="stop-color:#272B5C"/>
		</linearGradient>
		<path class="st16" d="M33.7,139.5c0.1-0.2,0.2-0.5,0.2-0.7v-25.8c0-1.6-1.7-3-3.7-3l0,0c-2.1,0-3.7,1.3-3.7,3V141
			c0,0.4,0.3,0.8,0.7,0.9C28.5,142.3,31.9,142.9,33.7,139.5z"/>
		
			<linearGradient id="SVGID_11_" gradientUnits="userSpaceOnUse" x1="40.1285" y1="109.9903" x2="15.7282" y2="95.4327" gradientTransform="matrix(1 0 0 -1 0 207)">
			<stop  offset="7.000000e-02" style="stop-color:#629FD6"/>
			<stop  offset="0.3" style="stop-color:#5B8EC9"/>
			<stop  offset="0.76" style="stop-color:#4963A8"/>
			<stop  offset="1" style="stop-color:#3F4994"/>
		</linearGradient>
		<path class="st17" d="M19.5,123.5c0.1,0.1,0.2,0.1,0.3,0.1c1.7,0.1,7.6-1.1,13.5-7.8c0.5-0.5,0.8-1.2,0.8-1.9v-19
			c0.1-1.1-0.4-2.3-1.3-2.9l-4.5-2.6c-1-0.5-2.3-0.4-3.2,0.3l-6.1,3.5c-2.6,1.7-4.3,4.6-4.5,7.8V120c0,0.4,0.1,0.7,0.4,0.9
			L19.5,123.5z"/>
		<path class="st18" d="M21.2,94.3c0,0.6,0.4,1.1,0.9,1.3c1.4,0.7,3.1,0.7,4.5,0c0.5-0.2,0.9-0.7,0.9-1.3v-4.1
			c0-0.6-0.4-1.1-0.9-1.3c-1.4-0.7-3.1-0.7-4.5,0c-0.5,0.2-0.9,0.7-0.9,1.3V94.3z"/>
		
			<linearGradient id="SVGID_12_" gradientUnits="userSpaceOnUse" x1="30.2739" y1="116.0418" x2="19.0234" y2="130.1189" gradientTransform="matrix(1 0 0 -1 0 207)">
			<stop  offset="7.000000e-02" style="stop-color:#F8C3B7"/>
			<stop  offset="0.31" style="stop-color:#F3B8A6"/>
			<stop  offset="0.79" style="stop-color:#E89A7B"/>
			<stop  offset="1" style="stop-color:#E28C66"/>
		</linearGradient>
		<circle class="st19" cx="24.4" cy="83.6" r="8.7"/>
		
			<linearGradient id="SVGID_13_" gradientUnits="userSpaceOnUse" x1="16.7031" y1="83.5667" x2="16.7031" y2="105.5874" gradientTransform="matrix(1 0 0 -1 0 207)">
			<stop  offset="7.000000e-02" style="stop-color:#F8C3B7"/>
			<stop  offset="0.31" style="stop-color:#F3B8A6"/>
			<stop  offset="0.79" style="stop-color:#E89A7B"/>
			<stop  offset="1" style="stop-color:#E28C66"/>
		</linearGradient>
		<path class="st20" d="M16.7,125.3L16.7,125.3c-1.4,0-2.5-1.1-2.5-2.5l0,0v-19.3c0-1.4,1.1-2.5,2.5-2.5l0,0c1.4,0,2.5,1.1,2.5,2.5
			v19.3C19.2,124.2,18.1,125.3,16.7,125.3z"/>
		<path class="st13" d="M20.5,106.6v-6.2c0-2.1-1.7-3.8-3.8-3.8l0,0c-2.1,0-3.8,1.7-3.8,3.8v6.2C12.9,106.6,15.6,110.1,20.5,106.6z"
			/>
		<path class="st21" d="M17.1,73.3c-7.4,2.5-3.7,13.4,1.7,17.3c2.6-1.4-0.6-4,3-2.2c0.7-3.5-0.9-2.4,0.1-6.8c3.8,2,11.1-0.4,12.3-4
			c-1.3-0.6-2.7-4.3-5.8-5.7C24.4,70.1,19.4,70.8,17.1,73.3z"/>
		<path class="st22" d="M21.5,88.5c0,1-0.7,1.5-1.6,0.9c-1-0.6-1.6-1.7-1.6-2.8c0-1,0.7-1.5,1.6-0.9C20.8,86.3,21.4,87.3,21.5,88.5z
			"/>
		<ellipse class="st23" cx="53.2" cy="157" rx="38.9" ry="22.4"/>
		
			<linearGradient id="SVGID_14_" gradientUnits="userSpaceOnUse" x1="92.3956" y1="24.8513" x2="12.8376" y2="25.9573" gradientTransform="matrix(1 0 0 -1 0 207)">
			<stop  offset="0" style="stop-color:#E4F2FC"/>
			<stop  offset="4.000000e-02" style="stop-color:#E2F0FB"/>
			<stop  offset="0.64" style="stop-color:#C8D6EF"/>
			<stop  offset="1" style="stop-color:#BECCEA"/>
		</linearGradient>
		<path class="st24" d="M80.6,172.9c-15.2,8.8-39.8,8.8-55,0c-7.5-4.3-11.3-10.1-11.4-15.7V184c-0.1,5.8,3.7,11.6,11.4,16
			c15.2,8.8,39.8,8.8,55,0c7.6-4.4,11.4-10.2,11.4-16v-26.9C91.9,162.8,88.2,168.5,80.6,172.9z"/>
		
			<linearGradient id="SVGID_15_" gradientUnits="userSpaceOnUse" x1="15.0274" y1="58.3004" x2="87.6474" y2="56.7586" gradientTransform="matrix(1 0 0 -1 0 207)">
			<stop  offset="0" style="stop-color:#64C5E1"/>
			<stop  offset="1.000000e-02" style="stop-color:#64C4E1"/>
			<stop  offset="0.45" style="stop-color:#4E99CC"/>
			<stop  offset="0.8" style="stop-color:#407FBF"/>
			<stop  offset="1" style="stop-color:#3B75BA"/>
		</linearGradient>
		<path class="st25" d="M29.3,150.8c13.2-7.6,34.5-7.6,47.7,0c4.9,2.8,8,6.3,9.2,10c2.1-6.2-1-12.8-9.2-17.6
			c-13.2-7.6-34.5-7.6-47.7,0C21,148,18,154.6,20.1,160.8C21.3,157.2,24.4,153.7,29.3,150.8z"/>
		
			<linearGradient id="SVGID_16_" gradientUnits="userSpaceOnUse" x1="69.3937" y1="170.8923" x2="38.2006" y2="81.1339" gradientTransform="matrix(1 0 0 -1 0 207)">
			<stop  offset="0" style="stop-color:#64C5E1"/>
			<stop  offset="1.000000e-02" style="stop-color:#64C4E1"/>
			<stop  offset="0.45" style="stop-color:#4E99CC"/>
			<stop  offset="0.8" style="stop-color:#407FBF"/>
			<stop  offset="1" style="stop-color:#3B75BA"/>
		</linearGradient>
		<path class="st26" d="M32.7,116.3c-0.3,0-0.5-0.2-0.5-0.5c0-0.1,0-0.2,0.1-0.2L50,83L32.4,67.4c-0.1-0.1-0.2-0.3-0.2-0.4
			c0-0.2,0.1-0.3,0.2-0.4l39.7-24c0.2-0.2,0.5-0.1,0.7,0.1c0.1,0.2,0.1,0.4,0,0.5L51.3,82.8l21.4,18.8c0.1,0.1,0.2,0.3,0.2,0.5
			c0,0.2-0.2,0.3-0.3,0.4l-39.7,13.9C32.8,116.3,32.7,116.3,32.7,116.3z M50.8,83.7l-17,31.3l37.6-13.2L50.8,83.7z M33.5,67.1
			l17,14.9L71,44.5L33.5,67.1z"/>
		
			<radialGradient id="SVGID_17_" cx="73.425" cy="167.2697" r="7.4743" gradientTransform="matrix(1 0 0 -1 0 207)" gradientUnits="userSpaceOnUse">
			<stop  offset="0" style="stop-color:#64C5E1"/>
			<stop  offset="0.26" style="stop-color:#53C1DB"/>
			<stop  offset="0.78" style="stop-color:#28B6CA"/>
			<stop  offset="1" style="stop-color:#13B1C2"/>
		</radialGradient>
		<path class="st27" d="M78,43c0,3.1-2.5,5.6-5.6,5.6c-3.1,0-5.6-2.5-5.6-5.6c0-3.1,2.5-5.6,5.6-5.6C75.5,37.5,78,40,78,43z"/>
		
			<radialGradient id="SVGID_18_" cx="34.4783" cy="142.7465" r="8.5692" gradientTransform="matrix(1 0 0 -1 0 207)" gradientUnits="userSpaceOnUse">
			<stop  offset="0" style="stop-color:#9A96C9"/>
			<stop  offset="0.32" style="stop-color:#8986BF"/>
			<stop  offset="0.94" style="stop-color:#5E5CA6"/>
			<stop  offset="1" style="stop-color:#5958A3"/>
		</radialGradient>
		<path class="st28" d="M38.3,67.1c0,3.1-2.5,5.6-5.6,5.6c-3.1,0-5.6-2.5-5.6-5.6c0-3.1,2.5-5.6,5.6-5.6
			C35.8,61.5,38.3,64,38.3,67.1z"/>
		
			<radialGradient id="SVGID_19_" cx="52.5998" cy="127.4627" r="7.2285" gradientTransform="matrix(1 0 0 -1 0 207)" gradientUnits="userSpaceOnUse">
			<stop  offset="0" style="stop-color:#64C5E1"/>
			<stop  offset="0.26" style="stop-color:#53C1DB"/>
			<stop  offset="0.78" style="stop-color:#28B6CA"/>
			<stop  offset="1" style="stop-color:#13B1C2"/>
		</radialGradient>
		<path class="st29" d="M56.2,82.9c0,3.1-2.5,5.6-5.6,5.6S45,85.9,45,82.9c0-3.1,2.5-5.6,5.6-5.6S56.2,79.8,56.2,82.9z"/>
		
			<radialGradient id="SVGID_20_" cx="73.9277" cy="107.0844" r="6.8151" gradientTransform="matrix(1 0 0 -1 0 207)" gradientUnits="userSpaceOnUse">
			<stop  offset="0" style="stop-color:#6F8BC7"/>
			<stop  offset="0.34" style="stop-color:#5474B7"/>
			<stop  offset="0.75" style="stop-color:#3A5DA8"/>
			<stop  offset="1" style="stop-color:#3055A2"/>
		</radialGradient>
		<path class="st30" d="M78,102c0,3.1-2.5,5.6-5.6,5.6c-3.1,0-5.6-2.5-5.6-5.6c0-3.1,2.5-5.6,5.6-5.6C75.5,96.4,78,98.9,78,102z"/>
		
			<radialGradient id="SVGID_21_" cx="34.7241" cy="94.4932" r="7.7536" gradientTransform="matrix(1 0 0 -1 0 207)" gradientUnits="userSpaceOnUse">
			<stop  offset="0" style="stop-color:#9A96C9"/>
			<stop  offset="0.32" style="stop-color:#8986BF"/>
			<stop  offset="0.94" style="stop-color:#5E5CA6"/>
			<stop  offset="1" style="stop-color:#5958A3"/>
		</radialGradient>
		<path class="st31" d="M38.3,115.8c0,3.1-2.5,5.6-5.6,5.6c-3.1,0-5.6-2.5-5.6-5.6c0-3.1,2.5-5.6,5.6-5.6
			C35.8,110.2,38.3,112.7,38.3,115.8z"/>
		
			<linearGradient id="SVGID_22_" gradientUnits="userSpaceOnUse" x1="53.1591" y1="218.0814" x2="53.1591" y2="-0.9519" gradientTransform="matrix(1 0 0 -1 0 207)">
			<stop  offset="0" style="stop-color:#FFFFFF;stop-opacity:0"/>
			<stop  offset="1" style="stop-color:#64C5E1"/>
		</linearGradient>
		<path class="st32" d="M19.5,156.2c-0.3,5.2,2.9,10.5,9.9,14.5c13.2,7.6,34.5,7.6,47.7,0c6.9-4,10.2-9.3,9.8-14.5V2.6
			c0.4-5.2-2.9-10.5-9.8-14.5c-13.2-7.6-34.6-7.6-47.7,0c-6.9,4-10.2,9.3-9.9,14.5V156.2z"/>
		
			<linearGradient id="SVGID_23_" gradientUnits="userSpaceOnUse" x1="53.1592" y1="2.6009" x2="53.1592" y2="195.4575" gradientTransform="matrix(1 0 0 -1 0 207)">
			<stop  offset="0" style="stop-color:#FFFFFF"/>
			<stop  offset="0.12" style="stop-color:#DBDBE0;stop-opacity:0.84"/>
			<stop  offset="0.37" style="stop-color:#9898A5;stop-opacity:0.55"/>
			<stop  offset="0.59" style="stop-color:#636276;stop-opacity:0.31"/>
			<stop  offset="0.77" style="stop-color:#3C3C54;stop-opacity:0.14"/>
			<stop  offset="0.91" style="stop-color:#252440;stop-opacity:4.000000e-02"/>
			<stop  offset="1" style="stop-color:#1C1B38;stop-opacity:0"/>
		</linearGradient>
		<path class="st33" d="M29.9,149.1c-0.2,5.9,2.3,11.5,6.8,15.3c9.5,8,23.4,8,32.9,0c4.5-3.8,7-9.4,6.8-15.3L86.9-4
			c0.4-5.2-2.9-10.5-9.8-14.5c-13.2-7.6-34.6-7.6-47.7,0c-6.9,4-10.2,9.3-9.9,14.5L29.9,149.1z"/>
		<path class="st34" d="M24.2,199.4c0.1,1-1.5,2.5-3.9,3.8c-3.1,1.8-4.2,4.1-8.1,1.9c-1.1-0.6-1.6-1.1-1.6-1.6v-2.4
			c-0.1-1.1,2.6-1.8,4.8-3.1c3.1-1.8,6.5-2.8,8.1-1.9c0.3,0.2,0.6,0.5,0.6,0.9L24.2,199.4z"/>
		<path class="st35" d="M20.4,200.8c3.1-1.8,4.8-3.8,3.2-4.7s-5,0.1-8.1,1.9c-3.1,1.8-7.1,2.5-3.2,4.7
			C16.1,204.9,17.2,202.6,20.4,200.8z"/>
		<path class="st34" d="M15.5,193.4c0.1,1-1.5,2.5-3.9,3.8c-3.1,1.8-4.2,4.1-8.1,1.9c-1.1-0.6-1.6-1.1-1.6-1.6v-2.4
			c-0.1-1.1,2.6-1.8,4.8-3.1c3.1-1.8,6.5-2.8,8.1-1.9c0.3,0.2,0.6,0.5,0.6,0.9V193.4z"/>
		<path class="st35" d="M11.7,194.8c3.1-1.8,4.8-3.8,3.2-4.7s-5,0.1-8.1,1.9c-3.1,1.8-7.1,2.5-3.2,4.7S8.5,196.6,11.7,194.8z"/>
		
			<linearGradient id="SVGID_24_" gradientUnits="userSpaceOnUse" x1="57.9297" y1="-37.5154" x2="66.376" y2="-51.6484" gradientTransform="matrix(0.89 -0.46 0.46 0.89 -31.5802 227.5435)">
			<stop  offset="7.000000e-02" style="stop-color:#F8C3B7"/>
			<stop  offset="0.31" style="stop-color:#F3B8A6"/>
			<stop  offset="0.79" style="stop-color:#E89A7B"/>
			<stop  offset="1" style="stop-color:#E28C66"/>
		</linearGradient>
		<path class="st36" d="M2.4,168.5L2.4,168.5c1.4,0.1,2.7-0.9,2.8-2.3l1.7-20.1c0.1-1.4-1-2.7-2.4-2.8l0,0c-1.4-0.1-2.7,0.9-2.8,2.3
			l-1.7,20C-0.1,167.1,0.9,168.4,2.4,168.5C2.3,168.5,2.4,168.5,2.4,168.5z"/>
		<path class="st37" d="M0,148.7l0.6-6.5c0.2-2.2,2.1-3.8,4.3-3.6l0,0c2.2,0.2,3.8,2.1,3.6,4.3L8,149.4C8,149.4,4.9,152.8,0,148.7z"
			/>
		
			<linearGradient id="SVGID_25_" gradientUnits="userSpaceOnUse" x1="491.4603" y1="6.3213" x2="491.4603" y2="29.2358" gradientTransform="matrix(-1 0 0 -1 505.94 207)">
			<stop  offset="7.000000e-02" style="stop-color:#679CD3"/>
			<stop  offset="0.27" style="stop-color:#5D8BC4"/>
			<stop  offset="0.67" style="stop-color:#42609C"/>
			<stop  offset="1" style="stop-color:#283676"/>
		</linearGradient>
		<path class="st38" d="M10.8,200c-0.1-0.2-0.2-0.5-0.2-0.8v-26.9c0-1.7,1.8-3.1,3.9-3.1l0,0c2.1,0,3.9,1.4,3.9,3.1v29.3
			c0,0.4-0.3,0.8-0.7,0.9C16.2,202.9,12.6,203.6,10.8,200z"/>
		
			<linearGradient id="SVGID_26_" gradientUnits="userSpaceOnUse" x1="499.9065" y1="12.4437" x2="499.9065" y2="37.1234" gradientTransform="matrix(-1 0 0 -1 505.94 207)">
			<stop  offset="7.000000e-02" style="stop-color:#3E57A3"/>
			<stop  offset="0.34" style="stop-color:#394D92"/>
			<stop  offset="0.88" style="stop-color:#2A3267"/>
			<stop  offset="1" style="stop-color:#272B5C"/>
		</linearGradient>
		<path class="st39" d="M2.3,193.8c-0.1-0.2-0.2-0.5-0.2-0.8v-26.9c0-1.7,1.8-3.1,3.9-3.1l0,0c2.1,0,3.9,1.4,3.9,3.1v29.3
			c0,0.4-0.3,0.8-0.7,0.9C7.7,196.7,4.2,197.4,2.3,193.8z"/>
		
			<linearGradient id="SVGID_27_" gradientUnits="userSpaceOnUse" x1="-195.3199" y1="49.4452" x2="-220.8822" y2="46.6521" gradientTransform="matrix(-1 0 0 -1 -197.24 207)">
			<stop  offset="7.000000e-02" style="stop-color:#BBE1EC"/>
			<stop  offset="0.23" style="stop-color:#AADCEB"/>
			<stop  offset="0.54" style="stop-color:#7ED1E8"/>
			<stop  offset="0.96" style="stop-color:#38BEE4"/>
			<stop  offset="1" style="stop-color:#32BCE4"/>
		</linearGradient>
		<path class="st40" d="M17.1,177.1c-0.1,0.1-0.2,0.1-0.3,0.1C15,177.4,8.8,176,2.6,169c-0.5-0.6-0.8-1.3-0.8-2v-19.8
			c-0.1-1.2,0.4-2.3,1.4-3l4.6-2.7c1.1-0.5,2.4-0.4,3.4,0.3l6.4,3.7c2.7,1.8,4.5,4.8,4.7,8.1v20c0,0.4-0.1,0.8-0.5,1L17.1,177.1z"/>
		<path class="st41" d="M15.3,146.6c0,0.6-0.4,1.1-1,1.4c-1.5,0.7-3.2,0.7-4.6,0c-0.5-0.2-0.9-0.8-1-1.4v-4.3c0-0.6,0.4-1.1,1-1.4
			c1.5-0.7,3.2-0.7,4.6,0c0.5,0.2,0.9,0.8,1,1.4V146.6z"/>
		
			<linearGradient id="SVGID_28_" gradientUnits="userSpaceOnUse" x1="499.2381" y1="67.8823" x2="482.1891" y2="76.5967" gradientTransform="matrix(-1.0041 0 0 -1.0041 504.9296 207.8542)">
			<stop  offset="7.000000e-02" style="stop-color:#F8C3B7"/>
			<stop  offset="0.31" style="stop-color:#F3B8A6"/>
			<stop  offset="0.79" style="stop-color:#E89A7B"/>
			<stop  offset="1" style="stop-color:#E28C66"/>
		</linearGradient>
		<circle class="st42" cx="12" cy="135.4" r="9"/>
		
			<linearGradient id="SVGID_29_" gradientUnits="userSpaceOnUse" x1="-6.273" y1="568.6955" x2="-6.273" y2="594.1572" gradientTransform="matrix(0.78 0.62 -0.62 0.78 392.8095 -309.9695)">
			<stop  offset="7.000000e-02" style="stop-color:#F8C3B7"/>
			<stop  offset="0.31" style="stop-color:#F3B8A6"/>
			<stop  offset="0.79" style="stop-color:#E89A7B"/>
			<stop  offset="1" style="stop-color:#E28C66"/>
		</linearGradient>
		<path class="st43" d="M34.3,130L34.3,130c-1.1-0.8-2.7-0.6-3.6,0.5c0,0,0,0,0,0l-11.3,16c-0.9,1.1-0.6,2.8,0.5,3.6l0,0
			c1.1,0.8,2.7,0.6,3.6-0.5l11.3-16C35.7,132.4,35.4,130.8,34.3,130z"/>
		<path class="st23" d="M26.6,147.8l-3.9,5.2c-1.3,1.8-3.8,2.1-5.6,0.8c0,0,0,0,0,0l0,0c-1.8-1.3-2.1-3.8-0.8-5.6l3.9-5.2
			C20.2,143.1,24.6,141.8,26.6,147.8z"/>
		<path class="st44" d="M6.9,143.7c2.9,1.7,5,0.4,5.8-0.8c2-3,2.2-1,3.4-2.4c1.5-2.5,1.2-5.9,3.3-7.5c3-2.2,2.2-6.8-5.7-8.8
			c-10.6-2.7-14.8,10.7-8.1,18.4C6,143,6.4,143.4,6.9,143.7z"/>
		<path class="st45" d="M15.2,140.8c0.8,0.8,1.6,0.5,1.9-0.5c0.2-1.2-0.1-2.4-0.9-3.3c-0.8-0.8-1.6-0.5-1.9,0.5
			C14,138.7,14.4,139.9,15.2,140.8z"/>
	</g>
</g>
</svg>
