<?xml version="1.0" encoding="utf-8"?>
<!-- Generator: Adobe Illustrator 22.0.0, SVG Export Plug-In . SVG Version: 6.00 Build 0)  -->
<svg version="1.1" id="Capa_1" xmlns="http://www.w3.org/2000/svg" xmlns:xlink="http://www.w3.org/1999/xlink" x="0px" y="0px"
	 viewBox="0 0 324.3 218" style="enable-background:new 0 0 324.3 218;" xml:space="preserve">
<style type="text/css">
	.st0{fill:#BEDAFF;}
	.st1{fill:#6EF8FF;}
	.st2{fill:url(#SVGID_1_);}
	.st3{fill:url(#SVGID_2_);}
	.st4{fill:#0DB1C2;}
	.st5{fill:#C0C0F6;}
	.st6{fill:url(#SVGID_3_);}
	.st7{fill:#6B5BDF;}
	.st8{fill:#9FBFFF;}
	.st9{fill:url(#SVGID_4_);}
	.st10{fill:url(#SVGID_5_);}
	.st11{fill:#2A54AF;}
	.st12{fill:url(#SVGID_6_);}
	.st13{fill:#BDCEFA;}
	.st14{fill:#2D2D4F;}
	.st15{fill:#46466C;}
	.st16{fill:#010400;}
	.st17{fill:#1C1C38;}
	.st18{fill:#FFFFFF;}
	.st19{fill:url(#SVGID_7_);}
	.st20{fill:#894258;}
	.st21{fill:url(#SVGID_8_);}
	.st22{fill:#4B466E;}
	.st23{fill:#AC5E74;}
	.st24{fill:#1F1F1F;}
	.st25{fill:#6C91EA;}
	.st26{fill:url(#SVGID_9_);}
	.st27{fill:#A29AFB;}
	.st28{fill:url(#SVGID_10_);}
	.st29{fill:#00E9FF;}
	.st30{fill:url(#SVGID_11_);}
</style>
<g>
	<path class="st0" d="M44.4,216.8l-33.4-19.3c-6.3-3.7-6.3-12.8,0-16.5l111.8-64.5c2.9-1.7,6.6-1.7,9.5,0l33.4,19.3
		c6.3,3.7,6.3,12.8,0,16.5L53.9,216.8C50.9,218.5,47.3,218.5,44.4,216.8z"/>
	<g>
		<g>
			<path class="st1" d="M148.2,69.1l-22.8,13.2c-1.7,1-4.6,0.8-6.5-0.3L97,69.3c-1.9-1.1-2.1-2.8-0.5-3.8l22.8-13.2
				c1.7-1,4.6-0.8,6.5,0.3l21.9,12.6C149.6,66.4,149.8,68.1,148.2,69.1z"/>
			<g>
				<linearGradient id="SVGID_1_" gradientUnits="userSpaceOnUse" x1="157.3117" y1="67.7735" x2="117.7533" y2="158.7578">
					<stop  offset="0" style="stop-color:#00E9FF"/>
					<stop  offset="0.3341" style="stop-color:#04DAEE"/>
					<stop  offset="0.9921" style="stop-color:#0DB1C3"/>
					<stop  offset="0.9996" style="stop-color:#0DB1C2"/>
				</linearGradient>
				<path class="st2" d="M149.3,151V67.7c0,0,0,0,0,0c0,0,0,0,0,0c-0.1,0.5-0.5,1-1.1,1.3l-22.8,13.2c-0.8,0.5-1.9,0.7-3,0.6v83.8
					c1.1,0,2.2-0.2,3-0.6l22.8-13.2C149,152.4,149.4,151.7,149.3,151z"/>
				<linearGradient id="SVGID_2_" gradientUnits="userSpaceOnUse" x1="108.8945" y1="187.1235" x2="108.8945" y2="58.9102">
					<stop  offset="7.151770e-02" style="stop-color:#55D1FF"/>
					<stop  offset="0.1638" style="stop-color:#4FC3EE;stop-opacity:0.9006"/>
					<stop  offset="0.3466" style="stop-color:#41A0C2;stop-opacity:0.7038"/>
					<stop  offset="0.6024" style="stop-color:#29677B;stop-opacity:0.4282"/>
					<stop  offset="0.9186" style="stop-color:#0A191A;stop-opacity:8.763379e-02"/>
					<stop  offset="1" style="stop-color:#010400;stop-opacity:0"/>
				</linearGradient>
				<path class="st3" d="M118.9,81.9L97,69.3c-0.9-0.5-1.4-1.2-1.6-1.8v83.2c-0.2,0.8,0.4,1.7,1.6,2.4l21.9,12.6
					c1,0.6,2.3,0.9,3.5,0.9V82.9C121.1,82.8,119.9,82.5,118.9,81.9z"/>
				<path class="st4" d="M118.9,81.9L97,69.3c-0.9-0.5-1.4-1.2-1.6-1.8v83.2c-0.2,0.8,0.4,1.7,1.6,2.4l21.9,12.6
					c1,0.6,2.3,0.9,3.5,0.9V82.9C121.1,82.8,119.9,82.5,118.9,81.9z"/>
			</g>
		</g>
		<g>
			<path class="st5" d="M112.2,118.7l-22.8,13.2c-1.7,1-4.6,0.8-6.5-0.3l-21.9-12.6c-1.9-1.1-2.1-2.8-0.5-3.8L83.4,102
				c1.7-1,4.6-0.8,6.5,0.3l21.9,12.6C113.7,116,113.9,117.7,112.2,118.7z"/>
			<g>
				<linearGradient id="SVGID_3_" gradientUnits="userSpaceOnUse" x1="120.3969" y1="107.0182" x2="77.7957" y2="201.1668">
					<stop  offset="0" style="stop-color:#A29AFB"/>
					<stop  offset="0.3251" style="stop-color:#9389F4"/>
					<stop  offset="0.9653" style="stop-color:#6D5EE0"/>
					<stop  offset="0.9996" style="stop-color:#6B5BDF"/>
				</linearGradient>
				<path class="st6" d="M113.3,171.6v-54.3c0,0,0,0,0,0s0,0,0,0c-0.1,0.5-0.5,1-1.1,1.3l-22.8,13.2c-0.8,0.5-1.9,0.7-3,0.6v54.9
					c1.1,0,2.2-0.2,3-0.6l22.8-13.2C113.1,173.1,113.5,172.4,113.3,171.6z"/>
				<path class="st7" d="M82.9,131.5l-21.9-12.6c-0.9-0.5-1.4-1.2-1.6-1.8v54.3c-0.2,0.8,0.4,1.7,1.6,2.4l21.9,12.6
					c1,0.6,2.3,0.9,3.5,0.9v-54.9C85.2,132.4,83.9,132.1,82.9,131.5z"/>
				<path class="st7" d="M82.9,131.5l-21.9-12.6c-0.9-0.5-1.4-1.2-1.6-1.8v54.3c-0.2,0.8,0.4,1.7,1.6,2.4l21.9,12.6
					c1,0.6,2.3,0.9,3.5,0.9v-54.9C85.2,132.4,83.9,132.1,82.9,131.5z"/>
			</g>
		</g>
		<g>
			<path class="st8" d="M77.1,159.8L54.3,173c-1.7,1-4.6,0.8-6.5-0.3l-21.9-12.6c-1.9-1.1-2.1-2.8-0.5-3.8l22.8-13.2
				c1.7-1,4.6-0.8,6.5,0.3l21.9,12.6C78.5,157.2,78.7,158.9,77.1,159.8z"/>
			<g>
				<linearGradient id="SVGID_4_" gradientUnits="userSpaceOnUse" x1="76.1979" y1="163.0681" x2="35.7684" y2="233.8197">
					<stop  offset="0" style="stop-color:#6C91EA"/>
					<stop  offset="0.3656" style="stop-color:#4E75CF"/>
					<stop  offset="0.7632" style="stop-color:#345DB8"/>
					<stop  offset="0.9993" style="stop-color:#2A54AF"/>
				</linearGradient>
				<path class="st9" d="M78.2,191.9v-33.5c0,0,0,0,0,0v0c-0.1,0.5-0.5,1-1.1,1.3L54.3,173c-0.8,0.5-1.9,0.7-3,0.6v34
					c1.1,0,2.2-0.2,3-0.6l22.8-13.2C78,193.3,78.3,192.6,78.2,191.9z"/>
				<linearGradient id="SVGID_5_" gradientUnits="userSpaceOnUse" x1="37.8173" y1="217.8359" x2="37.8173" y2="153.9652">
					<stop  offset="0" style="stop-color:#FFE0AD"/>
					<stop  offset="0.4333" style="stop-color:#FFC291"/>
					<stop  offset="0.6309" style="stop-color:#FFB188"/>
					<stop  offset="0.9996" style="stop-color:#FF8871"/>
				</linearGradient>
				<path class="st10" d="M47.8,172.7l-21.9-12.6c-0.9-0.5-1.4-1.2-1.6-1.8v33.5c-0.2,0.8,0.4,1.7,1.6,2.4l21.9,12.6
					c1,0.6,2.3,0.9,3.5,0.9v-34C50.1,173.6,48.8,173.3,47.8,172.7z"/>
				<path class="st11" d="M47.8,172.7l-21.9-12.6c-0.9-0.5-1.4-1.2-1.6-1.8v33.5c-0.2,0.8,0.4,1.7,1.6,2.4l21.9,12.6
					c1,0.6,2.3,0.9,3.5,0.9v-34C50.1,173.6,48.8,173.3,47.8,172.7z"/>
			</g>
		</g>
	</g>
</g>
<g>
	<g>
		<g>
			<linearGradient id="SVGID_6_" gradientUnits="userSpaceOnUse" x1="105.6838" y1="70.2484" x2="111.9144" y2="52.2755">
				<stop  offset="7.079140e-02" style="stop-color:#AC5E74"/>
				<stop  offset="0.5672" style="stop-color:#9B5167"/>
				<stop  offset="0.9993" style="stop-color:#894258"/>
			</linearGradient>
			<path class="st12" d="M106,70.8L106,70.8c1.1,0.3,2.3-0.3,2.7-1.4l4.7-16.1c0.3-1.1-0.3-2.3-1.4-2.7l0,0
				c-1.1-0.3-2.3,0.3-2.7,1.4l-4.7,16.1C104.2,69.3,104.9,70.5,106,70.8z"/>
			<path class="st13" d="M107.4,54.3l1.5-5.2c0.5-1.7,2.4-2.8,4.1-2.2h0c1.7,0.5,2.8,2.4,2.2,4.1l-1.5,5.2
				C113.8,56.2,110.7,58.5,107.4,54.3z"/>
		</g>
		<g>
			<path class="st14" d="M116.5,70.3c-0.1,0.2-0.3,0.3-0.5,0.5l-11.3,6.5c-1.2,0.7-3,0-3.8-1.5l0,0c-0.9-1.5-0.6-3.4,0.6-4.1l13-7.4
				c0.3-0.2,0.7-0.1,1,0.1C116.3,65.1,118.3,67.4,116.5,70.3z"/>
		</g>
		<g>
			<path class="st15" d="M123.9,74.1c-0.1,0.2-0.3,0.3-0.5,0.5L112.2,81c-1.2,0.7-3,0-3.8-1.5l0,0c-0.9-1.5-0.6-3.4,0.6-4.1l13-7.4
				c0.3-0.2,0.7-0.1,1,0.1C123.8,69,125.8,71.2,123.9,74.1z"/>
		</g>
		<g>
			<g>
				<path class="st16" d="M106.3,93.5c0.1,0.9-2.1,1.5-4,2.6c-2.6,1.5-5.4,2.3-6.8,1.6c-0.3-0.2-0.5-0.4-0.5-0.7l0-1.5
					c0-0.9,1.2-2.2,3.2-4.1c2.2-2.1,3.5-3.4,6.8-1.6c0.9,0.5,1.3,0.9,1.3,1.3L106.3,93.5z"/>
				<path class="st17" d="M98.2,91.3c-2.6,2.5-4,4-2.7,4.8c1.3,0.8,4-0.4,6.8-2.5c2.4-1.8,5.9-2,2.7-3.9
					C101.7,87.9,100.4,89.2,98.2,91.3z"/>
			</g>
			<path class="st14" d="M100.3,89.4c-0.1-0.2-0.1-0.4-0.1-0.6V73.7c0-1.4,1.5-2.6,3.2-2.6l0,0c1.8,0,3.2,1.2,3.2,2.6v17
				c0,0.4-0.2,0.7-0.6,0.8C104.8,91.9,101.8,92.5,100.3,89.4z"/>
		</g>
		<path class="st18" d="M122.8,75.4c-0.1,0.1-0.2,0.1-0.3,0.1c-1.4,0.1-6.6-1-11.8-6.8c-0.4-0.5-0.7-1.1-0.7-1.7V50.5
			c0-1.2,0.4-2.1,1.2-2.5l3.9-2.3c0.7-0.4,1.7-0.4,2.8,0.3l5.3,3.1c2.1,1.2,3.9,4.3,3.9,6.7v16.6c0,0.4-0.1,0.7-0.4,0.8L122.8,75.4z
			"/>
		<g>
			<linearGradient id="SVGID_7_" gradientUnits="userSpaceOnUse" x1="125.235" y1="76.3597" x2="125.235" y2="56.1603">
				<stop  offset="7.079140e-02" style="stop-color:#AC5E74"/>
				<stop  offset="0.5672" style="stop-color:#9B5167"/>
				<stop  offset="0.9993" style="stop-color:#894258"/>
			</linearGradient>
			<path class="st19" d="M125.2,77L125.2,77c1.2,0,2.1-1,2.1-2.1V58.1c0-1.2-1-2.1-2.1-2.1l0,0c-1.2,0-2.1,1-2.1,2.1v16.7
				C123.1,76,124.1,77,125.2,77z"/>
			<path class="st13" d="M121.9,60.7v-5.4c0-1.8,1.5-3.3,3.3-3.3h0c1.8,0,3.3,1.5,3.3,3.3v5.4C128.5,60.7,126.2,63.8,121.9,60.7z"/>
		</g>
		<g>
			<g>
				<path class="st16" d="M114,96.9c0.1,0.9-2.1,1.5-4,2.6c-2.6,1.5-5.4,2.3-6.8,1.6c-0.3-0.2-0.5-0.4-0.5-0.7l0-1.5
					c0-0.9,1.2-2.2,3.2-4.1c2.2-2.1,3.5-3.4,6.8-1.6c0.9,0.5,1.3,0.9,1.3,1.3L114,96.9z"/>
				<path class="st17" d="M105.9,94.7c-2.6,2.5-4,4-2.7,4.8c1.3,0.8,4-0.4,6.8-2.5c2.4-1.8,5.9-2,2.7-3.9
					C109.5,91.3,108.1,92.6,105.9,94.7z"/>
			</g>
			<path class="st15" d="M108,92.9c-0.1-0.2-0.1-0.4-0.1-0.6V77.1c0-1.4,1.5-2.6,3.2-2.6l0,0c1.8,0,3.2,1.2,3.2,2.6v17
				c0,0.4-0.2,0.7-0.6,0.8C112.5,95.3,109.6,95.9,108,92.9z"/>
		</g>
		<path class="st20" d="M122.2,50.1c0,0.4-0.3,0.8-0.8,1.1c-1.1,0.6-2.8,0.6-3.9,0c-0.5-0.3-0.8-0.7-0.8-1.1v-3.6
			c0-0.4,0.3-0.8,0.8-1.1c1.1-0.6,2.8-0.6,3.9,0c0.5,0.3,0.8,0.7,0.8,1.1V50.1z"/>
		<linearGradient id="SVGID_8_" gradientUnits="userSpaceOnUse" x1="113.7725" y1="42.6615" x2="127.1923" y2="38.1084">
			<stop  offset="7.079140e-02" style="stop-color:#AC5E74"/>
			<stop  offset="0.5672" style="stop-color:#9B5167"/>
			<stop  offset="0.9993" style="stop-color:#894258"/>
		</linearGradient>
		<path class="st21" d="M112,40.7c0,4.2,3.4,7.5,7.5,7.5c4.2,0,7.5-3.4,7.5-7.5c0-4.2-3.4-7.5-7.5-7.5C115.3,33.2,112,36.6,112,40.7
			z"/>
		<path class="st22" d="M123.5,46.6c-0.5-0.5-1.2-1.4-1.6-2.5c0-0.1,0-0.1,0-0.2v-3.6c0-0.7-0.2-1.4-0.6-2c-0.3-0.5-0.8-1-1.5-0.9
			c0,0-6,2.6-8.3-2.3c-0.2-0.4,0-0.8,0.4-0.9c0.4-0.1,1-0.5,1.6-1.5c0.2-0.2,0.4-0.4,0.7-0.3c0.6,0.1,1.7,0.2,2.7-1
			c0.1-0.1,0.3-0.2,0.5-0.2c1.2,0,5.1,0.2,7.3,1.8c0,0,0,0,0,0c0.5,0.4,7.9,6.8-0.5,13.7C124.2,46.9,123.8,46.9,123.5,46.6z"/>
		<path class="st23" d="M122,45c0,0.9,0.6,1.3,1.4,0.8c0.8-0.4,1.4-1.5,1.4-2.4c0-0.9-0.6-1.3-1.4-0.8C122.6,43,122,44.1,122,45z"/>
	</g>
	<path class="st24" d="M120,43c-0.2-1.2-1.1-2.6-2.1-3.2c-1.1-0.6-2-0.2-2.1,0.9l-0.7-0.4c-0.1-1.3-1-2.8-2.1-3.4
		c-1.2-0.7-2.1-0.1-2.1,1.2c0,1.4,1,3,2.1,3.7c1.1,0.6,2,0.2,2.1-1l0.7,0.4c0.1,1.3,1,2.8,2.1,3.4c1.2,0.7,2.1,0.1,2.1-1.2l3.9-2.3
		V42l0.5-0.3v-1.3L120,43z M114.6,40.3c0,1-0.7,1.4-1.6,0.9c-0.9-0.5-1.6-1.8-1.6-2.8c0-1,0.7-1.4,1.6-0.9
		C113.9,38,114.6,39.3,114.6,40.3L114.6,40.3z M117.9,44.1c-0.9-0.5-1.6-1.8-1.6-2.8c0-1,0.7-1.4,1.6-0.9c0.9,0.5,1.6,1.8,1.6,2.8
		C119.5,44.2,118.8,44.6,117.9,44.1z"/>
</g>
<g>
	<g>
		<path class="st25" d="M200.8,83.2c3.3,1.9,3.3,5,0,6.9c-3.3,1.9-8.7,1.9-12,0c-3.3-1.9-3.3-5,0-6.9
			C192.2,81.3,197.5,81.3,200.8,83.2z"/>
		<g>
			<linearGradient id="SVGID_9_" gradientUnits="userSpaceOnUse" x1="207.8737" y1="91.1466" x2="182.544" y2="92.0621">
				<stop  offset="0" style="stop-color:#6C91EA"/>
				<stop  offset="0.3656" style="stop-color:#4E75CF"/>
				<stop  offset="0.7632" style="stop-color:#345DB8"/>
				<stop  offset="0.9993" style="stop-color:#2A54AF"/>
			</linearGradient>
			<path class="st26" d="M200.8,90.1c-3.3,1.9-8.7,1.9-12,0c-1.6-0.9-2.5-2.2-2.5-3.4v5.2c0,1.3,0.8,2.5,2.5,3.5
				c3.3,1.9,8.7,1.9,12,0c1.7-1,2.5-2.2,2.5-3.5v-5.2C203.3,87.9,202.5,89.2,200.8,90.1z"/>
		</g>
	</g>
	<g>
		<path class="st27" d="M220.5,71.9c3.3,1.9,3.3,5,0,6.9c-3.3,1.9-8.7,1.9-12,0c-3.3-1.9-3.3-5,0-6.9C211.8,70,217.2,70,220.5,71.9z
			"/>
		<g>
			<linearGradient id="SVGID_10_" gradientUnits="userSpaceOnUse" x1="227.3007" y1="77.4222" x2="205.344" y2="81.4424">
				<stop  offset="0" style="stop-color:#A29AFB"/>
				<stop  offset="0.3251" style="stop-color:#9389F4"/>
				<stop  offset="0.9653" style="stop-color:#6D5EE0"/>
				<stop  offset="0.9996" style="stop-color:#6B5BDF"/>
			</linearGradient>
			<path class="st28" d="M220.5,78.8c-3.3,1.9-8.7,1.9-12,0c-1.6-0.9-2.5-2.2-2.5-3.4v5.2c0,1.3,0.8,2.5,2.5,3.5
				c3.3,1.9,8.7,1.9,12,0c1.7-1,2.5-2.2,2.5-3.5v-5.2C223,76.6,222.1,77.8,220.5,78.8z"/>
		</g>
	</g>
	<g>
		<path class="st29" d="M240.1,60.5c3.3,1.9,3.3,5,0,6.9c-3.3,1.9-8.7,1.9-12,0c-3.3-1.9-3.3-5,0-6.9
			C231.5,58.6,236.8,58.6,240.1,60.5z"/>
		<g>
			<linearGradient id="SVGID_11_" gradientUnits="userSpaceOnUse" x1="252.7296" y1="63.4746" x2="227.0619" y2="69.9689">
				<stop  offset="0" style="stop-color:#00E9FF"/>
				<stop  offset="0.3341" style="stop-color:#04DAEE"/>
				<stop  offset="0.9921" style="stop-color:#0DB1C3"/>
				<stop  offset="0.9996" style="stop-color:#0DB1C2"/>
			</linearGradient>
			<path class="st30" d="M240.1,67.4c-3.3,1.9-8.7,1.9-12,0c-1.6-0.9-2.5-2.2-2.5-3.4v5.2c0,1.3,0.8,2.5,2.5,3.5
				c3.3,1.9,8.7,1.9,12,0c1.7-1,2.5-2.2,2.5-3.5v-5.2C242.6,65.2,241.8,66.4,240.1,67.4z"/>
		</g>
	</g>
	<path class="st25" d="M283,143.7l-0.4,0.2c-1.4,0.8-3.9,0.7-5.5-0.2l-74.4-43c-1.6-0.9-1.8-2.3-0.4-3.2l0.4-0.2
		c1.4-0.8,3.9-0.7,5.5,0.2l74.4,43C284.2,141.5,284.4,142.9,283,143.7z"/>
	<path class="st27" d="M304.1,131.5l-0.4,0.2c-1.4,0.8-3.9,0.7-5.5-0.2l-74.4-43c-1.6-0.9-1.8-2.3-0.4-3.2l0.4-0.2
		c1.4-0.8,3.9-0.7,5.5,0.2l74.4,43C305.3,129.3,305.5,130.7,304.1,131.5z"/>
	<path class="st29" d="M322.4,121l-0.4,0.2c-1.4,0.8-3.9,0.7-5.5-0.2l-74.4-43c-1.6-0.9-1.8-2.3-0.4-3.2l0.4-0.2
		c1.4-0.8,3.9-0.7,5.5,0.2l74.4,43C323.6,118.8,323.7,120.2,322.4,121z"/>
</g>
</svg>
