<svg xmlns="http://www.w3.org/2000/svg" xmlns:xlink="http://www.w3.org/1999/xlink" viewBox="0 0 180.86 205.86"><defs><style>.cls-1{isolation:isolate;}.cls-2{fill:#c0d9f2;}.cls-3{fill:#8cd0e3;}.cls-4{fill:url(#Degradado_sin_nombre_113);}.cls-13,.cls-5,.cls-9{mix-blend-mode:color-dodge;}.cls-5{fill:url(#Degradado_sin_nombre_22);}.cls-6{fill:#13b1c2;}.cls-7{fill:#c0bee0;}.cls-8{fill:url(#Degradado_sin_nombre_114);}.cls-10,.cls-9{fill:#5958a3;}.cls-11{fill:#a1bbe3;}.cls-12{fill:url(#Degradado_sin_nombre_115);}.cls-13{fill:url(#Degradado_sin_nombre_20);}.cls-14{fill:#3055a2;}.cls-15{fill:url(#Degradado_sin_nombre_3);}.cls-16{fill:#beccea;}.cls-17{fill:#2e2d4f;}.cls-18{fill:#46466c;}.cls-19{fill:#030403;}.cls-20{fill:#1c1c38;}.cls-21{fill:#fff;}.cls-22{fill:url(#Degradado_sin_nombre_3-2);}.cls-23{fill:#8a4359;}.cls-24{fill:url(#Degradado_sin_nombre_3-3);}.cls-25{fill:#4c466e;}.cls-26{fill:#ac5e74;}.cls-27{fill:#1f1f1f;}</style><linearGradient id="Degradado_sin_nombre_113" x1="167.29" y1="40.6" x2="123.74" y2="140.77" gradientUnits="userSpaceOnUse"><stop offset="0" stop-color="#64c5e1"/><stop offset="0.26" stop-color="#53c1db"/><stop offset="0.78" stop-color="#28b6ca"/><stop offset="1" stop-color="#13b1c2"/></linearGradient><linearGradient id="Degradado_sin_nombre_22" x1="113.98" y1="172" x2="113.98" y2="30.85" gradientUnits="userSpaceOnUse"><stop offset="0.07" stop-color="#66c8f3"/><stop offset="0.17" stop-color="#5fbae2" stop-opacity="0.93"/><stop offset="0.36" stop-color="#4d97b7" stop-opacity="0.75"/><stop offset="0.62" stop-color="#305d71" stop-opacity="0.46"/><stop offset="0.95" stop-color="#090f11" stop-opacity="0.06"/><stop offset="1" stop-color="#030403" stop-opacity="0"/></linearGradient><linearGradient id="Degradado_sin_nombre_114" x1="126.65" y1="83.81" x2="79.75" y2="187.46" gradientUnits="userSpaceOnUse"><stop offset="0" stop-color="#9a96c9"/><stop offset="0.32" stop-color="#8986bf"/><stop offset="0.94" stop-color="#5e5ca6"/><stop offset="1" stop-color="#5958a3"/></linearGradient><linearGradient id="Degradado_sin_nombre_115" x1="77.99" y1="145.51" x2="33.48" y2="223.4" gradientUnits="userSpaceOnUse"><stop offset="0" stop-color="#6f8bc7"/><stop offset="0.34" stop-color="#5474b7"/><stop offset="0.75" stop-color="#3a5da8"/><stop offset="1" stop-color="#3055a2"/></linearGradient><linearGradient id="Degradado_sin_nombre_20" x1="35.73" y1="205.81" x2="35.73" y2="135.49" gradientUnits="userSpaceOnUse"><stop offset="0" stop-color="#fee0ad"/><stop offset="0.43" stop-color="#f9c092"/><stop offset="0.63" stop-color="#f6af89"/><stop offset="1" stop-color="#f08572"/></linearGradient><linearGradient id="Degradado_sin_nombre_3" x1="110.45" y1="43.33" x2="117.31" y2="23.54" gradientUnits="userSpaceOnUse"><stop offset="0.07" stop-color="#ac5e74"/><stop offset="0.58" stop-color="#9b5167"/><stop offset="1" stop-color="#8a4359"/></linearGradient><linearGradient id="Degradado_sin_nombre_3-2" x1="131.97" y1="50.06" x2="131.97" y2="27.82" xlink:href="#Degradado_sin_nombre_3"/><linearGradient id="Degradado_sin_nombre_3-3" x1="119.35" y1="12.96" x2="134.13" y2="7.95" xlink:href="#Degradado_sin_nombre_3"/></defs><title>22</title><g class="cls-1"><g id="Capa_1" data-name="Capa 1"><path class="cls-2" d="M42.93,204.71,6.11,183.45a10.48,10.48,0,0,1,0-18.15L129.2,94.24a10.44,10.44,0,0,1,10.48,0l36.81,21.25a10.48,10.48,0,0,1,0,18.15L53.41,204.71A10.49,10.49,0,0,1,42.93,204.71Z" transform="translate(-0.87 -0.25)"/><path class="cls-3" d="M157.22,42,132.13,56.51a8,8,0,0,1-7.16-.3L100.91,42.32c-2.11-1.22-2.34-3.08-.52-4.14L125.48,23.7a8,8,0,0,1,7.17.3l24,13.89C158.81,39.1,159.05,41,157.22,42Z" transform="translate(-0.87 -0.25)"/><path class="cls-4" d="M158.42,132.17V40.56h0a2.3,2.3,0,0,1-1.2,1.46L132.13,56.51a6.58,6.58,0,0,1-3.33.7v92.26a6.48,6.48,0,0,0,3.33-.7l25.09-14.49A2,2,0,0,0,158.42,132.17Z" transform="translate(-0.87 -0.25)"/><path class="cls-5" d="M125,56.21,100.91,42.32a3.17,3.17,0,0,1-1.71-2v91.62c-.19.91.39,1.91,1.71,2.67L125,148.47a8.23,8.23,0,0,0,3.83,1V57.21A8.23,8.23,0,0,1,125,56.21Z" transform="translate(-0.87 -0.25)"/><path class="cls-6" d="M125,56.21,100.91,42.32a3.17,3.17,0,0,1-1.71-2v91.62c-.19.91.39,1.91,1.71,2.67L125,148.47a8.23,8.23,0,0,0,3.83,1V57.21A8.23,8.23,0,0,1,125,56.21Z" transform="translate(-0.87 -0.25)"/><path class="cls-7" d="M117.66,96.62,92.57,111.1a8,8,0,0,1-7.17-.3L61.35,96.91c-2.11-1.22-2.35-3.08-.52-4.13L85.92,78.29a8,8,0,0,1,7.16.3l24.06,13.89C119.25,93.7,119.48,95.56,117.66,96.62Z" transform="translate(-0.87 -0.25)"/><path class="cls-8" d="M118.85,155V95.15h0a2.27,2.27,0,0,1-1.19,1.47L92.57,111.1a6.48,6.48,0,0,1-3.33.7v60.45a6.48,6.48,0,0,0,3.33-.71l25.09-14.48A2,2,0,0,0,118.85,155Z" transform="translate(-0.87 -0.25)"/><path class="cls-9" d="M85.4,110.8,61.35,96.91a3.23,3.23,0,0,1-1.72-2v59.79c-.18.91.4,1.92,1.72,2.68L85.4,171.25a8.43,8.43,0,0,0,3.84,1V111.8A8.19,8.19,0,0,1,85.4,110.8Z" transform="translate(-0.87 -0.25)"/><path class="cls-10" d="M85.4,110.8,61.35,96.91a3.23,3.23,0,0,1-1.72-2v59.79c-.18.91.4,1.92,1.72,2.68L85.4,171.25a8.43,8.43,0,0,0,3.84,1V111.8A8.19,8.19,0,0,1,85.4,110.8Z" transform="translate(-0.87 -0.25)"/><path class="cls-11" d="M79,141.93,53.88,156.41a8,8,0,0,1-7.16-.3L22.66,142.23c-2.11-1.22-2.34-3.09-.51-4.14L47.23,123.6a8,8,0,0,1,7.17.3l24.05,13.89C80.56,139,80.8,140.87,79,141.93Z" transform="translate(-0.87 -0.25)"/><path class="cls-12" d="M80.17,177.29V140.46h0a2.32,2.32,0,0,1-1.2,1.47L53.88,156.41a6.48,6.48,0,0,1-3.33.7v37.48a6.48,6.48,0,0,0,3.33-.71L79,179.4A2,2,0,0,0,80.17,177.29Z" transform="translate(-0.87 -0.25)"/><path class="cls-13" d="M46.72,156.11,22.66,142.22a3.16,3.16,0,0,1-1.71-2V177c-.19.91.4,1.92,1.71,2.68l24.06,13.89a8.35,8.35,0,0,0,3.83,1V157.11A8.11,8.11,0,0,1,46.72,156.11Z" transform="translate(-0.87 -0.25)"/><path class="cls-14" d="M46.72,156.11,22.66,142.22a3.16,3.16,0,0,1-1.71-2V177c-.19.91.4,1.92,1.71,2.68l24.06,13.89a8.35,8.35,0,0,0,3.83,1V157.11A8.11,8.11,0,0,1,46.72,156.11Z" transform="translate(-0.87 -0.25)"/><path class="cls-15" d="M110.79,44h0a2.36,2.36,0,0,0,2.93-1.59l5.22-17.68a2.37,2.37,0,0,0-1.59-2.93h0a2.36,2.36,0,0,0-2.93,1.6L109.2,41.05A2.37,2.37,0,0,0,110.79,44Z" transform="translate(-0.87 -0.25)"/><path class="cls-16" d="M112.36,25.8,114,20.1a3.66,3.66,0,0,1,4.53-2.47h0A3.66,3.66,0,0,1,121,22.16l-1.68,5.7S115.94,30.37,112.36,25.8Z" transform="translate(-0.87 -0.25)"/><path class="cls-17" d="M122.31,43.36a1.5,1.5,0,0,1-.54.49L109.36,51c-1.35.77-3.26,0-4.24-1.69h0c-1-1.71-.67-3.73.68-4.51l14.28-8.17a.9.9,0,0,1,1.07.12C122.19,37.69,124.32,40.21,122.31,43.36Z" transform="translate(-0.87 -0.25)"/><path class="cls-18" d="M130.53,47.57a1.5,1.5,0,0,1-.54.49l-12.41,7.11c-1.35.77-3.26,0-4.24-1.69h0c-1-1.71-.67-3.73.68-4.51l14.29-8.17a.89.89,0,0,1,1.06.12C130.41,41.9,132.54,44.42,130.53,47.57Z" transform="translate(-0.87 -0.25)"/><path class="cls-19" d="M111.11,68.93c.11,1-2.36,1.67-4.43,2.87-2.87,1.66-6,2.56-7.44,1.71a1,1,0,0,1-.57-.81V71c0-1,1.37-2.41,3.53-4.51,2.38-2.32,3.89-3.77,7.45-1.72,1,.59,1.42,1,1.42,1.4Z" transform="translate(-0.87 -0.25)"/><path class="cls-20" d="M102.2,66.5c-2.87,2.79-4.44,4.45-3,5.3s4.42-.43,7.44-2.72c2.65-2,6.52-2.24,3-4.3S104.58,64.18,102.2,66.5Z" transform="translate(-0.87 -0.25)"/><path class="cls-17" d="M104.5,64.47a1.5,1.5,0,0,1-.17-.72V47.14c0-1.55,1.61-2.83,3.57-2.83h0c2,0,3.58,1.28,3.58,2.83V65.9a.91.91,0,0,1-.64.87C109.47,67.18,106.22,67.77,104.5,64.47Z" transform="translate(-0.87 -0.25)"/><path class="cls-21" d="M129.3,49a.76.76,0,0,1-.31.1c-1.58.12-7.25-1.12-12.93-7.52a3,3,0,0,1-.77-1.84V21.59a3,3,0,0,1,1.27-2.77l4.27-2.49a3,3,0,0,1,3,.28L129.7,20A9.5,9.5,0,0,1,134,27.38V45.65a.92.92,0,0,1-.41.87Z" transform="translate(-0.87 -0.25)"/><path class="cls-22" d="M132,50.71h0a2.36,2.36,0,0,0,2.36-2.36V29.92A2.36,2.36,0,0,0,132,27.57h0a2.36,2.36,0,0,0-2.36,2.35V48.35A2.36,2.36,0,0,0,132,50.71Z" transform="translate(-0.87 -0.25)"/><path class="cls-16" d="M128.32,32.83V26.88A3.67,3.67,0,0,1,132,23.23h0a3.66,3.66,0,0,1,3.65,3.65v5.95S133.06,36.2,128.32,32.83Z" transform="translate(-0.87 -0.25)"/><path class="cls-19" d="M119.62,72.7c.11,1-2.36,1.66-4.43,2.86-2.87,1.66-6,2.56-7.44,1.71a1,1,0,0,1-.57-.81V74.77c-.06-1,1.36-2.41,3.52-4.51,2.38-2.32,3.89-3.76,7.45-1.71,1,.58,1.42,1,1.43,1.4Z" transform="translate(-0.87 -0.25)"/><path class="cls-20" d="M110.71,70.26c-2.87,2.8-4.44,4.45-3,5.3s4.42-.43,7.44-2.71c2.65-2,6.52-2.25,3-4.3S113.09,67.94,110.71,70.26Z" transform="translate(-0.87 -0.25)"/><path class="cls-18" d="M113,68.23a1.5,1.5,0,0,1-.17-.72V50.91c0-1.56,1.61-2.84,3.58-2.84h0c2,0,3.57,1.28,3.57,2.84V69.67a.91.91,0,0,1-.64.86C118,70.94,114.73,71.54,113,68.23Z" transform="translate(-0.87 -0.25)"/><path class="cls-23" d="M128.65,21.1a1.48,1.48,0,0,1-.88,1.25,4.7,4.7,0,0,1-4.26,0,1.48,1.48,0,0,1-.88-1.25v-4a1.47,1.47,0,0,1,.88-1.25,4.7,4.7,0,0,1,4.26,0,1.47,1.47,0,0,1,.88,1.25Z" transform="translate(-0.87 -0.25)"/><path class="cls-24" d="M117.35,10.82a8.29,8.29,0,1,0,8.29-8.29A8.3,8.3,0,0,0,117.35,10.82Z" transform="translate(-0.87 -0.25)"/><path class="cls-25" d="M130.09,17.32a6.54,6.54,0,0,1-1.71-2.76.65.65,0,0,1,0-.2v-4a4.23,4.23,0,0,0-.61-2.25,1.83,1.83,0,0,0-1.62-1S119.48,10,117,4.6a.73.73,0,0,1,.47-1c.48-.11,1.11-.52,1.8-1.66a.74.74,0,0,1,.79-.34,2.9,2.9,0,0,0,3-1.1.75.75,0,0,1,.55-.23c1.27,0,5.65.24,8,2a.1.1,0,0,1,0,0c.51.42,8.75,7.44-.58,15.11A.74.74,0,0,1,130.09,17.32Z" transform="translate(-0.87 -0.25)"/><path class="cls-26" d="M128.41,15.48c0,1,.69,1.39,1.55.9a3.43,3.43,0,0,0,1.55-2.69c0-1-.69-1.39-1.55-.89A3.4,3.4,0,0,0,128.41,15.48Z" transform="translate(-0.87 -0.25)"/><path class="cls-27" d="M126.22,13.31a5.25,5.25,0,0,0-2.31-3.52c-1.2-.7-2.19-.22-2.33,1l-.76-.44a5.22,5.22,0,0,0-2.33-3.76c-1.3-.75-2.35-.14-2.35,1.36a5.19,5.19,0,0,0,2.35,4.07c1.21.69,2.21.21,2.33-1.07l.76.43a5.26,5.26,0,0,0,2.33,3.79c1.29.75,2.34.15,2.35-1.33l4.31-2.49v.81l.52-.29V10.49Zm-6-2.94c0,1.13-.79,1.59-1.77,1a3.9,3.9,0,0,1-1.77-3.07c0-1.13.79-1.59,1.77-1a3.9,3.9,0,0,1,1.77,3.07Zm3.65,4.18a4,4,0,0,1-1.77-3.07c0-1.13.8-1.59,1.77-1a3.93,3.93,0,0,1,1.78,3.07C125.69,14.65,124.89,15.11,123.91,14.55Z" transform="translate(-0.87 -0.25)"/></g></g></svg>