<?xml version="1.0" encoding="utf-8"?>
<!-- Generator: Adobe Illustrator 22.0.0, SVG Export Plug-In . SVG Version: 6.00 Build 0)  -->
<svg version="1.1" id="Capa_1" xmlns="http://www.w3.org/2000/svg" xmlns:xlink="http://www.w3.org/1999/xlink" x="0px" y="0px"
	 viewBox="0 0 296.2 218" style="enable-background:new 0 0 296.2 218;" xml:space="preserve">
<style type="text/css">
	.st0{fill:#BEDAFF;}
	.st1{fill:#6EF8FF;}
	.st2{fill:url(#SVGID_1_);}
	.st3{fill:#C0C0F6;}
	.st4{fill:url(#SVGID_2_);}
	.st5{fill:#9FBFFF;}
	.st6{fill:url(#SVGID_3_);}
	.st7{fill:url(#SVGID_4_);}
	.st8{fill:#3A55CA;}
	.st9{fill:url(#SVGID_5_);}
	.st10{fill:#0382FF;}
	.st11{fill:url(#SVGID_6_);}
	.st12{fill:url(#SVGID_7_);}
	.st13{fill:#6C91EA;}
	.st14{fill:#FFFFFF;}
	.st15{fill:url(#SVGID_8_);}
	.st16{fill:#484968;}
	.st17{fill:url(#SVGID_9_);}
	.st18{fill:url(#SVGID_10_);}
	.st19{fill:#3F4893;}
	.st20{fill:url(#SVGID_11_);}
	.st21{fill:url(#SVGID_12_);}
	.st22{fill:url(#SVGID_13_);}
	.st23{fill:#DD936F;}
	.st24{fill:url(#SVGID_14_);}
	.st25{fill:#1F1F1F;}
	.st26{fill:#54A5F8;}
	.st27{fill:url(#SVGID_15_);}
	.st28{fill:#BDCEFA;}
	.st29{fill:url(#SVGID_16_);}
</style>
<g>
	<path class="st0" d="M116.2,218c-2.7,0-5.5-0.7-7.8-1.9l-55.3-31.9c-2.2-1.3-3.5-3-3.5-4.8c0-1.5,0.9-2.8,2.5-3.7l57.2-33
		c3.5-2,9.7-1.8,13.8,0.6l55.3,31.9c2.2,1.3,3.5,3,3.5,4.8c0,1.5-0.9,2.8-2.5,3.7l-57.2,33C120.6,217.5,118.4,218,116.2,218z
		 M115.4,142.2c-2.1,0-4.1,0.4-5.5,1.3l-57.2,33c-1.3,0.8-2,1.8-2,2.9c0,1.4,1.1,2.8,3,3.9l55.3,31.9c3.8,2.2,9.5,2.4,12.8,0.6
		l57.2-33c1.3-0.8,2-1.8,2-2.9c0-1.4-1.1-2.8-3-3.9L122.7,144C120.6,142.8,117.9,142.2,115.4,142.2z"/>
	<g>
		<g>
			<path class="st1" d="M137,147c12.2,7.1,12.2,18.5,0,25.6c-12.2,7.1-32,7.1-44.3,0c-12.2-7.1-12.2-18.5,0-25.6
				C105,139.9,124.8,139.9,137,147z"/>
			<linearGradient id="SVGID_1_" gradientUnits="userSpaceOnUse" x1="149.9765" y1="182.437" x2="88.7972" y2="174.7896">
				<stop  offset="0" style="stop-color:#00E9FF"/>
				<stop  offset="0.3341" style="stop-color:#04DAEE"/>
				<stop  offset="0.9921" style="stop-color:#0DB1C3"/>
				<stop  offset="0.9996" style="stop-color:#0DB1C2"/>
			</linearGradient>
			<path class="st2" d="M137,172.5c-12.2,7.1-32,7.1-44.3,0c-6.1-3.5-9.1-8.1-9.2-12.7v21.7c0,4.7,3,9.3,9.2,12.9
				c12.2,7.1,32,7.1,44.3,0c6.2-3.6,9.2-8.2,9.2-12.9v-21.7C146.1,164.5,143.1,169,137,172.5z"/>
		</g>
		<g>
			<ellipse class="st3" cx="114.9" cy="118.1" rx="31.3" ry="18.1"/>
			<linearGradient id="SVGID_2_" gradientUnits="userSpaceOnUse" x1="149.8754" y1="144.6916" x2="77.5191" y2="124.1023">
				<stop  offset="0" style="stop-color:#A29AFB"/>
				<stop  offset="0.3251" style="stop-color:#9389F4"/>
				<stop  offset="0.9653" style="stop-color:#6D5EE0"/>
				<stop  offset="0.9996" style="stop-color:#6B5BDF"/>
			</linearGradient>
			<path class="st4" d="M137,130.9c-12.2,7.1-32,7.1-44.3,0c-6.1-3.5-9.1-8.1-9.2-12.7v21.7c0,4.7,3,9.3,9.2,12.9
				c12.2,7.1,32,7.1,44.3,0c6.2-3.6,9.2-8.2,9.2-12.9v-21.7C146.1,122.8,143.1,127.4,137,130.9z"/>
		</g>
		<g>
			<ellipse class="st5" cx="114.9" cy="76.5" rx="31.3" ry="18.1"/>
			<linearGradient id="SVGID_3_" gradientUnits="userSpaceOnUse" x1="141.5179" y1="100.5846" x2="82.6916" y2="84.1133">
				<stop  offset="0" style="stop-color:#6C91EA"/>
				<stop  offset="0.3656" style="stop-color:#4E75CF"/>
				<stop  offset="0.7632" style="stop-color:#345DB8"/>
				<stop  offset="0.9993" style="stop-color:#2A54AF"/>
			</linearGradient>
			<path class="st6" d="M137,89.2c-12.2,7.1-32,7.1-44.3,0c-6.1-3.5-9.1-8.1-9.2-12.7v21.7c0,4.7,3,9.3,9.2,12.9
				c12.2,7.1,32,7.1,44.3,0c6.2-3.6,9.2-8.2,9.2-12.9V76.6C146.1,81.2,143.1,85.7,137,89.2z"/>
		</g>
		<g>
			<linearGradient id="SVGID_4_" gradientUnits="userSpaceOnUse" x1="90.7275" y1="22.7932" x2="113.6693" y2="74.5645">
				<stop  offset="0" style="stop-color:#00E9FF"/>
				<stop  offset="0.1813" style="stop-color:#01D1FF"/>
				<stop  offset="0.5456" style="stop-color:#02A6FF"/>
				<stop  offset="0.8306" style="stop-color:#038CFF"/>
				<stop  offset="0.9993" style="stop-color:#0382FF"/>
			</linearGradient>
			<path class="st7" d="M123.6,70c0,10.2-7.2,14.3-16,9.2c-8.8-5.1-16-17.5-16-27.7c0-10.2,7.2-14.3,16-9.2
				C116.4,47.4,123.6,59.8,123.6,70z"/>
			<ellipse transform="matrix(0.866 -0.5 0.5 0.866 -15.9865 61.9291)" class="st8" cx="107.6" cy="60.8" rx="11.8" ry="20.4"/>
			<g>
				<linearGradient id="SVGID_5_" gradientUnits="userSpaceOnUse" x1="104.5257" y1="37.0329" x2="132.2424" y2="78.6079">
					<stop  offset="0" style="stop-color:#00E9FF"/>
					<stop  offset="0.1813" style="stop-color:#01D1FF"/>
					<stop  offset="0.5456" style="stop-color:#02A6FF"/>
					<stop  offset="0.8306" style="stop-color:#038CFF"/>
					<stop  offset="0.9993" style="stop-color:#0382FF"/>
				</linearGradient>
				<path class="st9" d="M115.9,37.5c-4.4-2.6-8.5-2.8-11.4-1.1l-8.2,4.8c0,0,0,0,0,0c2.9-1.6,6.9-1.4,11.3,1.1
					c8.8,5.1,16,17.5,16,27.7c0,5.1-1.8,8.7-4.6,10.3c0,0,0,0,0,0l8.2-4.8c2.9-1.7,4.7-5.3,4.7-10.4C131.9,55,124.7,42.6,115.9,37.5
					z"/>
			</g>
			<path class="st10" d="M106.5,68.3c-1.6-1-3.1-2.3-4.5-3.8v-4.1c0.8,1,1.7,1.9,2.7,2.8c1,0.9,1.8,1.6,2.6,2
				c0.6,0.4,1.1,0.5,1.3,0.5c0.3,0,0.4-0.2,0.4-0.6c0-0.3-0.1-0.6-0.3-0.9c-0.2-0.3-0.5-0.7-1-1.2c-0.5-0.5-1.1-1.2-1.9-2
				c-0.9-0.9-1.6-1.8-2.2-2.6c-0.6-0.8-1-1.6-1.2-2.3c-0.3-0.7-0.4-1.6-0.4-2.5c0-1.4,0.4-2.2,1.1-2.6c0.8-0.3,1.9-0.1,3.4,0.5v-2.8
				l2.2,1.3v2.7c1.4,0.9,2.9,2.2,4.3,3.7l-1.3,2.8c-1.5-1.6-2.9-2.8-4.1-3.5c-0.6-0.3-1-0.5-1.2-0.5c-0.2,0-0.4,0.2-0.4,0.5
				c0,0.3,0.1,0.5,0.3,0.8c0.2,0.3,0.5,0.6,0.9,1.1c0.4,0.5,1,1,1.7,1.8c1.5,1.5,2.6,2.8,3.2,4c0.7,1.2,1,2.4,1,3.6
				c0,1.4-0.4,2.3-1.1,2.7c-0.8,0.4-1.9,0.3-3.3-0.3v3.3l-2.2-1.3V68.3z"/>
		</g>
		<g>
			<linearGradient id="SVGID_6_" gradientUnits="userSpaceOnUse" x1="104.973" y1="199.38" x2="41.1288" y2="181.8305">
				<stop  offset="0" style="stop-color:#00E9FF"/>
				<stop  offset="0.1813" style="stop-color:#01D1FF"/>
				<stop  offset="0.5456" style="stop-color:#02A6FF"/>
				<stop  offset="0.8306" style="stop-color:#038CFF"/>
				<stop  offset="0.9993" style="stop-color:#0382FF"/>
			</linearGradient>
			<path class="st11" d="M84.2,198.5c0,10.2-7.2,14.3-16,9.2c-8.8-5.1-16-17.5-16-27.7c0-10.2,7.2-14.3,16-9.2
				C77,175.9,84.2,188.3,84.2,198.5z"/>
			<ellipse transform="matrix(0.866 -0.5 0.5 0.866 -85.4997 59.4341)" class="st8" cx="68.2" cy="189.3" rx="11.8" ry="20.4"/>
			<g>
				<linearGradient id="SVGID_7_" gradientUnits="userSpaceOnUse" x1="89.1589" y1="201.4405" x2="58.9297" y2="156.7112">
					<stop  offset="0" style="stop-color:#00E9FF"/>
					<stop  offset="0.1813" style="stop-color:#01D1FF"/>
					<stop  offset="0.5456" style="stop-color:#02A6FF"/>
					<stop  offset="0.8306" style="stop-color:#038CFF"/>
					<stop  offset="0.9993" style="stop-color:#0382FF"/>
				</linearGradient>
				<path class="st12" d="M76.5,166c-4.4-2.6-8.5-2.8-11.4-1.1l-8.2,4.8c0,0,0,0,0,0c2.9-1.6,6.9-1.4,11.3,1.1
					c8.8,5.1,16,17.5,16,27.7c0,5.1-1.8,8.7-4.6,10.3c0,0,0,0,0,0l8.2-4.8c2.9-1.7,4.7-5.3,4.7-10.4C92.5,183.5,85.3,171.1,76.5,166
					z"/>
			</g>
			<path class="st10" d="M67.1,196.8c-1.6-1-3.1-2.3-4.5-3.8v-4.1c0.8,1,1.7,1.9,2.7,2.8c1,0.9,1.8,1.6,2.6,2
				c0.6,0.4,1.1,0.5,1.3,0.5c0.3,0,0.4-0.2,0.4-0.6c0-0.3-0.1-0.6-0.3-0.9c-0.2-0.3-0.5-0.7-1-1.2c-0.5-0.5-1.1-1.2-1.9-2
				c-0.9-0.9-1.6-1.8-2.2-2.6c-0.6-0.8-1-1.6-1.2-2.3c-0.3-0.7-0.4-1.6-0.4-2.5c0-1.4,0.4-2.2,1.1-2.6c0.8-0.3,1.9-0.1,3.4,0.5v-2.8
				l2.2,1.3v2.7c1.4,0.9,2.9,2.2,4.3,3.7l-1.3,2.8c-1.5-1.6-2.9-2.8-4.1-3.5c-0.6-0.3-1-0.5-1.2-0.5c-0.2,0-0.4,0.2-0.4,0.5
				c0,0.3,0.1,0.5,0.3,0.8c0.2,0.3,0.5,0.6,0.9,1.1c0.4,0.5,1,1,1.7,1.8c1.5,1.5,2.6,2.8,3.2,4c0.7,1.2,1,2.4,1,3.6
				c0,1.4-0.4,2.3-1.1,2.7c-0.8,0.4-1.9,0.3-3.3-0.3v3.3l-2.2-1.3V196.8z"/>
		</g>
	</g>
</g>
<g>
	<path class="st0" d="M202.9,151.6c-2.6,0-5.4-0.6-7.5-1.9l-10.1-5.8c-2.2-1.3-3.4-3-3.4-4.7c0-1.5,0.9-2.8,2.5-3.7l84.3-48.7
		c3.4-2,9.4-1.7,13.4,0.5l10.1,5.8c2.2,1.3,3.4,3,3.4,4.7c0,1.5-0.9,2.8-2.5,3.7l-84.3,48.7C207.2,151.2,205.1,151.6,202.9,151.6z
		 M274.5,86.7c-2,0-3.9,0.4-5.2,1.2L185,136.6c-1.2,0.7-1.9,1.7-1.9,2.7c0,1.3,1,2.6,2.8,3.7l10.1,5.8c3.5,2,9.1,2.3,12.2,0.5
		l84.3-48.7c1.2-0.7,1.9-1.7,1.9-2.7c0-1.3-1-2.6-2.8-3.7l-10.1-5.8C279.5,87.3,276.9,86.7,274.5,86.7z"/>
	<g>
		<path class="st13" d="M270,92.8l-67,38.7c-3.1,1.8-8.6,1.6-12.2-0.5l0,0c-3.6-2.1-4-5.3-0.9-7.1l67-38.7c3.1-1.8,8.6-1.6,12.2,0.5
			l0,0C272.7,87.8,273.1,91,270,92.8z"/>
		<path class="st14" d="M270,92.8l-67,38.7c-3.1,1.8-8.6,1.6-12.2-0.5l0,0c-3.6-2.1-4-5.3-0.9-7.1l67-38.7c3.1-1.8,8.6-1.6,12.2,0.5
			l0,0C272.7,87.8,273.1,91,270,92.8z"/>
		<g>
			<linearGradient id="SVGID_8_" gradientUnits="userSpaceOnUse" x1="275.5072" y1="89.724" x2="182.7308" y2="139.5368">
				<stop  offset="0" style="stop-color:#E4F2FF"/>
				<stop  offset="5.554383e-02" style="stop-color:#E1EFFF"/>
				<stop  offset="0.6478" style="stop-color:#C7D7FB"/>
				<stop  offset="0.9993" style="stop-color:#BDCEFA"/>
			</linearGradient>
			<path class="st15" d="M270,92.8l-67,38.7c-3.1,1.8-8.6,1.6-12.2-0.5c-2-1.2-3-2.7-3-4.1c0,0,0,0,0,0.1c0,0,0,0,0,0.1v6.9
				c-0.1,1.4,0.9,3,3,4.1c3.6,2.1,9.1,2.3,12.2,0.5l67-38.7c1.4-0.8,2.1-1.9,2.1-3c0,0,0,0,0-0.1v-7C272,91,271.3,92,270,92.8z"/>
		</g>
	</g>
	<g>
		<path class="st0" d="M238.1,132.5c3.1,1.8,3.1,4.7,0,6.5c-3.1,1.8-8.1,1.8-11.2,0c-3.1-1.8-3.1-4.7,0-6.5
			C230,130.7,235,130.7,238.1,132.5z"/>
		<path class="st0" d="M257.9,121.1c3.1,1.8,3.1,4.7,0,6.5c-3.1,1.8-8.1,1.8-11.2,0c-3.1-1.8-3.1-4.7,0-6.5
			C249.7,119.3,254.8,119.3,257.9,121.1z"/>
		<ellipse class="st0" cx="272" cy="112.9" rx="7.9" ry="4.6"/>
	</g>
</g>
<g>
	<g>
		<g>
			<g>
				<g>
					<path d="M143.1,106.5c0,0.3,0.2,0.6,0.6,0.8c0.1,0.1,0-1.7,0.4-1.4c0.1,0.1,5.7,4.4,8.8,3.6c0.3-0.1,0.5-0.4,0.5-0.7l0-0.7
						c0-0.8-1.1-2-2.9-3.7c-2-1.9-3.2-3.1-6.2-1.4c-0.8,0.5-1.2,0.8-1.2,1.2L143.1,106.5z"/>
					<path class="st16" d="M150.5,104.5c2.4,2.3,3.7,3.7,2.5,4.4c-1.2,0.7-3.7-0.4-6.2-2.2c-2.2-1.7-5.4-1.9-2.5-3.6
						C147.3,101.4,148.6,102.5,150.5,104.5z"/>
				</g>
			</g>
			<linearGradient id="SVGID_9_" gradientUnits="userSpaceOnUse" x1="148.9942" y1="101.5726" x2="140.3022" y2="81.55">
				<stop  offset="7.079140e-02" style="stop-color:#FCC4B7"/>
				<stop  offset="0.3148" style="stop-color:#F7B8A6"/>
				<stop  offset="0.7948" style="stop-color:#E99A7B"/>
				<stop  offset="0.9993" style="stop-color:#E28C66"/>
			</linearGradient>
			<path class="st17" d="M148.2,103.1L148,84.9c0-0.9-0.6-1.7-1.4-2l-1.4-0.6l-6,4l2.9,1.5c0,0-0.5,5.1,0.9,9.8c0,0,1,2.1,0.8,6.8
				C143.8,104.5,147,105.5,148.2,103.1z"/>
		</g>
		<g>
			<g>
				<g>
					<path d="M134.4,110.8c0,0.3,0.2,0.6,0.6,0.8c0.1,0.1,0-1.7,0.4-1.4c0.1,0.1,5.7,4.4,8.8,3.6c0.3-0.1,0.5-0.4,0.5-0.7l0-0.7
						c0-0.8-1.1-2-2.9-3.7c-2-1.9-3.2-3.1-6.2-1.4c-0.8,0.5-1.2,0.8-1.2,1.2L134.4,110.8z"/>
					<path class="st16" d="M141.8,108.8c2.4,2.3,3.7,3.7,2.5,4.4c-1.2,0.7-3.7-0.4-6.2-2.2c-2.2-1.7-5.4-1.9-2.5-3.6
						C138.5,105.7,139.8,106.9,141.8,108.8z"/>
				</g>
			</g>
			<linearGradient id="SVGID_10_" gradientUnits="userSpaceOnUse" x1="141.1846" y1="105.931" x2="134.1999" y2="91.1856">
				<stop  offset="7.079140e-02" style="stop-color:#FCC4B7"/>
				<stop  offset="0.3148" style="stop-color:#F7B8A6"/>
				<stop  offset="0.7948" style="stop-color:#E99A7B"/>
				<stop  offset="0.9993" style="stop-color:#E28C66"/>
			</linearGradient>
			<path class="st18" d="M139.4,107.7l-0.2-21.4l-7.1,2.3l1.2,3.5c0,0-0.5,4.7,0.9,9.4c0,0,1,2.1,0.8,6.8
				C135,108.3,137.6,109.8,139.4,107.7z"/>
		</g>
		<path class="st19" d="M133,64.6c0,0,7.9-7.2,3.1-19.9l-3.7,13.2L133,64.6z"/>
		<g>
			<linearGradient id="SVGID_11_" gradientUnits="userSpaceOnUse" x1="143.6933" y1="81.1885" x2="135.0013" y2="60.7002">
				<stop  offset="7.079140e-02" style="stop-color:#FCC4B7"/>
				<stop  offset="0.3148" style="stop-color:#F7B8A6"/>
				<stop  offset="0.7948" style="stop-color:#E99A7B"/>
				<stop  offset="0.9993" style="stop-color:#E28C66"/>
			</linearGradient>
			<path class="st20" d="M142.4,82L142.4,82c-1.2,0.4-2.5-0.3-2.9-1.6L133.2,59c-0.4-1.2,0.3-2.5,1.6-2.9l0,0
				c1.2-0.4,2.5,0.3,2.9,1.6l6.3,21.5C144.3,80.4,143.6,81.7,142.4,82z"/>
		</g>
		<linearGradient id="SVGID_12_" gradientUnits="userSpaceOnUse" x1="145.0382" y1="85.8778" x2="122.9328" y2="82.3792">
			<stop  offset="7.079140e-02" style="stop-color:#73EBFF"/>
			<stop  offset="0.2155" style="stop-color:#6DDAF9"/>
			<stop  offset="0.5018" style="stop-color:#5CAEEA"/>
			<stop  offset="0.8989" style="stop-color:#4168D1"/>
			<stop  offset="0.9996" style="stop-color:#3A55CA"/>
		</linearGradient>
		<path class="st21" d="M135.9,76.3l10.7,6.6c0,0-3.7-0.9-13.3,9.2l-10.5-6.1L135.9,76.3z"/>
		<linearGradient id="SVGID_13_" gradientUnits="userSpaceOnUse" x1="136.8091" y1="81.4015" x2="122.7527" y2="63.8885">
			<stop  offset="7.112510e-02" style="stop-color:#FFFABF"/>
			<stop  offset="0.2422" style="stop-color:#FDF3AE"/>
			<stop  offset="0.5807" style="stop-color:#F9E182"/>
			<stop  offset="0.9993" style="stop-color:#F3C744"/>
		</linearGradient>
		<path class="st22" d="M124.2,87c0.1,0.1,0.2,0.1,0.3,0.1c1.5,0.1,7.1-1.1,12.7-7.4c0.5-0.5,0.8-1.2,0.8-1.8V60.1
			c0-1.3-0.5-2.3-1.3-2.7l-4.2-2.4c-0.8-0.5-1.8-0.4-3,0.3l-5.7,3.3c-2.3,1.3-4.2,4.6-4.2,7.3v17.9c0,0.4,0.1,0.7,0.4,0.9L124.2,87z
			"/>
		<path class="st23" d="M124.8,59.6c0,0.4,0.3,0.9,0.9,1.2c1.2,0.7,3,0.7,4.2,0c0.6-0.3,0.9-0.8,0.9-1.2v-3.9c0-0.4-0.3-0.9-0.9-1.2
			c-1.2-0.7-3-0.7-4.2,0c-0.6,0.3-0.9,0.8-0.9,1.2V59.6z"/>
		<linearGradient id="SVGID_14_" gradientUnits="userSpaceOnUse" x1="137.0367" y1="53.5715" x2="123.2226" y2="47.5181">
			<stop  offset="7.079140e-02" style="stop-color:#FCC4B7"/>
			<stop  offset="0.3148" style="stop-color:#F7B8A6"/>
			<stop  offset="0.7948" style="stop-color:#E99A7B"/>
			<stop  offset="0.9993" style="stop-color:#E28C66"/>
		</linearGradient>
		<circle class="st24" cx="127.8" cy="49.5" r="8.1"/>
		<path class="st19" d="M130.2,64.6c0,0-6.1-6.7-1.9-19l7.5,2.6c0,0,2.6-6.4-5.9-8.3c0,0-5.7-1.2-7.7,3.5c0,0-4.6,0.4-2.8,9.8
			C119.5,53.1,119.7,62,130.2,64.6z"/>
		<path class="st25" d="M122.2,59.8"/>
		<path class="st26" d="M133.3,92.1"/>
	</g>
	<g>
		
			<linearGradient id="SVGID_15_" gradientUnits="userSpaceOnUse" x1="102.1735" y1="90.3217" x2="73.0233" y2="80.0711" gradientTransform="matrix(-1 0 0 1 218.2118 0)">
			<stop  offset="0" style="stop-color:#FFFFFF"/>
			<stop  offset="0.5824" style="stop-color:#DAE4FC"/>
			<stop  offset="0.9993" style="stop-color:#BDCEFA"/>
		</linearGradient>
		<polygon class="st27" points="150,81.9 134.7,90.8 122.9,84.4 138.6,75.4 		"/>
		<polygon class="st28" points="150,81.9 152.4,66.6 135.4,76.4 134.7,90.8 		"/>
	</g>
	<g>
		
			<linearGradient id="SVGID_16_" gradientUnits="userSpaceOnUse" x1="10.7872" y1="88.1057" x2="-4.2692" y2="107.0426" gradientTransform="matrix(0.7605 -0.6493 0.6493 0.7605 63.178 1.2285)">
			<stop  offset="7.079140e-02" style="stop-color:#FCC4B7"/>
			<stop  offset="0.3148" style="stop-color:#F7B8A6"/>
			<stop  offset="0.7948" style="stop-color:#E99A7B"/>
			<stop  offset="0.9993" style="stop-color:#E28C66"/>
		</linearGradient>
		<path class="st29" d="M137.7,82.6L137.7,82.6c-1,0.8-2.4,0.7-3.3-0.3L120,65.4c-0.8-1-0.7-2.4,0.3-3.3l0,0c1-0.8,2.4-0.7,3.3,0.3
			L138,79.3C138.8,80.3,138.7,81.8,137.7,82.6z"/>
	</g>
</g>
</svg>
