<?xml version="1.0" encoding="utf-8"?>
<!-- Generator: Adobe Illustrator 22.0.0, SVG Export Plug-In . SVG Version: 6.00 Build 0)  -->
<svg version="1.1" id="Capa_1" xmlns="http://www.w3.org/2000/svg" xmlns:xlink="http://www.w3.org/1999/xlink" x="0px" y="0px"
	 viewBox="0 0 149.5 206.6" style="enable-background:new 0 0 149.5 206.6;" xml:space="preserve">
<style type="text/css">
	.st0{fill:#C0D9F2;}
	.st1{fill:#8CD0E3;}
	.st2{fill:url(#SVGID_1_);}
	.st3{fill:#C0BEE0;}
	.st4{fill:url(#SVGID_2_);}
	.st5{fill:#A1BBE3;}
	.st6{fill:url(#SVGID_3_);}
	.st7{fill:url(#SVGID_4_);}
	.st8{fill:#3E57A3;}
	.st9{fill:url(#SVGID_5_);}
	.st10{fill:#3B75BA;}
	.st11{fill:url(#SVGID_6_);}
	.st12{fill:url(#SVGID_7_);}
	.st13{fill:#010101;}
	.st14{fill:#484968;}
	.st15{fill:url(#SVGID_8_);}
	.st16{fill:url(#SVGID_9_);}
	.st17{fill:#3F4994;}
	.st18{fill:url(#SVGID_10_);}
	.st19{fill:url(#SVGID_11_);}
	.st20{fill:url(#SVGID_12_);}
	.st21{fill:#DD936E;}
	.st22{fill:url(#SVGID_13_);}
	.st23{fill:#1F1F1F;}
	.st24{fill:#629FD6;}
	.st25{fill:url(#SVGID_14_);}
	.st26{fill:#BECCEA;}
	.st27{fill:url(#SVGID_15_);}
</style>
<title>33</title>
<path class="st0" d="M76.9,206.6c-2.9,0-5.7-0.7-8.2-2l-58.6-33.8c-2.3-1.4-3.7-3.2-3.7-5c0.1-1.7,1.1-3.2,2.7-4l60.6-35
	c3.7-2.2,10.3-1.9,14.6,0.6l58.6,33.8c2.3,1.3,3.7,3.2,3.7,5c-0.1,1.7-1.1,3.2-2.7,4l-60.6,35C81.3,206.1,79.1,206.7,76.9,206.6z
	 M76,126.3c-2-0.1-4.1,0.4-5.9,1.3l-60.6,35c-1.2,0.6-2.1,1.8-2.2,3.1c0,1.5,1.2,3,3.2,4.2l58.6,33.8c4,2.3,10.1,2.6,13.6,0.6
	l60.6-35c1.2-0.6,2.1-1.7,2.2-3.1c0-1.5-1.2-3-3.2-4.2l-58.6-33.8C81.4,126.9,78.7,126.3,76,126.3z"/>
<path class="st1" d="M99,131.3c13,7.5,13,19.6,0,27.1s-34,7.5-46.9,0s-13-19.6,0-27.1C65,123.8,86,123.9,99,131.3z"/>
<linearGradient id="SVGID_1_" gradientUnits="userSpaceOnUse" x1="112.2111" y1="38.084" x2="47.3657" y2="46.1896" gradientTransform="matrix(1 0 0 -1 0.48 207)">
	<stop  offset="0" style="stop-color:#64C5E1"/>
	<stop  offset="0.26" style="stop-color:#53C1DB"/>
	<stop  offset="0.78" style="stop-color:#28B6CA"/>
	<stop  offset="1" style="stop-color:#13B1C2"/>
</linearGradient>
<path class="st2" d="M99,158.4c-13,7.5-34,7.5-46.9,0c-6.4-3.7-9.7-8.6-9.7-13.4v23c-0.1,4.9,3.2,9.9,9.7,13.7c13,7.5,34,7.5,46.9,0
	c6.6-3.7,9.8-8.7,9.7-13.7v-23C108.6,149.9,105.4,154.7,99,158.4z"/>
<ellipse class="st3" cx="75.5" cy="100.7" rx="33.2" ry="19.2"/>
<linearGradient id="SVGID_2_" gradientUnits="userSpaceOnUse" x1="112.0974" y1="78.086" x2="35.4169" y2="99.9103" gradientTransform="matrix(1 0 0 -1 0.48 207)">
	<stop  offset="0" style="stop-color:#9A96C9"/>
	<stop  offset="0.32" style="stop-color:#8986BF"/>
	<stop  offset="0.94" style="stop-color:#5E5CA6"/>
	<stop  offset="1" style="stop-color:#5958A3"/>
</linearGradient>
<path class="st4" d="M99,114.3c-13,7.5-34,7.5-46.9,0c-6.4-3.7-9.7-8.6-9.7-13.4v23c-0.1,4.9,3.2,9.9,9.7,13.7c13,7.5,34,7.5,46.9,0
	c6.6-3.7,9.8-8.7,9.7-13.7v-23C108.6,105.8,105.4,110.6,99,114.3z"/>
<ellipse class="st5" cx="75.5" cy="56.6" rx="33.2" ry="19.2"/>
<linearGradient id="SVGID_3_" gradientUnits="userSpaceOnUse" x1="103.2439" y1="124.8333" x2="40.9005" y2="142.2909" gradientTransform="matrix(1 0 0 -1 0.48 207)">
	<stop  offset="0" style="stop-color:#6F8BC7"/>
	<stop  offset="0.34" style="stop-color:#5474B7"/>
	<stop  offset="0.75" style="stop-color:#3A5DA8"/>
	<stop  offset="1" style="stop-color:#3055A2"/>
</linearGradient>
<path class="st6" d="M99,70.2c-13,7.5-34,7.5-46.9,0c-6.4-3.7-9.7-8.6-9.7-13.4v23c-0.1,4.9,3.2,9.9,9.7,13.7c13,7.5,34,7.5,46.9,0
	c6.6-3.7,9.8-8.7,9.7-13.7v-23C108.6,61.6,105.4,66.4,99,70.2z"/>
<linearGradient id="SVGID_4_" gradientUnits="userSpaceOnUse" x1="49.4187" y1="207.2866" x2="73.7263" y2="152.4117" gradientTransform="matrix(1 0 0 -1 0.4838 207.002)">
	<stop  offset="0" style="stop-color:#64C5E1"/>
	<stop  offset="1.000000e-02" style="stop-color:#64C4E1"/>
	<stop  offset="0.45" style="stop-color:#4E99CC"/>
	<stop  offset="0.8" style="stop-color:#407FBF"/>
	<stop  offset="1" style="stop-color:#3B75BA"/>
</linearGradient>
<path class="st7" d="M55.8,19.2c6.6-3.8,17.4,2.4,24,13.9c6.6,11.5,6.6,23.9,0,27.7c-6.6,3.8-17.4-2.4-24-13.9S49.1,23,55.8,19.2z"
	/>
<ellipse transform="matrix(0.866 -0.5 0.5 0.866 -10.923 39.2321)" class="st8" cx="67.7" cy="40" rx="12.5" ry="21.6"/>
<linearGradient id="SVGID_5_" gradientUnits="userSpaceOnUse" x1="64.025" y1="192.1822" x2="93.4022" y2="148.1211" gradientTransform="matrix(1 0 0 -1 0.48 207)">
	<stop  offset="0" style="stop-color:#64C5E1"/>
	<stop  offset="1.000000e-02" style="stop-color:#64C4E1"/>
	<stop  offset="0.45" style="stop-color:#4E99CC"/>
	<stop  offset="0.8" style="stop-color:#407FBF"/>
	<stop  offset="1" style="stop-color:#3B75BA"/>
</linearGradient>
<path class="st9" d="M76.6,15.3c-4.7-2.7-9-3-12-1.2l-8.7,5l0,0c3.1-1.7,7.3-1.5,11.9,1.2c9.4,5.4,17,18.6,17,29.4
	c0,5.4-1.9,9.1-4.9,11l0,0l8.7-5c3.1-1.8,5-5.6,5-11C93.5,33.9,85.9,20.7,76.6,15.3z"/>
<path class="st10" d="M66.6,47.9c-1.8-1.1-3.4-2.5-4.8-4.1v-4.4c0.9,1,1.9,2,2.9,3c0.8,0.8,1.8,1.5,2.7,2.1c0.4,0.3,0.9,0.5,1.4,0.6
	c0.3,0,0.4-0.2,0.4-0.6c0-0.3-0.1-0.7-0.3-0.9c-0.3-0.5-0.7-0.9-1.1-1.3c-0.5-0.6-1.2-1.2-2.1-2.1c-0.9-0.8-1.6-1.8-2.3-2.7
	c-0.5-0.8-1-1.6-1.3-2.5c-0.3-0.8-0.4-1.7-0.4-2.6c0-1.4,0.4-2.4,1.2-2.7c0.8-0.3,2-0.2,3.6,0.6v-2.9l2.4,1.4v2.9
	c1.7,1.1,3.2,2.4,4.6,3.9l-1.4,3c-1.2-1.5-2.7-2.7-4.3-3.7c-0.4-0.3-0.8-0.4-1.3-0.5c-0.3,0-0.4,0.2-0.4,0.5c0,0.3,0.1,0.6,0.3,0.9
	c0.3,0.4,0.6,0.8,0.9,1.2c0.4,0.5,1.1,1.1,1.9,1.9c1.3,1.2,2.5,2.6,3.4,4.2c0.7,1.2,1,2.5,1,3.8c0,1.5-0.4,2.4-1.2,2.9
	c-0.8,0.5-2,0.3-3.5-0.3v3.5l-2.4-1.3V47.9z"/>
<linearGradient id="SVGID_6_" gradientUnits="userSpaceOnUse" x1="64.5135" y1="20.1298" x2="-3.1524" y2="38.7307" gradientTransform="matrix(1 0 0 -1 0.48 207)">
	<stop  offset="0" style="stop-color:#64C5E1"/>
	<stop  offset="1.000000e-02" style="stop-color:#64C4E1"/>
	<stop  offset="0.45" style="stop-color:#4E99CC"/>
	<stop  offset="0.8" style="stop-color:#407FBF"/>
	<stop  offset="1" style="stop-color:#3B75BA"/>
</linearGradient>
<path class="st11" d="M42.9,185.9c0,10.8-7.6,15.2-17,9.8S9,177.2,9,166.4s7.6-15.2,17-9.8S42.9,175.1,42.9,185.9z"/>
<ellipse transform="matrix(0.866 -0.5 0.5 0.866 -84.5924 36.5879)" class="st8" cx="26" cy="176.1" rx="12.5" ry="21.6"/>
<linearGradient id="SVGID_7_" gradientUnits="userSpaceOnUse" x1="47.7505" y1="17.951" x2="15.712" y2="65.3575" gradientTransform="matrix(1 0 0 -1 0.48 207)">
	<stop  offset="0" style="stop-color:#64C5E1"/>
	<stop  offset="1.000000e-02" style="stop-color:#64C4E1"/>
	<stop  offset="0.45" style="stop-color:#4E99CC"/>
	<stop  offset="0.8" style="stop-color:#407FBF"/>
	<stop  offset="1" style="stop-color:#3B75BA"/>
</linearGradient>
<path class="st12" d="M34.8,151.5c-4.7-2.7-9-3-12-1.2l-8.7,5l0,0c3.1-1.7,7.3-1.5,12,1.2c9.4,5.4,17,18.6,17,29.4
	c0,5.4-1.9,9.2-4.9,11l0,0l8.7-5c3.1-1.8,5-5.6,5-11C51.8,170,44.2,156.9,34.8,151.5z"/>
<path class="st10" d="M24.8,184.1c-1.8-1.1-3.4-2.5-4.8-4.1v-4.4c0.9,1,1.9,2,2.9,3c0.8,0.8,1.7,1.5,2.7,2.1
	c0.4,0.3,0.9,0.5,1.4,0.5c0.3,0,0.4-0.2,0.4-0.6c0-0.3-0.1-0.7-0.3-0.9c-0.3-0.5-0.7-0.9-1.1-1.3c-0.5-0.5-1.2-1.2-2.1-2.1
	c-0.9-0.8-1.6-1.8-2.3-2.7c-0.5-0.8-1-1.6-1.3-2.5c-0.3-0.8-0.4-1.7-0.4-2.6c0-1.4,0.4-2.4,1.2-2.7s2-0.2,3.6,0.6v-2.9l2.4,1.4v2.8
	c1.7,1.1,3.2,2.4,4.6,3.9l-1.4,3c-1.2-1.5-2.7-2.7-4.3-3.7c-0.4-0.3-0.8-0.4-1.3-0.5c-0.2,0-0.4,0.2-0.4,0.5c0,0.3,0.1,0.6,0.3,0.9
	c0.3,0.4,0.6,0.8,0.9,1.2c0.4,0.5,1,1.1,1.9,1.9c1.3,1.2,2.5,2.7,3.4,4.2c0.7,1.2,1,2.5,1,3.8c0,1.5-0.4,2.4-1.2,2.9
	c-0.8,0.5-2,0.3-3.5-0.3v3.5l-2.4-1.4L24.8,184.1z"/>
<path class="st13" d="M105.4,88.4c0,0.3,0.2,0.6,0.7,0.9c0.1,0.1,0-1.8,0.4-1.5c0.1,0.1,6,4.7,9.4,3.8c0.3-0.1,0.5-0.4,0.5-0.7v-0.7
	c0-0.8-1.2-2.1-3.1-4c-2.1-2-3.4-3.3-6.6-1.5c-0.9,0.5-1.2,0.9-1.3,1.2L105.4,88.4z"/>
<path class="st14" d="M113.3,86.3c2.5,2.5,3.9,3.9,2.6,4.7c-1.3,0.8-3.9-0.4-6.6-2.4c-2.3-1.8-5.7-2-2.6-3.7
	C109.8,83,111.2,84.2,113.3,86.3z"/>
<linearGradient id="SVGID_8_" gradientUnits="userSpaceOnUse" x1="111.1709" y1="123.793" x2="101.9594" y2="145.0083" gradientTransform="matrix(1 0 0 -1 0.48 207)">
	<stop  offset="7.000000e-02" style="stop-color:#F8C3B7"/>
	<stop  offset="0.31" style="stop-color:#F3B8A6"/>
	<stop  offset="0.79" style="stop-color:#E89A7B"/>
	<stop  offset="1" style="stop-color:#E28C66"/>
</linearGradient>
<path class="st15" d="M110.8,84.9l-0.2-19.3c0-0.9-0.6-1.8-1.5-2.1l-1.5-0.6l-6.4,4.2l3.1,1.6c-0.3,3.5,0,7,0.9,10.3
	c0,0,1.1,2.2,0.9,7.3C106.2,86.3,109.6,87.3,110.8,84.9z"/>
<path class="st13" d="M96.2,93c0,0.3,0.2,0.6,0.7,0.9c0.1,0.1,0-1.8,0.4-1.5c0.1,0.1,6,4.7,9.4,3.8c0.3-0.1,0.5-0.4,0.5-0.7v-0.7
	c0-0.8-1.2-2.1-3.1-4c-2.1-2-3.4-3.3-6.6-1.5c-0.9,0.5-1.2,0.9-1.3,1.2L96.2,93z"/>
<path class="st14" d="M104,90.9c2.5,2.5,3.9,3.9,2.6,4.7c-1.3,0.8-3.9-0.4-6.6-2.4c-2.3-1.8-5.7-2-2.6-3.7
	C100.5,87.7,101.9,88.9,104,90.9z"/>
<linearGradient id="SVGID_9_" gradientUnits="userSpaceOnUse" x1="102.9025" y1="119.1805" x2="95.4997" y2="134.8015" gradientTransform="matrix(1 0 0 -1 0.48 207)">
	<stop  offset="7.000000e-02" style="stop-color:#F8C3B7"/>
	<stop  offset="0.31" style="stop-color:#F3B8A6"/>
	<stop  offset="0.79" style="stop-color:#E89A7B"/>
	<stop  offset="1" style="stop-color:#E28C66"/>
</linearGradient>
<path class="st16" d="M101.5,89.7l-0.2-22.6l-7.5,2.4l1.3,3.7c-0.3,3.3,0,6.7,0.9,9.9c0,0,1.1,2.2,0.9,7.3
	C96.9,90.4,99.6,91.9,101.5,89.7z"/>
<path class="st17" d="M94.7,44c0,0,8.3-7.6,3.3-21.1l-3.9,14L94.7,44z"/>
<linearGradient id="SVGID_10_" gradientUnits="userSpaceOnUse" x1="105.5526" y1="145.3942" x2="96.3412" y2="167.1062" gradientTransform="matrix(1 0 0 -1 0.48 207)">
	<stop  offset="7.000000e-02" style="stop-color:#F8C3B7"/>
	<stop  offset="0.31" style="stop-color:#F3B8A6"/>
	<stop  offset="0.79" style="stop-color:#E89A7B"/>
	<stop  offset="1" style="stop-color:#E28C66"/>
</linearGradient>
<path class="st18" d="M104.6,62.5L104.6,62.5c-1.3,0.4-2.7-0.4-3-1.7l-6.7-22.8c-0.4-1.3,0.4-2.7,1.6-3l0,0c1.3-0.4,2.6,0.4,3,1.7
	l6.7,22.8C106.7,60.8,105.9,62.1,104.6,62.5z"/>
<linearGradient id="SVGID_11_" gradientUnits="userSpaceOnUse" x1="106.9733" y1="140.4256" x2="83.5465" y2="144.127" gradientTransform="matrix(1 0 0 -1 0.48 207)">
	<stop  offset="7.000000e-02" style="stop-color:#8AD0E9"/>
	<stop  offset="0.24" style="stop-color:#7FBFDF"/>
	<stop  offset="0.59" style="stop-color:#6493C6"/>
	<stop  offset="1" style="stop-color:#3E57A3"/>
</linearGradient>
<path class="st19" d="M97.8,56.5l11.3,7c0,0-3.9-0.9-14.1,9.8l-11.2-6.4L97.8,56.5z"/>
<linearGradient id="SVGID_12_" gradientUnits="userSpaceOnUse" x1="98.2408" y1="145.161" x2="83.3507" y2="163.7244" gradientTransform="matrix(1 0 0 -1 0.48 207)">
	<stop  offset="7.000000e-02" style="stop-color:#FEF7C1"/>
	<stop  offset="0.24" style="stop-color:#FDF1B0"/>
	<stop  offset="0.57" style="stop-color:#F9E084"/>
	<stop  offset="1" style="stop-color:#F3C742"/>
</linearGradient>
<path class="st20" d="M85.4,67.8c0.1,0.1,0.2,0.1,0.3,0.1c1.6,0.1,7.6-1.2,13.5-7.8c0.5-0.5,0.8-1.2,0.8-1.9V39.2
	c0.1-1.1-0.4-2.2-1.3-2.9l-4.4-2.6c-1-0.5-2.2-0.4-3.2,0.3L85,37.6c-2.6,1.7-4.3,4.6-4.5,7.7v19c-0.1,0.4,0.1,0.7,0.4,0.9L85.4,67.8
	z"/>
<path class="st21" d="M86.1,38.7c0,0.6,0.4,1.1,0.9,1.3c1.4,0.7,3,0.7,4.4,0c0.5-0.2,0.9-0.7,0.9-1.3v-4.1c0-0.6-0.4-1.1-0.9-1.3
	c-1.4-0.7-3-0.7-4.4,0c-0.5,0.2-0.9,0.7-0.9,1.3V38.7z"/>
<linearGradient id="SVGID_13_" gradientUnits="userSpaceOnUse" x1="98.9724" y1="174.6655" x2="84.3353" y2="181.0751" gradientTransform="matrix(1 0 0 -1 0 207)">
	<stop  offset="7.000000e-02" style="stop-color:#F8C3B7"/>
	<stop  offset="0.31" style="stop-color:#F3B8A6"/>
	<stop  offset="0.79" style="stop-color:#E89A7B"/>
	<stop  offset="1" style="stop-color:#E28C66"/>
</linearGradient>
<circle class="st22" cx="89.2" cy="28.1" r="8.6"/>
<path class="st17" d="M91.7,44c0,0-6.4-7.1-2-20.2l7.9,2.7c0,0,2.8-6.8-6.3-8.8c0,0-6-1.3-8.1,3.7c0,0-4.8,0.4-3,10.3
	C80.4,31.9,80.6,41.3,91.7,44z"/>
<path class="st23" d="M83.2,39"/>
<path class="st24" d="M95.1,73.2"/>
<linearGradient id="SVGID_14_" gradientUnits="userSpaceOnUse" x1="-466.1558" y1="135.7176" x2="-497.051" y2="146.5783" gradientTransform="matrix(-1 0 0 -1 -389.44 207)">
	<stop  offset="0" style="stop-color:#FFFFFF"/>
	<stop  offset="0.59" style="stop-color:#DAE2F3"/>
	<stop  offset="1" style="stop-color:#BECCEA"/>
</linearGradient>
<polygon class="st25" points="112.7,62.4 96.5,71.8 84,65 100.6,55.5 "/>
<polygon class="st26" points="112.7,62.4 115.3,46.1 97.2,56.5 96.5,71.8 "/>
<linearGradient id="SVGID_15_" gradientUnits="userSpaceOnUse" x1="-83.7361" y1="-35.5113" x2="-99.6944" y2="-55.5834" gradientTransform="matrix(0.76 -0.65 -0.65 -0.76 130.55 -40.99)">
	<stop  offset="7.000000e-02" style="stop-color:#F8C3B7"/>
	<stop  offset="0.31" style="stop-color:#F3B8A6"/>
	<stop  offset="0.79" style="stop-color:#E89A7B"/>
	<stop  offset="1" style="stop-color:#E28C66"/>
</linearGradient>
<path class="st27" d="M99.7,63.1L99.7,63.1c-1,0.9-2.6,0.8-3.4-0.3c0,0,0,0,0,0l-15.4-18c-0.9-1-0.7-2.6,0.3-3.5l0,0
	c1-0.9,2.6-0.8,3.5,0.3l15.4,18C100.8,60.7,100.7,62.2,99.7,63.1z"/>
</svg>
