<?xml version="1.0" encoding="utf-8"?>
<!-- Generator: Adobe Illustrator 22.0.0, SVG Export Plug-In . SVG Version: 6.00 Build 0)  -->
<svg version="1.1" id="Capa_1" xmlns="http://www.w3.org/2000/svg" xmlns:xlink="http://www.w3.org/1999/xlink" x="0px" y="0px"
	 viewBox="0 0 228 218" style="enable-background:new 0 0 228 218;" xml:space="preserve">
<style type="text/css">
	.st0{fill:#FFFFFF;}
	.st1{fill:#BDCEFA;}
	.st2{fill:url(#SVGID_1_);}
	.st3{fill:url(#SVGID_2_);}
	.st4{fill:url(#SVGID_3_);}
	.st5{fill:url(#SVGID_4_);}
	.st6{fill:#6C91EA;}
	.st7{fill:#A29AFB;}
	.st8{fill:#00E9FF;}
	.st9{fill:#C3E0FE;}
	.st10{fill:#0382FF;}
	.st11{fill:#3A55CA;}
	.st12{fill:#2645B5;}
	.st13{fill:url(#SVGID_5_);}
	.st14{fill:#F3C744;}
	.st15{fill:url(#SVGID_6_);}
	.st16{fill:#1C1C38;}
	.st17{fill:url(#SVGID_7_);}
	.st18{fill:url(#SVGID_8_);}
	.st19{fill:#FFFFEB;}
	.st20{fill:#E5A89C;}
	.st21{fill:url(#SVGID_9_);}
	.st22{fill:url(#SVGID_10_);}
	.st23{fill-rule:evenodd;clip-rule:evenodd;fill:#2D0D60;}
	.st24{fill:#F1AC85;}
	.st25{fill:#2D0D60;}
</style>
<g>
	<path class="st0" d="M75.1,207.1l-63.2-36.5c-4.4-2.5-3.8-7,1.2-9.9l120.9-69.8c5.1-2.9,12.8-3.2,17.2-0.7l63.2,36.5
		c4.4,2.5,3.8,7-1.2,9.9L92.3,206.4C87.2,209.3,79.5,209.7,75.1,207.1z"/>
	<g>
		<path class="st1" d="M75.1,207.1l-63.2-36.5c-1.9-1.1-2.9-2.6-3-4.1v8.1c0,1.6,1,3.1,3,4.2l63.2,36.5c2.2,1.3,5.2,1.8,8.3,1.7
			c0-2.7,0-5.4,0-8.2C80.3,208.9,77.3,208.4,75.1,207.1z"/>
		<linearGradient id="SVGID_1_" gradientUnits="userSpaceOnUse" x1="224.7815" y1="131.3757" x2="38.4514" y2="242.0092">
			<stop  offset="0" style="stop-color:#E4F2FF"/>
			<stop  offset="5.554383e-02" style="stop-color:#E1EFFF"/>
			<stop  offset="0.6478" style="stop-color:#C7D7FB"/>
			<stop  offset="0.9993" style="stop-color:#BDCEFA"/>
		</linearGradient>
		<path class="st2" d="M213.2,136.6L92.3,206.4c-2.6,1.5-5.8,2.3-8.9,2.4c0,2.7,0,5.4,0,8.2c3.1-0.1,6.4-0.9,8.9-2.4l120.9-69.8
			c2.9-1.7,4.3-3.8,4.2-5.8v-8.1C217.4,132.9,216,135,213.2,136.6z"/>
	</g>
	<g>
		<g>
			<linearGradient id="SVGID_2_" gradientUnits="userSpaceOnUse" x1="82.198" y1="67.3364" x2="82.198" y2="136.9808">
				<stop  offset="0" style="stop-color:#6C91EA"/>
				<stop  offset="0.3656" style="stop-color:#4E75CF"/>
				<stop  offset="0.7632" style="stop-color:#345DB8"/>
				<stop  offset="0.9993" style="stop-color:#2A54AF"/>
			</linearGradient>
			<polygon class="st3" points="92.9,82.1 82.2,66.9 71.5,94.5 76.8,91.4 76.8,138.9 87.6,132.7 87.6,85.2 			"/>
			<linearGradient id="SVGID_3_" gradientUnits="userSpaceOnUse" x1="107.5198" y1="11.4083" x2="107.5198" y2="118.8503">
				<stop  offset="0" style="stop-color:#A29AFB"/>
				<stop  offset="0.3251" style="stop-color:#9389F4"/>
				<stop  offset="0.9653" style="stop-color:#6D5EE0"/>
				<stop  offset="0.9996" style="stop-color:#6B5BDF"/>
			</linearGradient>
			<polygon class="st4" points="118.2,26.4 107.5,11.2 96.8,38.7 102.2,35.7 102.2,124.3 112.9,118.1 112.9,29.5 			"/>
			<linearGradient id="SVGID_4_" gradientUnits="userSpaceOnUse" x1="132.8416" y1="24.6544" x2="132.8416" y2="101.6922">
				<stop  offset="0" style="stop-color:#00E9FF"/>
				<stop  offset="0.3341" style="stop-color:#04DAEE"/>
				<stop  offset="0.9921" style="stop-color:#0DB1C3"/>
				<stop  offset="0.9996" style="stop-color:#0DB1C2"/>
			</linearGradient>
			<polygon class="st5" points="143.5,39 132.8,23.7 122.2,51.3 127.5,48.2 127.5,109.6 138.2,103.5 138.2,42 			"/>
			<polygon class="st6" points="140.6,163.3 129.9,169.5 76.8,138.9 87.6,132.7 			"/>
			<polygon class="st7" points="165.9,148.7 155.2,154.9 102.2,124.3 112.9,118.1 			"/>
			<polygon class="st8" points="191.2,134.1 180.5,140.3 127.5,109.6 138.2,103.5 			"/>
		</g>
		<g>
			<path class="st9" d="M69.5,170.5l21.9,12.6c-12,6.9-31.7,6.9-43.7,0c-12-6.9-12-18.3,0-25.2c12-6.9,31.7-6.9,43.7,0
				c0,0,0.1,0,0.1,0L69.5,170.5z"/>
			<g>
				<path class="st10" d="M69.5,157.9l21.9-12.6c5.8,3.3,9,7.9,9,12.6c0,4.7-3.3,9.2-9.1,12.6L69.5,157.9z"/>
				<path class="st11" d="M91.4,170.4v12.7c5.7-3.3,9-7.8,9-12.5v-12.7C100.4,162.6,97.2,167.1,91.4,170.4z"/>
				<path class="st12" d="M91.3,170.5l-21.9-12.6v12.7l21.9,12.6c0,0,0.1,0,0.1,0L91.3,170.5C91.4,170.4,91.4,170.5,91.3,170.5z"/>
			</g>
		</g>
		<g>
			<path class="st9" d="M164.9,106.8c-1.9,1.1-4.9,1.1-6.8,0c-1.9-1.1-1.9-2.8,0-3.9c1.9-1.1,4.9-1.1,6.8,0
				C166.7,104,166.7,105.8,164.9,106.8z"/>
			<path class="st9" d="M176.8,113.7c-1.9,1.1-4.9,1.1-6.8,0c-1.9-1.1-1.9-2.8,0-3.9c1.9-1.1,4.9-1.1,6.8,0
				C178.6,110.9,178.6,112.6,176.8,113.7z"/>
			<path class="st9" d="M188.7,120.6c-1.9,1.1-4.9,1.1-6.8,0c-1.9-1.1-1.9-2.8,0-3.9c1.9-1.1,4.9-1.1,6.8,0
				C190.5,117.7,190.5,119.5,188.7,120.6z"/>
		</g>
	</g>
</g>
<g>
	<g>
		<g>
			
				<linearGradient id="SVGID_5_" gradientUnits="userSpaceOnUse" x1="219.0742" y1="181.0065" x2="227.0219" y2="164.0745" gradientTransform="matrix(-1 0 0 1 414.601 0)">
				<stop  offset="7.079140e-02" style="stop-color:#FCC4B7"/>
				<stop  offset="0.3148" style="stop-color:#F7B8A6"/>
				<stop  offset="0.7948" style="stop-color:#E99A7B"/>
				<stop  offset="0.9993" style="stop-color:#E28C66"/>
			</linearGradient>
			<path class="st13" d="M196.1,182.5L196.1,182.5c-1.1,0.5-2.4,0-2.9-1.1l-7.1-15.6c-0.5-1.1,0-2.4,1.1-2.9l0,0
				c1.1-0.5,2.4,0,2.9,1.1l7.1,15.6C197.6,180.7,197.2,182,196.1,182.5z"/>
			<path class="st14" d="M192.3,165.9l-2.3-5c-0.8-1.7-2.8-2.5-4.5-1.7l0,0c-1.7,0.8-2.5,2.8-1.7,4.5l2.3,5
				C186.1,168.7,189.6,170.6,192.3,165.9z"/>
		</g>
		<g>
			<g>
				
					<linearGradient id="SVGID_6_" gradientUnits="userSpaceOnUse" x1="180.2727" y1="175.3262" x2="180.2727" y2="185.8846" gradientTransform="matrix(1 0 0 1 4.8349 0)">
					<stop  offset="7.079140e-02" style="stop-color:#8347E2"/>
					<stop  offset="0.2749" style="stop-color:#773BD1"/>
					<stop  offset="0.6763" style="stop-color:#591CA6"/>
					<stop  offset="0.9996" style="stop-color:#3D007E"/>
				</linearGradient>
				<path class="st15" d="M181.9,182.5c-0.1,0.2-0.2,0.4-0.2,0.7l0,7.5c0,1.5,1.5,2.7,3.3,2.7l0,0c1.8,0,3.3-1.1,3.4-2.6l0-9.5
					c0-0.4-0.2-0.7-0.6-0.8C186.6,180.1,183.6,179.5,181.9,182.5z"/>
			</g>
			<g>
				<g>
					<path d="M166.3,197.3c-0.9,0.4-0.3,2.7-0.3,4.9c-0.1,3.1,0.6,6,2,6.8c0.3,0.2,0.6,0.2,0.9,0.1l1.4-0.8c0.8-0.4,1.3-2.2,2.1-4.9
						c0.8-3,1.3-4.9-2-6.8c-0.9-0.6-1.5-0.7-1.8-0.5L166.3,197.3z"/>
					<path class="st16" d="M172.4,203.5c-1,3.6-1.6,5.6-3,4.8c-1.4-0.8-1.6-3.8-1.2-7.3c0.4-3.1-1.1-6.3,2.2-4.4
						C173.7,198.6,173.2,200.5,172.4,203.5z"/>
				</g>
				
					<linearGradient id="SVGID_7_" gradientUnits="userSpaceOnUse" x1="247.6798" y1="200.5206" x2="232.3843" y2="191.9238" gradientTransform="matrix(-1 0 0 1 414.601 0)">
					<stop  offset="7.079140e-02" style="stop-color:#8347E2"/>
					<stop  offset="0.2749" style="stop-color:#773BD1"/>
					<stop  offset="0.6763" style="stop-color:#591CA6"/>
					<stop  offset="0.9996" style="stop-color:#3D007E"/>
				</linearGradient>
				<path class="st17" d="M173,200.7c0.2,0,0.5-0.1,0.7-0.2l13.5-7.5c1.3-0.7,1.6-2.6,0.7-4.2l0,0c-0.9-1.6-2.7-2.3-3.9-1.6
					l-15.3,8.5c-0.3,0.2-0.5,0.5-0.4,0.9C168.5,197.9,169.5,200.8,173,200.7z"/>
			</g>
		</g>
		<g>
			<g>
				<path d="M175,211.8c-0.1,1,2.2,1.6,4.1,2.7c2.7,1.5,5.6,2.4,6.9,1.6c0.3-0.2,0.5-0.5,0.5-0.8l0-1.6c0-0.9-1.3-2.2-3.3-4.2
					c-2.2-2.2-3.6-3.5-6.9-1.6c-0.9,0.5-1.3,1-1.3,1.3L175,211.8z"/>
				<path class="st16" d="M183.3,209.5c2.7,2.6,4.1,4.1,2.8,4.9c-1.4,0.8-4.1-0.4-6.9-2.5c-2.5-1.9-6.1-2.1-2.8-4
					C179.7,206,181.1,207.4,183.3,209.5z"/>
			</g>
			
				<linearGradient id="SVGID_8_" gradientUnits="userSpaceOnUse" x1="236.5669" y1="211.8548" x2="236.5669" y2="180.4517" gradientTransform="matrix(-1 0 0 1 414.601 0)">
				<stop  offset="7.043800e-02" style="stop-color:#8347E2"/>
				<stop  offset="0.2746" style="stop-color:#773BD1"/>
				<stop  offset="0.6762" style="stop-color:#591CA6"/>
				<stop  offset="0.9996" style="stop-color:#3D007E"/>
			</linearGradient>
			<path class="st18" d="M181.2,207.7c0.1-0.2,0.2-0.4,0.2-0.7V184c0-1.5-1.5-2.6-3.3-2.6l0,0c-1.8,0-3.3,1.2-3.3,2.6v25
				c0,0.4,0.2,0.7,0.6,0.8C176.6,210.2,179.6,210.7,181.2,207.7z"/>
		</g>
		<path class="st19" d="M175.8,188.2c0.1,0.1,0.2,0.1,0.3,0.1c1.5,0.1,6.8-1,12-7c0.4-0.5,0.7-1.2,0.7-1.7v-16.9
			c0-1.3-0.5-2.2-1.2-2.6l-4-2.3c-0.7-0.4-1.7-0.4-2.8,0.3l-5.4,3.1c-2.2,1.3-4,4.4-4,6.9v17c0,0.4,0.1,0.7,0.4,0.8L175.8,188.2z"/>
		<path class="st20" d="M177.3,162.2c0,0.4,0.3,0.8,0.8,1.2c1.1,0.6,2.9,0.6,4,0c0.6-0.3,0.8-0.7,0.8-1.2v-3.7
			c0-0.4-0.3-0.8-0.8-1.2c-1.1-0.6-2.9-0.6-4,0c-0.6,0.3-0.8,0.7-0.8,1.2V162.2z"/>
		<g>
			
				<linearGradient id="SVGID_9_" gradientUnits="userSpaceOnUse" x1="252.756" y1="186.2408" x2="243.1102" y2="169.3151" gradientTransform="matrix(-1 0 0 1 414.601 0)">
				<stop  offset="7.079140e-02" style="stop-color:#FCC4B7"/>
				<stop  offset="0.3148" style="stop-color:#F7B8A6"/>
				<stop  offset="0.7948" style="stop-color:#E99A7B"/>
				<stop  offset="0.9993" style="stop-color:#E28C66"/>
			</linearGradient>
			<path class="st21" d="M162.4,186.4L162.4,186.4c-1.1-0.5-1.5-1.9-1-3l7.7-15.3c0.5-1.1,1.9-1.5,3-1l0,0c1.1,0.5,1.5,1.9,1,3
				l-7.7,15.3C164.8,186.5,163.5,186.9,162.4,186.4z"/>
			<path class="st14" d="M172.9,173.1l2.5-4.9c0.8-1.7,0.2-3.7-1.5-4.6l0,0c-1.7-0.8-3.7-0.2-4.6,1.5l-2.5,4.9
				C166.9,170,167.6,173.9,172.9,173.1z"/>
		</g>
		
			<linearGradient id="SVGID_10_" gradientUnits="userSpaceOnUse" x1="228.9866" y1="157.9252" x2="238.4336" y2="148.644" gradientTransform="matrix(-1 0 0 1 414.601 0)">
			<stop  offset="7.079140e-02" style="stop-color:#FCC4B7"/>
			<stop  offset="0.3148" style="stop-color:#F7B8A6"/>
			<stop  offset="0.7948" style="stop-color:#E99A7B"/>
			<stop  offset="0.9993" style="stop-color:#E28C66"/>
		</linearGradient>
		<circle class="st22" cx="180.2" cy="152.6" r="7.7"/>
		<path class="st23" d="M173.8,143.5c-6.6,2.3-3.3,11.9,1.5,15.4c2.3-1.3-0.5-3.6,2.7-2c0.6-3.1-0.8-2.2,0.1-6.1
			c3.4,1.7,9.9-0.4,10.9-3.6c-1.2-0.5-2.4-3.8-5.1-5.1C180.3,140.6,175.8,141.3,173.8,143.5z"/>
		<path class="st24" d="M177.6,157c0,0.9-0.6,1.3-1.4,0.8c-0.8-0.5-1.4-1.6-1.4-2.5c0-0.9,0.6-1.3,1.4-0.8
			C177,154.9,177.6,156,177.6,157z"/>
	</g>
	<path class="st25" d="M185.1,152.9c-1.3,0.8-2.4,2.8-2.4,4.6s1.1,2.6,2.4,1.9c1.3-0.8,2.4-2.8,2.4-4.6S186.4,152.1,185.1,152.9z
		 M185.1,156.1c-0.8,0.5-1.5,0.6-1.5,0.3c0-0.3,0.7-1,1.5-1.5c0.8-0.5,1.5-0.6,1.5-0.3C186.6,155,185.9,155.7,185.1,156.1z"/>
</g>
</svg>
