<svg id="Capa_1" data-name="Capa 1" xmlns="http://www.w3.org/2000/svg" xmlns:xlink="http://www.w3.org/1999/xlink" viewBox="0 0 208.56 205.94"><defs><style>.cls-1{fill:#fff;}.cls-2{fill:#beccea;}.cls-3{fill:url(#Degradado_sin_nombre_17);}.cls-4{fill:url(#Degradado_sin_nombre_115);}.cls-5{fill:url(#Degradado_sin_nombre_114);}.cls-6{fill:url(#Degradado_sin_nombre_113);}.cls-7{fill:#6f8bc7;}.cls-8{fill:#9a96c9;}.cls-9{fill:#64c5e1;}.cls-10{fill:#c4dff6;}.cls-11{fill:#3b75ba;}.cls-12{fill:#3e57a3;}.cls-13{fill:#314b9b;}.cls-14{fill:url(#Degradado_sin_nombre_4);}.cls-15{fill:#f3c742;}.cls-16{fill:url(#Degradado_sin_nombre_6);}.cls-17{fill:#010101;}.cls-18{fill:#1c1c38;}.cls-19{fill:url(#Degradado_sin_nombre_6-2);}.cls-20{fill:url(#Degradado_sin_nombre_5);}.cls-21{fill:#fefcec;}.cls-22{fill:#e5a89c;}.cls-23{fill:url(#Degradado_sin_nombre_4-2);}.cls-24{fill:url(#Degradado_sin_nombre_4-3);}.cls-25,.cls-27{fill:#2d245b;}.cls-25{fill-rule:evenodd;}.cls-26{fill:#f0ac84;}</style><linearGradient id="Degradado_sin_nombre_17" x1="217.26" y1="120.25" x2="30.8" y2="230.96" gradientUnits="userSpaceOnUse"><stop offset="0" stop-color="#e4f2fc"/><stop offset="0.04" stop-color="#e2f0fb"/><stop offset="0.64" stop-color="#c8d6ef"/><stop offset="1" stop-color="#beccea"/></linearGradient><linearGradient id="Degradado_sin_nombre_115" x1="73.27" y1="56.17" x2="73.27" y2="125.86" gradientUnits="userSpaceOnUse"><stop offset="0" stop-color="#6f8bc7"/><stop offset="0.34" stop-color="#5474b7"/><stop offset="0.75" stop-color="#3a5da8"/><stop offset="1" stop-color="#3055a2"/></linearGradient><linearGradient id="Degradado_sin_nombre_114" x1="98.61" y1="0.2" x2="98.61" y2="107.72" gradientUnits="userSpaceOnUse"><stop offset="0" stop-color="#9a96c9"/><stop offset="0.32" stop-color="#8986bf"/><stop offset="0.94" stop-color="#5e5ca6"/><stop offset="1" stop-color="#5958a3"/></linearGradient><linearGradient id="Degradado_sin_nombre_113" x1="123.94" y1="13.46" x2="123.94" y2="90.55" gradientUnits="userSpaceOnUse"><stop offset="0" stop-color="#64c5e1"/><stop offset="0.26" stop-color="#53c1db"/><stop offset="0.78" stop-color="#28b6ca"/><stop offset="1" stop-color="#13b1c2"/></linearGradient><linearGradient id="Degradado_sin_nombre_4" x1="218.69" y1="169.92" x2="226.65" y2="152.97" gradientTransform="matrix(-1, 0, 0, 1, 406.68, 0)" gradientUnits="userSpaceOnUse"><stop offset="0.07" stop-color="#f8c3b7"/><stop offset="0.31" stop-color="#f3b8a6"/><stop offset="0.79" stop-color="#e89a7b"/><stop offset="1" stop-color="#e28c66"/></linearGradient><linearGradient id="Degradado_sin_nombre_6" x1="172.72" y1="164.23" x2="172.72" y2="174.8" gradientTransform="translate(4.83)" gradientUnits="userSpaceOnUse"><stop offset="0.07" stop-color="#634d9b"/><stop offset="0.52" stop-color="#533d8a"/><stop offset="1" stop-color="#3c2773"/></linearGradient><linearGradient id="Degradado_sin_nombre_6-2" x1="247.32" y1="189.44" x2="232.01" y2="180.84" gradientTransform="matrix(-1, 0, 0, 1, 406.68, 0)" xlink:href="#Degradado_sin_nombre_6"/><linearGradient id="Degradado_sin_nombre_5" x1="236.2" y1="200.78" x2="236.2" y2="169.36" gradientTransform="matrix(-1, 0, 0, 1, 406.68, 0)" gradientUnits="userSpaceOnUse"><stop offset="0.07" stop-color="#634d9b"/><stop offset="0.51" stop-color="#533d8a"/><stop offset="1" stop-color="#3c2773"/></linearGradient><linearGradient id="Degradado_sin_nombre_4-2" x1="252.4" y1="175.15" x2="242.75" y2="158.22" xlink:href="#Degradado_sin_nombre_4"/><linearGradient id="Degradado_sin_nombre_4-3" x1="228.61" y1="146.82" x2="238.07" y2="137.53" gradientTransform="matrix(-1, 0, 0, 1, 405.36, 0)" xlink:href="#Degradado_sin_nombre_4"/></defs><title>44</title><path class="cls-1" d="M67.47,196.06,4.27,159.57c-4.39-2.53-3.83-7,1.24-9.93l121-69.86c5.07-2.93,12.81-3.25,17.2-.71l63.2,36.48c4.39,2.54,3.83,7-1.24,9.94l-121,69.85C79.6,198.27,71.86,198.59,67.47,196.06Z" transform="translate(-1.31)"/><path class="cls-2" d="M67.47,196.06,4.27,159.57a5.15,5.15,0,0,1-2.95-4.12v8.09c0,1.58,1,3.08,2.95,4.2l63.2,36.49a15.72,15.72,0,0,0,8.27,1.69v-8.17A15.82,15.82,0,0,1,67.47,196.06Z" transform="translate(-1.31)"/><path class="cls-3" d="M205.67,125.49l-121,69.85a19.71,19.71,0,0,1-8.93,2.41v8.17a19.83,19.83,0,0,0,8.93-2.4l121-69.86c2.86-1.65,4.28-3.8,4.19-5.81v-8.09C209.91,121.75,208.49,123.86,205.67,125.49Z" transform="translate(-1.31)"/><polygon class="cls-4" points="83.96 70.96 73.27 55.75 62.57 83.31 67.9 80.23 67.9 127.76 78.63 121.57 78.63 74.04 83.96 70.96"/><polygon class="cls-5" points="109.3 15.21 98.61 0 87.91 27.56 93.24 24.48 93.24 113.13 103.97 106.94 103.97 18.29 109.3 15.21"/><polygon class="cls-6" points="134.64 27.77 123.94 12.55 113.25 40.12 118.58 37.04 118.58 98.5 129.31 92.31 129.31 30.84 134.64 27.77"/><polygon class="cls-7" points="131.69 152.2 120.96 158.39 67.9 127.76 78.63 121.57 131.69 152.2"/><polygon class="cls-8" points="157.02 137.57 146.3 143.76 93.24 113.13 103.97 106.94 157.02 137.57"/><polygon class="cls-9" points="182.36 122.94 171.64 129.13 118.58 98.5 129.31 92.31 182.36 122.94"/><path class="cls-10" d="M61.85,159.44l21.88,12.63C71.73,179,52,179,40,172.07s-12-18.33,0-25.26,31.75-6.93,43.75,0l.08.05Z" transform="translate(-1.31)"/><path class="cls-11" d="M61.85,146.76l22-12.58c5.76,3.35,9,7.89,9,12.61s-3.28,9.26-9.06,12.6Z" transform="translate(-1.31)"/><path class="cls-12" d="M83.81,159.34V172c5.73-3.34,9-7.85,9-12.55V146.79C92.77,151.49,89.54,156,83.81,159.34Z" transform="translate(-1.31)"/><path class="cls-13" d="M83.73,159.39,61.85,146.76v12.68l21.88,12.63.08,0V159.34Z" transform="translate(-1.31)"/><path class="cls-10" d="M157.31,95.69a7.48,7.48,0,0,1-6.77,0c-1.87-1.08-1.87-2.83,0-3.91a7.48,7.48,0,0,1,6.77,0C159.18,92.86,159.18,94.61,157.31,95.69Z" transform="translate(-1.31)"/><path class="cls-10" d="M169.21,102.56a7.48,7.48,0,0,1-6.77,0c-1.87-1.08-1.87-2.83,0-3.91a7.48,7.48,0,0,1,6.77,0C171.08,99.73,171.08,101.48,169.21,102.56Z" transform="translate(-1.31)"/><path class="cls-10" d="M181.1,109.43a7.48,7.48,0,0,1-6.77,0c-1.86-1.08-1.86-2.83,0-3.91a7.48,7.48,0,0,1,6.77,0C183,106.6,183,108.35,181.1,109.43Z" transform="translate(-1.31)"/><path class="cls-14" d="M188.51,171.37h0a2.2,2.2,0,0,1-2.91-1.09l-7.09-15.63a2.2,2.2,0,0,1,1.09-2.91h0a2.2,2.2,0,0,1,2.91,1.09l7.09,15.63A2.2,2.2,0,0,1,188.51,171.37Z" transform="translate(-1.31)"/><path class="cls-15" d="M184.72,154.8l-2.28-5.05a3.42,3.42,0,0,0-4.5-1.69h0a3.4,3.4,0,0,0-1.69,4.5l2.28,5.05S182,159.48,184.72,154.8Z" transform="translate(-1.31)"/><path class="cls-16" d="M174.38,171.45a1.37,1.37,0,0,0-.16.66v7.46c0,1.45,1.46,2.66,3.29,2.69h0c1.83,0,3.34-1.14,3.37-2.59l0-9.47a.84.84,0,0,0-.58-.81C179.05,169,176,168.39,174.38,171.45Z" transform="translate(-1.31)"/><path class="cls-17" d="M158.79,186.26c-.89.38-.3,2.68-.33,4.9-.06,3.09.6,6,2,6.84a.89.89,0,0,0,.92.09l1.37-.76c.8-.39,1.35-2.2,2.09-4.91.81-3,1.3-4.87-2-6.84-.94-.56-1.48-.7-1.79-.53Z" transform="translate(-1.31)"/><path class="cls-18" d="M164.8,192.42c-1,3.6-1.62,5.63-3,4.81s-1.65-3.8-1.16-7.29c.44-3.06-1.11-6.33,2.17-4.36S165.61,189.44,164.8,192.42Z" transform="translate(-1.31)"/><path class="cls-19" d="M165.41,189.63a1.4,1.4,0,0,0,.66-.19l13.53-7.5c1.27-.7,1.58-2.59.69-4.19h0c-.88-1.6-2.65-2.33-3.92-1.63l-15.28,8.48a.84.84,0,0,0-.42.9C161,186.81,161.94,189.72,165.41,189.63Z" transform="translate(-1.31)"/><path class="cls-17" d="M167.49,200.75c-.1,1,2.2,1.55,4.13,2.67,2.67,1.54,5.56,2.38,6.93,1.59a.91.91,0,0,0,.53-.75v-1.58c0-.89-1.28-2.24-3.29-4.2-2.21-2.16-3.62-3.51-6.93-1.6-1,.55-1.33,1-1.33,1.31Z" transform="translate(-1.31)"/><path class="cls-18" d="M175.79,198.48c2.68,2.61,4.14,4.15,2.76,4.94s-4.12-.4-6.93-2.53c-2.47-1.86-6.07-2.09-2.76-4S173.58,196.32,175.79,198.48Z" transform="translate(-1.31)"/><path class="cls-20" d="M173.65,196.59a1.44,1.44,0,0,0,.16-.67V173c0-1.45-1.5-2.64-3.33-2.64h0c-1.83,0-3.33,1.19-3.33,2.64v25a.84.84,0,0,0,.59.8C169,199.12,172.05,199.67,173.65,196.59Z" transform="translate(-1.31)"/><path class="cls-21" d="M168.25,177.09a.62.62,0,0,0,.28.09c1.47.12,6.76-1,12.05-7a2.75,2.75,0,0,0,.72-1.71V151.54a2.79,2.79,0,0,0-1.19-2.58l-4-2.32a2.77,2.77,0,0,0-2.83.26L167.87,150a8.84,8.84,0,0,0-4,6.9v17a.87.87,0,0,0,.38.82Z" transform="translate(-1.31)"/><path class="cls-22" d="M169.79,151.08a1.38,1.38,0,0,0,.82,1.17,4.41,4.41,0,0,0,4,0,1.42,1.42,0,0,0,.82-1.17V147.4a1.42,1.42,0,0,0-.82-1.17,4.41,4.41,0,0,0-4,0,1.38,1.38,0,0,0-.82,1.17Z" transform="translate(-1.31)"/><path class="cls-23" d="M154.82,175.29h0a2.19,2.19,0,0,1-1-2.95L161.59,157a2.2,2.2,0,0,1,2.95-1h0a2.19,2.19,0,0,1,1,2.95l-7.74,15.31A2.2,2.2,0,0,1,154.82,175.29Z" transform="translate(-1.31)"/><path class="cls-15" d="M165.36,162l2.5-4.94a3.39,3.39,0,0,0-1.5-4.56h0a3.4,3.4,0,0,0-4.56,1.5l-2.5,4.94S160,162.78,165.36,162Z" transform="translate(-1.31)"/><circle class="cls-24" cx="171.35" cy="141.52" r="7.72"/><path class="cls-25" d="M166.22,132.38c-6.6,2.27-3.32,11.91,1.48,15.39,2.35-1.29-.5-3.58,2.7-2,.64-3.11-.8-2.16.07-6.07,3.36,1.75,9.89-.37,10.91-3.6-1.17-.52-2.4-3.84-5.13-5.06C172.73,129.49,168.22,130.18,166.22,132.38Z" transform="translate(-1.31)"/><path class="cls-26" d="M170.09,145.86c0,.92-.65,1.29-1.45.83a3.18,3.18,0,0,1-1.44-2.5c0-.92.64-1.3,1.44-.84A3.19,3.19,0,0,1,170.09,145.86Z" transform="translate(-1.31)"/><path class="cls-27" d="M177.56,141.8a5.73,5.73,0,0,0-2.37,4.59c0,1.78,1.06,2.61,2.37,1.86a5.77,5.77,0,0,0,2.37-4.6C179.93,141.87,178.87,141,177.56,141.8Zm0,3.22c-.83.48-1.49.59-1.49.25s.66-1,1.49-1.47,1.48-.58,1.48-.25S178.38,144.55,177.56,145Z" transform="translate(-1.31)"/></svg>