<svg width="2207" height="574" viewBox="0 0 2207 574" fill="none" xmlns="http://www.w3.org/2000/svg">
<g clip-path="url(#clip0)">
<path d="M2126 379.9V235.9H2021V127.4H1920V0.300049H2201V379.9H2126Z" fill="#AAE003"/>
<path d="M1911 0.300049H1628.6V127.4H1911V0.300049Z" fill="#AAE003"/>
<path d="M1503 394.3H1495H1255.3C1240.2 367.1 1218.2 344.4 1191.4 328.7C1164.6 312.9 1134.1 304.6 1103 304.6C1071.9 304.6 1041.4 312.9 1014.6 328.7C987.8 344.5 965.7 367.2 950.7 394.3H712H703H0V478.9H712V478.8H997.7C997.7 478.8 1016.4 478.8 1016.4 462C1016.4 420.6 1060.1 390.6 1103 390.6C1145.9 390.6 1189.6 420.6 1189.6 462C1189.6 478.8 1208.3 478.8 1208.3 478.8H1495V478.9H2207V394.3H1503V394.3Z" fill="#919191"/>
<path d="M1219.4 425.6L1226.3 421.5C1228.4 425 1230.5 428.6 1232.7 432.5H1245.4V440.5H1228L1226.8 438.5C1224.3 433.9 1221.8 429.7 1219.4 425.6Z" fill="white"/>
<path d="M995.1 398.2C1000.6 390.6 1006.7 383.5 1013.4 377L1019 382.7C1012.7 389 1006.8 395.8 1001.6 403L995.1 398.2ZM1035.5 359.5C1043.6 354.5 1052.2 350.6 1061.3 347.8L1063.7 355.4C1055.3 358 1047.2 361.7 1039.7 366.3L1035.5 359.5ZM1089 342.4C1093.5 342 1098.2 341.8 1103 341.8C1107.8 341.8 1112.6 342 1117.1 342.4L1116.4 350.4C1112.1 350 1107.6 349.8 1103 349.8C1098.4 349.8 1094 350 1089.7 350.4L1089 342.4ZM1142.4 355.4L1144.8 347.8C1153.9 350.6 1162.5 354.6 1170.6 359.6L1166.4 366.4C1158.9 361.8 1150.8 358.1 1142.4 355.4ZM1187.1 382.8L1192.7 377.1C1199.3 383.7 1205.4 390.8 1211 398.4L1204.6 403.2C1199.2 395.9 1193.4 389.1 1187.1 382.8Z" fill="white"/>
<path d="M960.7 440.6V432.6H973.4C975.6 428.7 977.7 425.1 979.8 421.6L986.7 425.7C984.3 429.7 981.9 433.9 979.3 438.6L978.1 440.6H960.7Z" fill="white"/>
<path d="M1503 269.5V64H1293.4V269.5H1503Z" fill="#E5E5E5"/>
<path d="M1686.3 91.5C1680.8 91.5 1675.5 89.9 1670.9 86.8C1666.4 83.8 1662.8 79.4 1660.7 74.4C1658.6 69.3 1658.1 63.8 1659.1 58.4C1660.2 53 1662.8 48.1 1666.7 44.2C1670.6 40.3 1675.5 37.7 1680.9 36.6C1686.3 35.5 1691.8 36.1 1696.9 38.2C1702 40.3 1706.3 43.8 1709.3 48.4C1712.3 52.9 1714 58.3 1714 63.8C1714 71.1 1711.1 78.2 1705.9 83.4C1700.7 88.6 1693.7 91.5 1686.3 91.5Z" fill="#A6CC02"/>
<path d="M1765.7 91.5C1760.2 91.5 1754.9 89.9 1750.3 86.8C1745.8 83.8 1742.2 79.4 1740.1 74.4C1738 69.3 1737.5 63.8 1738.5 58.4C1739.6 53 1742.2 48.1 1746.1 44.2C1750 40.3 1754.9 37.7 1760.3 36.6C1765.7 35.5 1771.2 36.1 1776.3 38.2C1781.4 40.3 1785.7 43.8 1788.7 48.4C1791.7 52.9 1793.4 58.3 1793.4 63.8C1793.4 71.1 1790.5 78.2 1785.3 83.4C1780.1 88.6 1773.1 91.5 1765.7 91.5Z" fill="#A6CC02"/>
<path d="M1850.1 91.5C1844.6 91.5 1839.3 89.9 1834.7 86.8C1830.2 83.8 1826.6 79.4 1824.5 74.4C1822.4 69.3 1821.9 63.8 1822.9 58.4C1824 53 1826.6 48.1 1830.5 44.2C1834.4 40.3 1839.3 37.7 1844.7 36.6C1850.1 35.5 1855.6 36.1 1860.7 38.2C1865.8 40.3 1870.1 43.8 1873.1 48.4C1876.1 52.9 1877.8 58.3 1877.8 63.8C1877.8 71.1 1874.9 78.2 1869.7 83.4C1864.4 88.6 1857.4 91.5 1850.1 91.5Z" fill="#A6CC02"/>
<path d="M1478.2 256.7C1475.3 256.7 1472.5 255.8 1470.1 254.3C1467.7 252.7 1465.9 250.4 1464.8 247.8C1463.7 245.1 1463.4 242.2 1464 239.4C1464.6 236.6 1465.9 234 1468 232C1470 230 1472.6 228.6 1475.4 228C1478.2 227.4 1481.1 227.7 1483.8 228.8C1486.5 229.9 1488.7 231.8 1490.3 234.1C1491.9 236.5 1492.7 239.3 1492.7 242.2C1492.7 244.1 1492.3 246 1491.6 247.8C1490.9 249.6 1489.8 251.2 1488.5 252.5C1487.2 253.8 1485.6 254.9 1483.8 255.6C1482 256.4 1480.1 256.7 1478.2 256.7Z" fill="#AAE003"/>
<path d="M1318.2 105.7C1315.3 105.7 1312.5 104.8 1310.1 103.3C1307.7 101.7 1305.9 99.4 1304.8 96.8C1303.7 94.1 1303.4 91.2 1304 88.4C1304.6 85.6 1305.9 83 1308 81C1310 79 1312.6 77.6 1315.4 77C1318.2 76.4 1321.1 76.7 1323.8 77.8C1326.5 78.9 1328.7 80.8 1330.3 83.1C1331.9 85.5 1332.7 88.3 1332.7 91.2C1332.7 95.1 1331.2 98.7 1328.4 101.5C1325.8 104.2 1322.1 105.7 1318.2 105.7Z" fill="#AAE003"/>
<path d="M1318.2 256.7C1315.3 256.7 1312.5 255.8 1310.1 254.3C1307.7 252.7 1305.9 250.4 1304.8 247.8C1303.7 245.1 1303.4 242.2 1304 239.4C1304.6 236.6 1305.9 234 1308 232C1310 230 1312.6 228.6 1315.4 228C1318.2 227.4 1321.1 227.7 1323.8 228.8C1326.5 229.9 1328.7 231.8 1330.3 234.1C1331.9 236.5 1332.7 239.3 1332.7 242.2C1332.7 244.1 1332.3 246 1331.6 247.8C1330.9 249.6 1329.8 251.2 1328.5 252.5C1327.2 253.8 1325.6 254.9 1323.8 255.6C1322 256.4 1320.1 256.7 1318.2 256.7Z" fill="#AAE003"/>
<path d="M1452.1 100.5V81.9H1344.4V100.5H1452.1Z" fill="#DBDBDB"/>
<path d="M1452.1 251.5V232.9H1344.4V251.5H1452.1Z" fill="#DBDBDB"/>
<path d="M1487.5 220.6V112.9H1468.9V220.6H1487.5V220.6Z" fill="#DBDBDB"/>
<path d="M1327.5 220.6V112.9H1308.9V220.6H1327.5V220.6Z" fill="#DBDBDB"/>
<path d="M1388.8 217.4C1416.8 222.6 1443.6 204.2 1448.9 176.2C1454.1 148.2 1435.7 121.4 1407.7 116.1C1379.7 110.9 1352.9 129.3 1347.6 157.3C1342.4 185.3 1360.8 212.1 1388.8 217.4Z" fill="#DBDBDB"/>
<path d="M1398.2 195.6C1392.5 195.6 1386.9 193.9 1382.2 190.8C1377.4 187.6 1373.7 183.1 1371.6 177.9C1369.4 172.6 1368.8 166.8 1369.9 161.2C1371 155.6 1373.7 150.5 1377.8 146.4C1381.8 142.4 1387 139.6 1392.6 138.5C1398.2 137.4 1404 137.9 1409.3 140.1C1414.6 142.3 1419.1 146 1422.3 150.7C1425.5 155.4 1427.2 161 1427.2 166.7C1427.2 174.3 1424.2 181.7 1418.8 187.1C1413.2 192.5 1405.8 195.6 1398.2 195.6Z" fill="#00BCD5"/>
<path d="M1398.2 183.9C1394.8 183.9 1391.5 182.9 1388.6 181C1385.7 179.1 1383.6 176.4 1382.3 173.3C1381 170.2 1380.7 166.7 1381.3 163.4C1382 160.1 1383.6 157 1386 154.6C1388.4 152.2 1391.5 150.6 1394.8 149.9C1398.1 149.2 1401.6 149.6 1404.7 150.9C1407.8 152.2 1410.5 154.4 1412.4 157.2C1414.3 160 1415.3 163.4 1415.3 166.8C1415.3 171.4 1413.5 175.7 1410.3 179C1407.1 182.1 1402.8 183.9 1398.2 183.9Z" fill="#61ECF7"/>
<path d="M1503 52.1V0H1293.4V52.1H1503Z" fill="#E5E5E5"/>
<path d="M1495 44.1V8H1460.5V44H1495V44.1Z" fill="#DBDBDB"/>
<path d="M1453.2 44.1V8H1387.5V44H1453.2V44.1Z" fill="#DBDBDB"/>
<path d="M1380.5 44.1V8H1346V44H1380.5V44.1Z" fill="#DBDBDB"/>
<path d="M1339 44.1V8H1301.3V44H1339V44.1Z" fill="#DBDBDB"/>
<path d="M1503 381.4V281.9H1404.4V381.4H1503Z" fill="#E5E5E5"/>
<path d="M1481.5 359.5V303.9H1425.9V359.5H1481.5Z" fill="#DBDBDB"/>
<path d="M1467 295.8V287.8H1495.7V318.8H1487.7V295.8H1467Z" fill="#DBDBDB"/>
<path d="M1467 367.5V375.5H1495.7V344.5H1487.7V367.5H1467Z" fill="#DBDBDB"/>
<path d="M1440.4 367.5V375.5H1411.7V344.5H1419.7V367.5H1440.4Z" fill="#DBDBDB"/>
<path d="M1440.4 295.8V287.8H1411.7V318.8H1419.7V295.8H1440.4Z" fill="#DBDBDB"/>
<path d="M1391.9 381.3V281.8H1293.3V381.3H1391.9Z" fill="#E5E5E5"/>
<path d="M1383.6 375.3V287.6H1371.1V375.3H1383.6Z" fill="#DBDBDB"/>
<path d="M1359.7 375.3V287.6H1347.2V375.3H1359.7Z" fill="#DBDBDB"/>
<path d="M1338.1 375.3V287.6H1325.6V375.3H1338.1Z" fill="#DBDBDB"/>
<path d="M1314.1 375.3V287.6H1301.6V375.3H1314.1Z" fill="#DBDBDB"/>
<path d="M2117 380.2V244.6H1982.7V380.2H2117Z" fill="#E5E5E5"/>
<path d="M2087.7 350.3V274.5H2011.9V350.3H2087.7Z" fill="#DBDBDB"/>
<path d="M2068 263.6V252.7H2107.1V294.9H2096.2V263.6H2068Z" fill="#DBDBDB"/>
<path d="M2068 361.2V372.1H2107.1V329.9H2096.2V361.2H2068Z" fill="#DBDBDB"/>
<path d="M2031.7 361.2V372.1H1992.6V329.9H2003.5V361.2H2031.7Z" fill="#DBDBDB"/>
<path d="M2031.7 263.6V252.7H1992.6V294.9H2003.5V263.6H2031.7Z" fill="#DBDBDB"/>
<path d="M1975.6 379.9V244.4H1841.3V379.9H1975.6Z" fill="#E5E5E5"/>
<path d="M1964.3 371.9V252.4H1947.2V371.9H1964.3Z" fill="#DBDBDB"/>
<path d="M1931.7 371.9V252.4H1914.6V371.9H1931.7Z" fill="#DBDBDB"/>
<path d="M1902.3 371.9V252.4H1885.2V371.9H1902.3Z" fill="#DBDBDB"/>
<path d="M1869.7 371.9V252.4H1852.6V371.9H1869.7Z" fill="#DBDBDB"/>
<path d="M695.8 270V64.5H486.2V270H695.8Z" fill="#E5E5E5"/>
<path d="M671 106.3C668.1 106.3 665.3 105.4 662.9 103.9C660.5 102.4 658.7 100 657.6 97.4C656.5 94.7 656.2 91.8 656.8 89C657.4 86.2 658.7 83.6 660.8 81.6C662.8 79.6 665.4 78.2 668.2 77.6C671 77 673.9 77.3 676.6 78.4C679.3 79.5 681.5 81.4 683.1 83.7C684.7 86.1 685.5 88.9 685.5 91.8C685.5 95.7 684 99.3 681.2 102.1C678.5 104.7 674.8 106.3 671 106.3Z" fill="#AAE003"/>
<path d="M1477.8 106.3C1474.9 106.3 1472.1 105.4 1469.7 103.9C1467.3 102.3 1465.5 100 1464.4 97.4C1463.3 94.7 1463 91.8 1463.6 89C1464.2 86.2 1465.5 83.6 1467.6 81.6C1469.6 79.6 1472.2 78.2 1475 77.6C1477.8 77 1480.7 77.3 1483.4 78.4C1486.1 79.5 1488.3 81.4 1489.9 83.7C1491.5 86.1 1492.3 88.9 1492.3 91.8C1492.3 95.7 1490.8 99.3 1488 102.1C1485.2 104.9 1481.6 106.3 1477.8 106.3Z" fill="#AAE003"/>
<path d="M671 257.3C668.1 257.3 665.3 256.4 662.9 254.9C660.5 253.4 658.7 251 657.6 248.4C656.5 245.7 656.2 242.8 656.8 240C657.4 237.2 658.7 234.6 660.8 232.6C662.8 230.6 665.4 229.2 668.2 228.6C671 228 673.9 228.3 676.6 229.4C679.3 230.5 681.5 232.4 683.1 234.7C684.7 237.1 685.5 239.9 685.5 242.8C685.5 244.7 685.1 246.6 684.4 248.4C683.7 250.2 682.6 251.8 681.3 253.1C680 254.4 678.4 255.5 676.6 256.2C674.8 256.9 672.9 257.3 671 257.3Z" fill="#AAE003"/>
<path d="M511 106.3C508.1 106.3 505.3 105.4 502.9 103.9C500.5 102.4 498.7 100 497.6 97.4C496.5 94.7 496.2 91.8 496.8 89C497.4 86.2 498.7 83.6 500.8 81.6C502.8 79.6 505.4 78.2 508.2 77.6C511 77 513.9 77.3 516.6 78.4C519.3 79.5 521.5 81.4 523.1 83.7C524.7 86.1 525.5 88.9 525.5 91.8C525.5 95.7 524 99.3 521.2 102.1C518.5 104.7 514.9 106.3 511 106.3Z" fill="#AAE003"/>
<path d="M511 257.3C508.1 257.3 505.3 256.4 502.9 254.9C500.5 253.4 498.7 251 497.6 248.4C496.5 245.7 496.2 242.8 496.8 240C497.4 237.2 498.7 234.6 500.8 232.6C502.8 230.6 505.4 229.2 508.2 228.6C511 228 513.9 228.3 516.6 229.4C519.3 230.5 521.5 232.4 523.1 234.7C524.7 237.1 525.5 239.9 525.5 242.8C525.5 244.7 525.1 246.6 524.4 248.4C523.7 250.2 522.6 251.8 521.3 253.1C520 254.4 518.4 255.5 516.6 256.2C514.8 256.9 512.9 257.3 511 257.3Z" fill="#AAE003"/>
<path d="M644.8 101.1V82.4H537.1V101H644.8V101.1Z" fill="#DBDBDB"/>
<path d="M644.8 252.1V233.5H537.1V252.1H644.8Z" fill="#DBDBDB"/>
<path d="M680.3 221.1V113.4H661.7V221.1H680.3V221.1Z" fill="#DBDBDB"/>
<path d="M520.3 221.1V113.4H501.7V221.1H520.3V221.1Z" fill="#DBDBDB"/>
<path d="M581.5 217.9C609.5 223.1 636.3 204.7 641.6 176.7C646.8 148.7 628.4 121.9 600.4 116.6C572.4 111.4 545.6 129.8 540.3 157.8C535.2 185.8 553.6 212.7 581.5 217.9Z" fill="#DBDBDB"/>
<path d="M591 196.1C585.3 196.1 579.7 194.4 575 191.3C570.2 188.1 566.5 183.6 564.4 178.4C562.3 173.2 561.6 167.3 562.7 161.7C563.8 156.1 566.5 151 570.6 146.9C574.6 142.9 579.8 140.1 585.4 139C591 137.9 596.8 138.4 602.1 140.6C607.4 142.8 611.9 146.5 615.1 151.2C618.3 155.9 620 161.5 620 167.2C620 174.8 617 182.2 611.6 187.6C606 193.1 598.6 196.1 591 196.1Z" fill="#00BCD5"/>
<path d="M591 184.4C587.6 184.4 584.3 183.4 581.4 181.5C578.5 179.6 576.4 176.9 575.1 173.8C573.8 170.7 573.5 167.2 574.1 163.9C574.8 160.6 576.4 157.5 578.8 155.1C581.2 152.7 584.3 151.1 587.6 150.4C590.9 149.7 594.4 150.1 597.5 151.4C600.6 152.7 603.3 154.9 605.2 157.7C607.1 160.5 608.1 163.9 608.1 167.3C608.1 171.9 606.3 176.2 603.1 179.5C599.9 182.6 595.5 184.4 591 184.4Z" fill="#61ECF7"/>
<path d="M695.8 52.6V0.5H486.2V52.6H695.8Z" fill="#E5E5E5"/>
<path d="M687.8 44.6V8.59998H653.3V44.6H687.8Z" fill="#DBDBDB"/>
<path d="M646 44.6V8.59998H580.3V44.6H646Z" fill="#DBDBDB"/>
<path d="M573.3 44.6V8.59998H538.8V44.6H573.3Z" fill="#DBDBDB"/>
<path d="M531.8 44.6V8.59998H494.1V44.6H531.8Z" fill="#DBDBDB"/>
<path d="M695.8 382V282.5H597.2V382H695.8Z" fill="#E5E5E5"/>
<path d="M674.3 360V304.4H618.7V360H674.3Z" fill="#DBDBDB"/>
<path d="M659.8 296.4V288.4H688.5V319.4H680.5V296.4H659.8Z" fill="#DBDBDB"/>
<path d="M659.8 368.1V376.1H688.5V345.1H680.5V368.1H659.8Z" fill="#DBDBDB"/>
<path d="M633.2 368.1V376.1H604.5V345.1H612.5V368.1H633.2Z" fill="#DBDBDB"/>
<path d="M633.2 296.4V288.4H604.5V319.4H612.5V296.4H633.2Z" fill="#DBDBDB"/>
<path d="M584.7 381.8V282.3H486.1V381.8H584.7Z" fill="#E5E5E5"/>
<path d="M576.4 375.9V288.2H563.9V375.9H576.4Z" fill="#DBDBDB"/>
<path d="M552.5 375.9V288.2H540V375.9H552.5Z" fill="#DBDBDB"/>
<path d="M530.8 375.9V288.2H518.3V375.9H530.8Z" fill="#DBDBDB"/>
<path d="M506.9 375.9V288.2H494.4V375.9H506.9Z" fill="#DBDBDB"/>
<path d="M1285 381.3H1263C1263 381.3 1234.5 331.6 1184 312V281.9H1285V381.3Z" fill="#E5E5E5"/>
<path d="M1248 296.1V288.1H1276.7V319.1H1268.7V296.1H1248Z" fill="#DBDBDB"/>
<path d="M1245.7 336.7C1242.8 336.7 1240 335.8 1237.6 334.3C1235.2 332.7 1233.4 330.4 1232.3 327.8C1231.2 325.1 1230.9 322.2 1231.5 319.4C1232.1 316.6 1233.4 314 1235.5 312C1237.5 310 1240.1 308.6 1242.9 308C1245.7 307.4 1248.6 307.7 1251.3 308.8C1254 309.9 1256.2 311.8 1257.8 314.1C1259.4 316.5 1260.2 319.3 1260.2 322.2C1260.2 326.1 1258.7 329.7 1255.9 332.5C1253.3 335.2 1249.6 336.7 1245.7 336.7Z" fill="#AAE003"/>
<path d="M1205.7 309.1C1203.6 309.1 1201.6 308.5 1199.9 307.3C1198.2 306.1 1196.8 304.5 1196 302.6C1195.2 300.7 1195 298.6 1195.4 296.5C1195.8 294.5 1196.8 292.6 1198.3 291.1C1199.8 289.6 1201.6 288.6 1203.7 288.2C1205.7 287.8 1207.9 288 1209.8 288.8C1211.7 289.6 1213.4 290.9 1214.5 292.7C1215.7 294.4 1216.3 296.5 1216.3 298.5C1216.3 299.9 1216 301.3 1215.5 302.5C1215 303.7 1214.2 304.9 1213.2 305.9C1212.2 306.9 1211.1 307.7 1209.8 308.2C1208.4 308.8 1207.1 309.1 1205.7 309.1Z" fill="#AAE003"/>
<path d="M1266.2 370.6C1264.1 370.6 1262.1 370 1260.4 368.8C1258.7 367.6 1257.3 366 1256.5 364.1C1255.7 362.2 1255.5 360.1 1255.9 358C1256.3 355.9 1257.3 354.1 1258.8 352.6C1260.3 351.1 1262.1 350.1 1264.2 349.7C1266.2 349.3 1268.4 349.5 1270.3 350.3C1272.2 351.1 1273.9 352.4 1275 354.2C1276.2 355.9 1276.8 358 1276.8 360C1276.8 361.4 1276.5 362.7 1276 364C1275.5 365.3 1274.7 366.4 1273.7 367.4C1272.7 368.4 1271.6 369.2 1270.3 369.7C1268.9 370.3 1267.6 370.6 1266.2 370.6Z" fill="#AAE003"/>
<path d="M1284.8 269.5V64H1183.8V269.5H1284.8Z" fill="#E5E5E5"/>
<path d="M1276.9 94.4V76.2H1191.5V94.4H1276.9Z" fill="#DBDBDB"/>
<path d="M1276.9 125.2V107H1191.5V125.2H1276.9Z" fill="#DBDBDB"/>
<path d="M1276.9 198.8V134.2H1250.6V198.8H1276.9Z" fill="#DBDBDB"/>
<path d="M1276.9 226.5V208.3H1191.5V226.5H1276.9Z" fill="#DBDBDB"/>
<path d="M1276.9 257.3V239H1191.5V257.2H1276.9V257.3Z" fill="#DBDBDB"/>
<path d="M1218.8 199V134.4H1192.5V199H1218.8Z" fill="#DBDBDB"/>
<path d="M1629.1 381.3H1834.6V244.1H1629.1V381.3Z" fill="#E5E5E5"/>
<path d="M1804.2 341.3H1822.4V255.9H1804.2V341.3Z" fill="#DBDBDB"/>
<path d="M1773.4 341.3H1791.6V255.9H1773.4V341.3Z" fill="#DBDBDB"/>
<path d="M1699.9 341.3H1764.5V315H1699.9V341.3Z" fill="#DBDBDB"/>
<path d="M1672.1 341.3H1690.3V255.9H1672.1V341.3Z" fill="#DBDBDB"/>
<path d="M1642.7 351.8V370H1823.4V351.8H1642.7Z" fill="#DBDBDB"/>
<path d="M1641.3 341.3H1659.5V255.9H1641.3V341.3Z" fill="#DBDBDB"/>
<path d="M1699.6 283.2H1764.2V256.9H1699.6V283.2Z" fill="#DBDBDB"/>
<path d="M1175 195.6V0H1066V195.6H1175Z" fill="#AAE003"/>
<path d="M1161.5 48V13.7H1079.5V48H1161.5Z" fill="#A6CC02"/>
<path d="M1117.3 92.9V58.7H1079.5V92.9H1117.3Z" fill="#A6CC02"/>
<path d="M1161.5 92.9V58.7H1123.7V92.9H1161.5Z" fill="#A6CC02"/>
<path d="M1161.5 136.9V102.7H1079.5V136.9H1161.5Z" fill="#A6CC02"/>
<path d="M1117.3 181.8V147.6H1079.5V181.8H1117.3Z" fill="#A6CC02"/>
<path d="M1161.5 181.8V147.6H1123.7V181.8H1161.5Z" fill="#A6CC02"/>
<path d="M1620 381.4V0H1511V381.4H1620Z" fill="#AAE003"/>
<path d="M1606.5 48V13.7H1524.5V48H1606.5Z" fill="#A6CC02"/>
<path d="M1564.3 92.9V58.7H1526.5V92.9H1564.3Z" fill="#A6CC02"/>
<path d="M1606.5 92.9V58.7H1568.7V92.9H1606.5Z" fill="#A6CC02"/>
<path d="M1606.5 136.9V102.7H1524.5V136.9H1606.5Z" fill="#A6CC02"/>
<path d="M2020.5 44V9.69995H1929.3V44H2020.5Z" fill="#A6CC02"/>
<path d="M2020.5 117.7V83.4H1929.3V117.6H2020.5V117.7Z" fill="#A6CC02"/>
<path d="M1998.5 70.7V53.5H1948.6V70.6H1998.5V70.7Z" fill="#A6CC02"/>
<path d="M1564.3 181.8V147.6H1526.5V181.8H1564.3Z" fill="#A6CC02"/>
<path d="M1606.5 181.8V147.6H1568.7V181.8H1606.5Z" fill="#A6CC02"/>
<path d="M2146 56.6H2180.2V18.9H2146V56.6Z" fill="#A6CC02"/>
<path d="M2146 98.9H2180.2V61.1H2146V98.9Z" fill="#A6CC02"/>
<path d="M2146 184.7H2180.2V146.9H2146V184.7Z" fill="#A6CC02"/>
<path d="M2146 226.9H2180.2V189.1H2146V226.9Z" fill="#A6CC02"/>
<path d="M2146 322.9H2180.2V285.1H2146V322.9Z" fill="#A6CC02"/>
<path d="M2146 365.1H2180.2V327.3H2146V365.1Z" fill="#A6CC02"/>
<path d="M1103 292.5C1127.8 292.5 1152.4 297.8 1175 308.1V205.3H1066V296.5C1078.2 293.9 1090.6 292.5 1103 292.5Z" fill="#E5E5E5"/>
<path d="M1092.7 251.8C1092.7 246.3 1094.3 240.9 1097.4 236.3C1100.5 231.7 1104.8 228.2 1109.9 226C1115 223.9 1120.6 223.3 1126 224.4C1131.4 225.5 1136.4 228.1 1140.3 232C1144.2 235.9 1146.8 240.9 1147.9 246.3C1149 251.7 1148.4 257.3 1146.3 262.4C1144.2 267.5 1140.6 271.8 1136 274.9C1131.4 278 1126 279.6 1120.5 279.6C1113.1 279.6 1106 276.7 1100.8 271.4C1095.6 266.3 1092.7 259.2 1092.7 251.8ZM1141.4 251.8C1141.4 247.7 1140.2 243.7 1137.9 240.2C1135.6 236.8 1132.4 234.1 1128.6 232.5C1124.8 230.9 1120.6 230.5 1116.6 231.3C1112.6 232.1 1108.8 234.1 1105.9 237C1103 239.9 1101 243.6 1100.2 247.7C1099.4 251.7 1099.8 255.9 1101.4 259.7C1103 263.5 1105.7 266.8 1109.1 269C1112.5 271.3 1116.6 272.5 1120.7 272.5C1126.2 272.5 1131.5 270.3 1135.4 266.4C1139.2 262.6 1141.4 257.3 1141.4 251.8Z" fill="#DBDBDB"/>
<path d="M1175 255.3V248.3H1145.5V255.3H1175Z" fill="#DBDBDB"/>
<path d="M1095.6 255.3V248.3H1066V255.3H1095.6Z" fill="#DBDBDB"/>
<path d="M1124 228V205.3H1117V228H1124Z" fill="#DBDBDB"/>
<path d="M1117 274.5H1124V293.8L1117 293.1V274.5Z" fill="#DBDBDB"/>
<path d="M1161.5 223.9C1160.2 223.9 1158.9 223.5 1157.9 222.8C1156.8 222.1 1156 221.1 1155.5 219.9C1155 218.7 1154.9 217.4 1155.1 216.1C1155.4 214.8 1156 213.7 1156.9 212.8C1157.8 211.9 1159 211.3 1160.2 211C1161.4 210.7 1162.8 210.9 1164 211.4C1165.2 211.9 1166.2 212.7 1166.9 213.8C1167.6 214.9 1168 216.1 1168 217.4C1168 219.1 1167.3 220.8 1166.1 222C1164.9 223.2 1163.3 223.9 1161.5 223.9Z" fill="#AAE003"/>
<path d="M1161.5 294.6C1160.2 294.6 1158.9 294.2 1157.9 293.5C1156.8 292.8 1156 291.8 1155.5 290.6C1155 289.4 1154.9 288.1 1155.1 286.8C1155.4 285.5 1156 284.4 1156.9 283.5C1157.8 282.6 1159 282 1160.2 281.7C1161.5 281.4 1162.8 281.6 1164 282.1C1165.2 282.6 1166.2 283.4 1166.9 284.5C1167.6 285.6 1168 286.8 1168 288.1C1168 289.8 1167.3 291.5 1166.1 292.7C1164.9 293.9 1163.3 294.6 1161.5 294.6Z" fill="#AAE003"/>
<path d="M1080.8 223.9C1079.5 223.9 1078.2 223.5 1077.2 222.8C1076.1 222.1 1075.3 221.1 1074.8 219.9C1074.3 218.7 1074.2 217.4 1074.4 216.1C1074.7 214.8 1075.3 213.7 1076.2 212.8C1077.1 211.9 1078.3 211.3 1079.5 211C1080.8 210.7 1082.1 210.9 1083.3 211.4C1084.5 211.9 1085.5 212.7 1086.2 213.8C1086.9 214.9 1087.3 216.1 1087.3 217.4C1087.3 219.1 1086.6 220.8 1085.4 222C1084.2 223.2 1082.5 223.9 1080.8 223.9Z" fill="#AAE003"/>
<path d="M1080.8 286.2C1079.5 286.2 1078.2 285.8 1077.2 285.1C1076.1 284.4 1075.3 283.4 1074.8 282.2C1074.3 281 1074.2 279.7 1074.4 278.4C1074.7 277.1 1075.3 276 1076.2 275.1C1077.1 274.2 1078.3 273.6 1079.5 273.3C1080.8 273 1082.1 273.2 1083.3 273.7C1084.5 274.2 1085.5 275 1086.2 276.1C1086.9 277.2 1087.3 278.4 1087.3 279.7C1087.3 281.4 1086.6 283.1 1085.4 284.3C1084.2 285.5 1082.5 286.2 1080.8 286.2Z" fill="#AAE003"/>
<path d="M1057.1 195.4V0H857.8V195.4H1057.1Z" fill="#E5E5E5"/>
<path d="M1004.3 143.6V51.8H910.6V143.7H1004.3V143.6Z" fill="#DBDBDB"/>
<path d="M977.4 89.4001C974.3 89.4001 971.2 88.5 968.6 86.7C966 85 964 82.5 962.8 79.6C961.6 76.7 961.3 73.5 961.9 70.5C962.5 67.4 964 64.6001 966.2 62.4001C968.4 60.2001 971.2 58.7 974.3 58.1C977.4 57.5 980.5 57.8 983.4 59C986.3 60.2 988.8 62.2001 990.5 64.8001C992.2 67.4001 993.2 70.5 993.2 73.6C993.2 75.7 992.8 77.7 992 79.7C991.2 81.6 990 83.4001 988.6 84.8001C987.1 86.3001 985.4 87.4 983.5 88.2C981.6 89 979.5 89.4001 977.4 89.4001Z" fill="#AAE003"/>
<path d="M977.4 137.6C974.3 137.6 971.2 136.7 968.6 134.9C966 133.2 964 130.7 962.8 127.8C961.6 124.9 961.3 121.7 961.9 118.7C962.5 115.6 964 112.8 966.2 110.6C968.4 108.4 971.2 106.9 974.3 106.3C977.4 105.7 980.5 106 983.4 107.2C986.3 108.4 988.8 110.4 990.5 113C992.2 115.6 993.2 118.7 993.2 121.8C993.2 123.9 992.8 125.9 992 127.9C991.2 129.8 990 131.6 988.6 133C987.1 134.5 985.4 135.6 983.5 136.4C981.6 137.2 979.5 137.6 977.4 137.6Z" fill="#AAE003"/>
<path d="M937.4 89.4001C934.3 89.4001 931.2 88.5 928.6 86.7C926 85 924 82.5 922.8 79.6C921.6 76.7 921.3 73.5 921.9 70.5C922.5 67.4 924 64.6001 926.2 62.4001C928.4 60.2001 931.2 58.7 934.3 58.1C937.4 57.5 940.5 57.8 943.4 59C946.3 60.2 948.8 62.2001 950.5 64.8001C952.2 67.4001 953.2 70.5 953.2 73.6C953.2 75.7 952.8 77.7 952 79.7C951.2 81.6 950 83.4001 948.6 84.8001C947.1 86.3001 945.4 87.4 943.5 88.2C941.6 89 939.5 89.4001 937.4 89.4001Z" fill="#AAE003"/>
<path d="M937.4 137.6C934.3 137.6 931.2 136.7 928.6 134.9C926 133.2 924 130.7 922.8 127.8C921.6 124.9 921.3 121.7 921.9 118.7C922.5 115.6 924 112.8 926.2 110.6C928.4 108.4 931.2 106.9 934.3 106.3C937.4 105.7 940.5 106 943.4 107.2C946.3 108.4 948.8 110.4 950.5 113C952.2 115.6 953.2 118.7 953.2 121.8C953.2 123.9 952.8 125.9 952 127.9C951.2 129.8 950 131.6 948.6 133C947.1 134.5 945.4 135.6 943.5 136.4C941.6 137.2 939.5 137.6 937.4 137.6Z" fill="#AAE003"/>
<path d="M988.8 31.1V16.8H1040.1V72.2H1025.8V31.1H988.8Z" fill="#DBDBDB"/>
<path d="M988.8 164.3V178.6H1040.1V123.2H1025.8V164.3H988.8Z" fill="#DBDBDB"/>
<path d="M926 164.3V178.6H874.7V123.2H889V164.3H926Z" fill="#DBDBDB"/>
<path d="M926 31.1V16.8H874.7V72.2H889V31.1H926Z" fill="#DBDBDB"/>
<path d="M1057.1 205.3V298C1057.1 298 977 318 946 382.5H857.8V205.3H1057.1Z" fill="#E5E5E5"/>
<path d="M970.9 317.7C977 323 986.1 322.3 991.4 316.3C996.7 310.2 996 301.1 990 295.8C983.9 290.5 974.8 291.2 969.5 297.2C964.2 303.2 964.8 312.4 970.9 317.7Z" fill="#AAE003"/>
<path d="M1027.8 293.7C1025.7 293.7 1023.7 293.1 1022 291.9C1020.3 290.7 1018.9 289.1 1018.1 287.2C1017.3 285.3 1017.1 283.2 1017.5 281.1C1017.9 279.1 1018.9 277.2 1020.4 275.7C1021.9 274.2 1023.7 273.2 1025.8 272.8C1027.8 272.4 1030 272.6 1031.9 273.4C1033.8 274.2 1035.5 275.5 1036.6 277.3C1037.8 279 1038.4 281.1 1038.4 283.1C1038.4 285.9 1037.3 288.6 1035.3 290.5C1033.2 292.6 1030.6 293.7 1027.8 293.7Z" fill="#AAE003"/>
<path d="M938.3 357.5C942.4 361.6 949.1 361.6 953.2 357.5C957.3 353.4 957.3 346.7 953.2 342.6C949.1 338.5 942.4 338.5 938.3 342.6C934.2 346.8 934.2 353.4 938.3 357.5Z" fill="#AAE003"/>
<path d="M1043.1 247.3V216.4H960.5V247.3H1043.1Z" fill="#AAE003"/>
<path d="M951 316V215.7H929V316H951Z" fill="#DBDBDB"/>
<path d="M921 371.5V215.7H899V371.5H921Z" fill="#DBDBDB"/>
<path d="M891 371.5V215.7H869V371.5H891Z" fill="#DBDBDB"/>
<path d="M1001.7 273.6V258.1H960.4V273.6H1001.7Z" fill="#AAE003"/>
<path d="M1284.8 52.1V0H1183.8V52.1H1284.8Z" fill="#E5E5E5"/>
<path d="M849.5 382.5V0H748.5V382.5H849.5Z" fill="#E5E5E5"/>
<path d="M812 177.3C808.3 177.3 805.2 173.7 805.2 169.4V84.7C805.2 80.4 808.3 76.8 812 76.8C815.7 76.8 818.8 80.3 818.8 84.7V169.4C818.8 173.7 815.8 177.3 812 177.3Z" fill="#00BCD5"/>
<path d="M798.4 142.8C802.1 142.8 805.2 146.4 805.2 150.7V97.1C805.2 101.4 802.1 105 798.4 105C794.7 105 791.6 101.4 791.6 97.1V150.6C791.6 146.3 794.7 142.8 798.4 142.8Z" fill="#00BCD5"/>
<path d="M784.8 157C781.1 157 778 153.4 778 149.1V64.4C778 60.1 781.1 56.5 784.8 56.5C788.5 56.5 791.6 60 791.6 64.4V149.1C791.6 153.4 788.6 157 784.8 157Z" fill="#00BCD5"/>
<path d="M769.2 274.5C769.2 290.7 782.3 303.8 798.5 303.8C814.7 303.8 827.8 290.7 827.8 274.5C827.8 258.3 814.7 245.3 798.5 245.3C782.3 245.3 769.2 258.4 769.2 274.5Z" fill="#DBDBDB"/>
<path d="M786.6 287.3C793.7 294.4 805.1 294.4 812.2 287.3C819.3 280.2 819.3 268.8 812.2 261.7C805.1 254.6 793.7 254.6 786.6 261.7C779.6 268.8 779.6 280.3 786.6 287.3Z" fill="#00BCD5"/>
<path d="M799.3 286.2C805.8 286.3 811.1 281.1 811.1 274.6C811.2 268.1 806 262.8 799.6 262.8C793.1 262.7 787.8 267.9 787.8 274.3C787.7 280.8 792.9 286.1 799.3 286.2Z" fill="#61ECF7"/>
<path d="M760.7 29.1C764.8 33.2 771.5 33.2 775.6 29.1C779.7 25 779.7 18.3 775.6 14.2C771.5 10.1 764.8 10.1 760.7 14.2C756.6 18.3 756.6 25 760.7 29.1Z" fill="#AAE003"/>
<path d="M820.3 21.7C820.3 27.5 825 32.2 830.8 32.2C836.6 32.2 841.3 27.5 841.3 21.7C841.3 15.9 836.6 11.2 830.8 11.2C825 11.2 820.3 15.9 820.3 21.7Z" fill="#AAE003"/>
<path d="M760.7 369.4C764.8 373.5 771.5 373.5 775.6 369.4C779.7 365.3 779.7 358.6 775.6 354.5C771.5 350.4 764.8 350.4 760.7 354.5C756.6 358.6 756.6 365.3 760.7 369.4Z" fill="#AAE003"/>
<path d="M820.3 361.9C820.3 367.7 825 372.4 830.8 372.4C836.6 372.4 841.3 367.7 841.3 361.9C841.3 356.1 836.6 351.4 830.8 351.4C825 351.4 820.3 356.1 820.3 361.9Z" fill="#AAE003"/>
<path d="M769.2 184.4V46.8H758.5V184.4H769.2V184.4Z" fill="#DBDBDB"/>
<path d="M839.3 184.4V46.8H828.6V184.4H839.3V184.4Z" fill="#DBDBDB"/>
<path d="M839.3 335.1V197.5H828.6V335.1H839.3Z" fill="#DBDBDB"/>
<path d="M769.2 335.1V197.5H758.5V335.1H769.2Z" fill="#DBDBDB"/>
<path d="M1629.1 235.9H2011.6V134.9H1629.1V235.9Z" fill="#E5E5E5"/>
<path d="M1834.4 198.4C1834.4 194.7 1837.9 191.6 1842.3 191.6H1927C1931.3 191.6 1934.9 194.7 1934.9 198.4C1934.9 202.1 1931.4 205.2 1927 205.2H1842.3C1837.9 205.2 1834.4 202.1 1834.4 198.4Z" fill="#00BCD5"/>
<path d="M1868.9 184.8C1868.9 188.5 1865.3 191.6 1861 191.6H1914.5C1910.2 191.6 1906.6 188.5 1906.6 184.8C1906.6 181.1 1910.2 178 1914.5 178H1861C1865.3 178 1868.9 181 1868.9 184.8Z" fill="#00BCD5"/>
<path d="M1854.6 171.2C1854.6 167.5 1858.2 164.4 1862.5 164.4H1947.2C1951.5 164.4 1955.1 167.5 1955.1 171.2C1955.1 174.9 1951.6 178 1947.2 178H1862.5C1858.2 178 1854.6 174.9 1854.6 171.2Z" fill="#00BCD5"/>
<path d="M1737.1 155.5C1720.9 155.5 1707.8 168.6 1707.8 184.8C1707.8 201 1720.9 214.1 1737.1 214.1C1753.3 214.1 1766.4 201 1766.4 184.8C1766.4 168.6 1753.3 155.5 1737.1 155.5Z" fill="#DBDBDB"/>
<path d="M1724.3 173C1717.2 180.1 1717.2 191.5 1724.3 198.6C1731.4 205.7 1742.8 205.7 1749.9 198.6C1757 191.5 1757 180.1 1749.9 173C1742.8 165.9 1731.4 165.9 1724.3 173Z" fill="#00BCD5"/>
<path d="M1725.4 185.7C1725.3 192.2 1730.5 197.5 1737 197.5C1743.5 197.6 1748.8 192.4 1748.8 186C1748.9 179.5 1743.7 174.2 1737.3 174.2C1730.8 174 1725.5 179.2 1725.4 185.7Z" fill="#61ECF7"/>
<path d="M1982.6 147.1C1978.5 151.2 1978.5 157.9 1982.6 162C1986.7 166.1 1993.4 166.1 1997.5 162C2001.6 157.9 2001.6 151.2 1997.5 147.1C1993.3 143 1986.7 143 1982.6 147.1Z" fill="#AAE003"/>
<path d="M2155.7 116.5C2151.6 120.6 2151.6 127.3 2155.7 131.4C2159.8 135.5 2166.5 135.5 2170.6 131.4C2174.7 127.3 2174.7 120.6 2170.6 116.5C2166.5 112.4 2159.8 112.3 2155.7 116.5Z" fill="#A6CC02"/>
<path d="M2155.7 250.7C2151.6 254.8 2151.6 261.5 2155.7 265.6C2159.8 269.7 2166.5 269.7 2170.6 265.6C2174.7 261.5 2174.7 254.8 2170.6 250.7C2166.5 246.6 2159.8 246.6 2155.7 250.7Z" fill="#A6CC02"/>
<path d="M1990 206.6C1984.2 206.6 1979.5 211.3 1979.5 217.1C1979.5 222.9 1984.2 227.6 1990 227.6C1995.8 227.6 2000.5 222.9 2000.5 217.1C2000.5 211.3 1995.8 206.6 1990 206.6Z" fill="#AAE003"/>
<path d="M1642.3 147.1C1638.2 151.2 1638.2 157.9 1642.3 162C1646.4 166.1 1653.1 166.1 1657.2 162C1661.3 157.9 1661.3 151.2 1657.2 147.1C1653 143 1646.4 143 1642.3 147.1Z" fill="#AAE003"/>
<path d="M1649.7 206.6C1643.9 206.6 1639.2 211.3 1639.2 217.1C1639.2 222.9 1643.9 227.6 1649.7 227.6C1655.5 227.6 1660.2 222.9 1660.2 217.1C1660.2 211.3 1655.5 206.6 1649.7 206.6Z" fill="#AAE003"/>
<path d="M1827.3 155.5H1964.9V144.8H1827.3V155.5Z" fill="#DBDBDB"/>
<path d="M1827.3 225.7H1964.9V215H1827.3V225.7Z" fill="#DBDBDB"/>
<path d="M1676.6 225.7H1814.2V215H1676.6V225.7Z" fill="#DBDBDB"/>
<path d="M1676.6 155.5H1814.2V144.8H1676.6V155.5Z" fill="#DBDBDB"/>
<path d="M740.8 187.1V0H703V187.1H740.8Z" fill="#E5E5E5"/>
<path d="M734.9 37.9V7.09998H708.8V37.9H734.9Z" fill="#DBDBDB"/>
<path d="M734.9 103.1V44.4H708.8V103H734.9V103.1Z" fill="#DBDBDB"/>
<path d="M734.9 140.1V109.3H708.8V140.1H734.9Z" fill="#DBDBDB"/>
<path d="M734.9 179.9V146.3H708.8V179.9H734.9Z" fill="#DBDBDB"/>
<path d="M740.8 382.5V195.4H703V382.5H740.8Z" fill="#E5E5E5"/>
<path d="M734.9 233.3V202.5H708.8V233.3H734.9Z" fill="#DBDBDB"/>
<path d="M734.9 298.5V239.9H708.8V298.5H734.9Z" fill="#DBDBDB"/>
<path d="M734.9 335.5V304.7H708.8V335.5H734.9Z" fill="#DBDBDB"/>
<path d="M734.9 375.4V341.8H708.8V375.4H734.9Z" fill="#DBDBDB"/>
<path d="M487.3 270V64.5H277.7V270H487.3Z" fill="#E5E5E5"/>
<path d="M292.2 102C289.5 99.3 287.9 95.6 287.9 91.7C287.9 88.8 288.8 86 290.3 83.6C291.9 81.2 294.2 79.4 296.8 78.3C299.5 77.2 302.4 76.9 305.2 77.5C308 78.1 310.6 79.4 312.6 81.5C314.6 83.5 316 86.1 316.6 88.9C317.2 91.7 316.9 94.6 315.8 97.3C314.7 100 312.8 102.2 310.5 103.8C308.2 105.4 305.3 106.2 302.4 106.2C298.7 106.3 295 104.7 292.2 102Z" fill="#AAE003"/>
<path d="M297 256.2C295.2 255.5 293.6 254.4 292.3 253.1C291 251.8 289.9 250.2 289.2 248.4C288.5 246.6 288.1 244.8 288.1 242.8C288.1 239.9 289 237.1 290.5 234.7C292.1 232.3 294.4 230.5 297 229.4C299.7 228.3 302.6 228 305.4 228.6C308.2 229.2 310.8 230.5 312.8 232.6C314.8 234.6 316.2 237.2 316.8 240C317.4 242.8 317.1 245.7 316 248.4C314.9 251.1 313 253.3 310.7 254.9C308.4 256.5 305.5 257.3 302.6 257.3C300.6 257.3 298.7 256.9 297 256.2Z" fill="#AAE003"/>
<path d="M452.2 102C449.5 99.3 447.9 95.6 447.9 91.7C447.9 88.8 448.8 86 450.3 83.6C451.9 81.2 454.2 79.4 456.8 78.3C459.5 77.2 462.4 76.9 465.2 77.5C468 78.1 470.6 79.4 472.6 81.5C474.6 83.5 476 86.1 476.6 88.9C477.2 91.7 476.9 94.6 475.8 97.3C474.7 100 472.8 102.2 470.5 103.8C468.2 105.4 465.3 106.2 462.4 106.2C458.6 106.3 454.9 104.7 452.2 102Z" fill="#AAE003"/>
<path d="M456.9 256.2C455.1 255.5 453.5 254.4 452.2 253.1C450.9 251.8 449.8 250.2 449.1 248.4C448.4 246.6 448 244.8 448 242.8C448 239.9 448.9 237.1 450.4 234.7C452 232.3 454.3 230.5 456.9 229.4C459.6 228.3 462.5 228 465.3 228.6C468.1 229.2 470.7 230.5 472.7 232.6C474.7 234.6 476.1 237.2 476.7 240C477.3 242.8 477 245.7 475.9 248.4C474.8 251.1 472.9 253.3 470.6 254.9C468.3 256.5 465.4 257.3 462.5 257.3C460.6 257.3 458.7 256.9 456.9 256.2Z" fill="#AAE003"/>
<path d="M436.4 101.1V82.4H328.6V101H436.4V101.1Z" fill="#DBDBDB"/>
<path d="M436.3 252.1V233.5H328.6V252.1H436.3Z" fill="#DBDBDB"/>
<path d="M311.8 221.1V113.4H293.2V221.1H311.8Z" fill="#DBDBDB"/>
<path d="M471.8 221.1V113.4H453.2V221.1H471.8Z" fill="#DBDBDB"/>
<path d="M433.1 157.8C427.9 129.8 401 111.4 373 116.6C345 121.8 326.6 148.7 331.8 176.7C337 204.7 363.9 223.1 391.9 217.9C419.9 212.7 438.3 185.8 433.1 157.8Z" fill="#DBDBDB"/>
<path d="M362.1 187.7C356.7 182.3 353.7 174.9 353.7 167.3C353.7 161.6 355.4 156 358.6 151.3C361.8 146.6 366.3 142.9 371.6 140.7C376.9 138.5 382.7 138 388.3 139.1C393.9 140.2 399 143 403.1 147C407.1 151 409.9 156.2 411 161.8C412.1 167.4 411.5 173.2 409.3 178.5C407.1 183.8 403.4 188.3 398.7 191.4C393.9 194.6 388.4 196.2 382.7 196.2C374.9 196.1 367.5 193.1 362.1 187.7Z" fill="#00BCD5"/>
<path d="M370.4 179.4C367.2 176.2 365.4 171.8 365.4 167.2C365.4 163.8 366.4 160.5 368.3 157.6C370.2 154.8 372.9 152.6 376 151.3C379.1 150 382.6 149.7 385.9 150.3C389.2 150.9 392.3 152.6 394.7 155C397.1 157.4 398.7 160.5 399.4 163.8C400.1 167.1 399.7 170.6 398.4 173.7C397.1 176.8 394.9 179.5 392.1 181.4C389.3 183.3 385.9 184.3 382.5 184.3C377.9 184.4 373.6 182.6 370.4 179.4Z" fill="#61ECF7"/>
<path d="M487.3 52.6V0.5H277.7V52.6H487.3Z" fill="#E5E5E5"/>
<path d="M320.1 44.6V8.59998H285.6V44.6H320.1Z" fill="#DBDBDB"/>
<path d="M393.2 44.6V8.59998H327.5V44.6H393.2Z" fill="#DBDBDB"/>
<path d="M434.6 44.6V8.59998H400.1V44.6H434.6Z" fill="#DBDBDB"/>
<path d="M479.3 44.6V8.59998H441.6V44.6H479.3Z" fill="#DBDBDB"/>
<path d="M376.3 382V282.5H277.7V382H376.3Z" fill="#E5E5E5"/>
<path d="M354.8 360V304.4H299.2V360H354.8Z" fill="#DBDBDB"/>
<path d="M293 296.4V319.4H285V288.4H313.7V296.4H293Z" fill="#DBDBDB"/>
<path d="M293 368.1V345.1H285V376.1H313.7V368.1H293Z" fill="#DBDBDB"/>
<path d="M361 368.1V345.1H369V376.1H340.3V368.1H361Z" fill="#DBDBDB"/>
<path d="M361 296.4V319.4H369V288.4H340.3V296.4H361Z" fill="#DBDBDB"/>
<path d="M487.4 381.8V282.3H388.8V381.8H487.4Z" fill="#E5E5E5"/>
<path d="M409.6 375.9V288.2H397.1V375.9H409.6Z" fill="#DBDBDB"/>
<path d="M433.5 375.9V288.2H421V375.9H433.5Z" fill="#DBDBDB"/>
<path d="M455.2 375.9V288.2H442.7V375.9H455.2Z" fill="#DBDBDB"/>
<path d="M479.1 375.9V288.2H466.6V375.9H479.1Z" fill="#DBDBDB"/>
<path d="M225 382.5V0H124V382.5H225Z" fill="#E5E5E5"/>
<path d="M154.7 169.4V84.7C154.7 80.4 157.8 76.8 161.5 76.8C165.2 76.8 168.3 80.3 168.3 84.7V169.4C168.3 173.7 165.2 177.3 161.5 177.3C157.7 177.3 154.7 173.7 154.7 169.4Z" fill="#00BCD5"/>
<path d="M181.9 150.7V97.1C181.9 101.4 178.8 105 175.1 105C171.4 105 168.3 101.4 168.3 97.1V150.6C168.3 146.3 171.4 142.7 175.1 142.7C178.8 142.8 181.9 146.3 181.9 150.7Z" fill="#00BCD5"/>
<path d="M181.9 149.1V64.4C181.9 60.1 184.9 56.5 188.7 56.5C192.5 56.5 195.5 60 195.5 64.4V149.1C195.5 153.4 192.4 157 188.7 157C184.9 157 181.9 153.4 181.9 149.1Z" fill="#00BCD5"/>
<path d="M175.1 245.3C158.9 245.3 145.8 258.4 145.8 274.5C145.8 290.7 158.9 303.8 175.1 303.8C191.3 303.8 204.4 290.7 204.4 274.5C204.3 258.4 191.2 245.3 175.1 245.3Z" fill="#DBDBDB"/>
<path d="M186.8 261.8C179.7 254.7 168.3 254.7 161.2 261.8C154.1 268.9 154.1 280.3 161.2 287.4C168.3 294.5 179.7 294.5 186.8 287.4C193.9 280.3 193.9 268.8 186.8 261.8Z" fill="#00BCD5"/>
<path d="M185.7 274.4C185.6 267.9 180.3 262.8 173.9 262.9C167.4 263 162.3 268.3 162.4 274.7C162.5 281.2 167.8 286.3 174.2 286.3C180.6 286.1 185.8 280.8 185.7 274.4Z" fill="#61ECF7"/>
<path d="M212.8 14.2C208.7 10.1 202 10.1 197.9 14.2C193.8 18.3 193.8 25 197.9 29.1C202 33.2 208.7 33.2 212.8 29.1C216.9 25 216.9 18.3 212.8 14.2Z" fill="#AAE003"/>
<path d="M142.7 11.1C136.9 11.1 132.2 15.8 132.2 21.6C132.2 27.4 136.9 32.1 142.7 32.1C148.5 32.1 153.2 27.4 153.2 21.6C153.2 15.9 148.5 11.1 142.7 11.1Z" fill="#AAE003"/>
<path d="M212.7 354.5C208.6 350.4 201.9 350.4 197.8 354.5C193.7 358.6 193.7 365.3 197.8 369.4C201.9 373.5 208.6 373.5 212.7 369.4C216.9 365.3 216.9 358.6 212.7 354.5Z" fill="#AAE003"/>
<path d="M142.7 351.4C136.9 351.4 132.2 356.1 132.2 361.9C132.2 367.7 136.9 372.4 142.7 372.4C148.5 372.4 153.2 367.7 153.2 361.9C153.2 356.1 148.5 351.4 142.7 351.4Z" fill="#AAE003"/>
<path d="M215 184.4V46.8H204.3V184.4H215V184.4Z" fill="#DBDBDB"/>
<path d="M144.8 184.4V46.8H134.1V184.4H144.8V184.4Z" fill="#DBDBDB"/>
<path d="M144.8 335.1V197.5H134.1V335.1H144.8Z" fill="#DBDBDB"/>
<path d="M215 335.1V197.5H204.3V335.1H215Z" fill="#DBDBDB"/>
<path d="M270.5 187.1V0H232.7V187.1H270.5Z" fill="#E5E5E5"/>
<path d="M264.7 37.9V7.09998H238.6V37.9H264.7Z" fill="#DBDBDB"/>
<path d="M264.7 103.1V44.5H238.6V103.1H264.7Z" fill="#DBDBDB"/>
<path d="M264.7 140.1V109.3H238.6V140.1H264.7Z" fill="#DBDBDB"/>
<path d="M264.7 179.9V146.3H238.6V179.9H264.7Z" fill="#DBDBDB"/>
<path d="M270.5 382.5V195.4H232.7V382.5H270.5Z" fill="#E5E5E5"/>
<path d="M264.7 233.3V202.5H238.6V233.3H264.7Z" fill="#DBDBDB"/>
<path d="M264.7 298.5V239.9H238.6V298.5H264.7Z" fill="#DBDBDB"/>
<path d="M264.7 335.5V304.7H238.6V335.5H264.7Z" fill="#DBDBDB"/>
<path d="M264.7 375.4V341.8H238.6V375.4H264.7Z" fill="#DBDBDB"/>
<path d="M1147.6 496.2C1147.6 490.1 1146.4 484.1 1143.9 478.6C1141.4 473.1 1137.8 468.1 1133.2 464.1C1128.6 460.1 1123.3 457.1 1117.5 455.4C1111.7 453.7 1105.6 453.2 1099.6 454C1093.6 454.8 1087.8 456.9 1082.7 460.2C1077.6 463.4 1073.2 467.8 1069.9 472.8C1066.6 477.9 1064.4 483.6 1063.5 489.6C1062.6 495.6 1063 501.7 1064.7 507.6C1064.7 507.6 1068.6 533.1 1105.3 573.2C1139.2 538.6 1146.2 507.8 1146.2 507.8C1147.1 504 1147.7 500.1 1147.6 496.2ZM1105.3 479.4C1108.6 479.4 1111.8 480.4 1114.6 482.2C1117.3 484 1119.5 486.7 1120.8 489.7C1122.1 492.8 1122.4 496.1 1121.7 499.4C1121 502.7 1119.5 505.6 1117.1 508C1114.8 510.3 1111.8 511.9 1108.5 512.6C1105.3 513.2 1101.9 512.9 1098.8 511.6C1095.7 510.3 1093.1 508.2 1091.3 505.4C1089.5 502.6 1088.5 499.4 1088.5 496.1C1088.5 491.7 1090.3 487.4 1093.4 484.3C1096.6 481.2 1100.8 479.4 1105.3 479.4Z" fill="#AAE003"/>
<path d="M825.9 432.6H798.9V440.6H825.9V432.6Z" fill="white"/>
<path d="M772 432.6H745V440.6H772V432.6Z" fill="white"/>
<path d="M933.8 432.6H906.8V440.6H933.8V432.6Z" fill="white"/>
<path d="M879.9 432.6H852.9V440.6H879.9V432.6Z" fill="white"/>
<path d="M555 432.6H528V440.6H555V432.6Z" fill="white"/>
<path d="M608.9 432.6H581.9V440.6H608.9V432.6Z" fill="white"/>
<path d="M716.8 432.6H689.8V440.6H716.8V432.6Z" fill="white"/>
<path d="M662.9 432.6H635.9V440.6H662.9V432.6Z" fill="white"/>
<path d="M395.2 432.6H368.2V440.6H395.2V432.6Z" fill="white"/>
<path d="M341.2 432.6H314.2V440.6H341.2V432.6Z" fill="white"/>
<path d="M503 432.6H476V440.6H503V432.6Z" fill="white"/>
<path d="M449.1 432.6H422.1V440.6H449.1V432.6Z" fill="white"/>
<path d="M78.9 432.6H51.9V440.6H78.9V432.6Z" fill="white"/>
<path d="M123.5 432.6H96.5V440.6H123.5V432.6Z" fill="white"/>
<path d="M27 432.6H0V440.6H27V432.6Z" fill="white"/>
<path d="M177.4 432.6H150.4V440.6H177.4V432.6Z" fill="white"/>
<path d="M285.2 432.6H258.2V440.6H285.2V432.6Z" fill="white"/>
<path d="M231.3 432.6H204.3V440.6H231.3V432.6Z" fill="white"/>
<path d="M2093.1 432.6H2066.1V440.6H2093.1V432.6Z" fill="white"/>
<path d="M2039.2 432.6H2012.2V440.6H2039.2V432.6Z" fill="white"/>
<path d="M2201 432.6H2174V440.6H2201V432.6Z" fill="white"/>
<path d="M2147 432.6H2120V440.6H2147V432.6Z" fill="white"/>
<path d="M1822.2 432.6H1795.2V440.6H1822.2V432.6Z" fill="white"/>
<path d="M1876.1 432.6H1849.1V440.6H1876.1V432.6Z" fill="white"/>
<path d="M1984 432.6H1957V440.6H1984V432.6Z" fill="white"/>
<path d="M1930 432.6H1903V440.6H1930V432.6Z" fill="white"/>
<path d="M1662.3 432.6H1635.3V440.6H1662.3V432.6Z" fill="white"/>
<path d="M1608.4 432.6H1581.4V440.6H1608.4V432.6Z" fill="white"/>
<path d="M1770.2 432.6H1743.2V440.6H1770.2V432.6Z" fill="white"/>
<path d="M1716.3 432.6H1689.3V440.6H1716.3V432.6Z" fill="white"/>
<path d="M1346.1 432.6H1319.1V440.6H1346.1V432.6Z" fill="white"/>
<path d="M1390.6 432.6H1363.6V440.6H1390.6V432.6Z" fill="white"/>
<path d="M1294.2 432.6H1267.2V440.6H1294.2V432.6Z" fill="white"/>
<path d="M1444.6 432.6H1417.6V440.6H1444.6V432.6Z" fill="white"/>
<path d="M1552.4 432.6H1525.4V440.6H1552.4V432.6Z" fill="white"/>
<path d="M1498.5 432.6H1471.5V440.6H1498.5V432.6Z" fill="white"/>
<path d="M1273 0V24.5C1273 28.7 1269.6 32.2 1265.3 32.2H1265.2C1261 32.2 1257.5 28.8 1257.5 24.5V23.2C1257.5 18.9 1254 15.4 1249.7 15.4C1245.4 15.4 1241.9 18.9 1241.9 23.2V40.3C1241.9 44.5 1238.5 48 1234.2 48H1233.9C1229.7 48 1226.2 44.6 1226.2 40.3V12.2C1226.2 7.9 1222.7 4.4 1218.4 4.4C1214.1 4.4 1210.6 7.9 1210.6 12.2V14.6C1210.6 18.8 1207.2 22.3 1202.9 22.3C1198.7 22.3 1195.2 18.9 1195.2 14.6V0H1273Z" fill="#00BCD5"/>
<path d="M1606.4 195.4H1524.5V366.4H1606.4V195.4Z" fill="#A6CC02"/>
<path d="M2133 9.69995H2031.7V225.6H2133V9.69995Z" fill="#A6CC02"/>
<path d="M116.4 382.3V0.900024H7.39999V382.3H116.4V382.3Z" fill="#AAE003"/>
<path d="M102.9 48.8V14.6H20.9V48.8H102.9V48.8Z" fill="#A6CC02"/>
<path d="M60.7 93.8V59.5H22.9V93.7H60.7V93.8Z" fill="#A6CC02"/>
<path d="M102.9 93.8V59.5H65.2V93.7H102.9V93.8Z" fill="#A6CC02"/>
<path d="M102.9 137.7V103.5H20.9V137.7H102.9Z" fill="#A6CC02"/>
<path d="M60.7 182.7V148.5H22.9V182.7H60.7Z" fill="#A6CC02"/>
<path d="M102.9 182.7V148.5H65.2V182.7H102.9Z" fill="#A6CC02"/>
<path d="M102.8 196.3H20.9V367.3H102.8V196.3Z" fill="#A6CC02"/>
</g>
<defs>
<clipPath id="clip0">
<rect width="2207" height="573.1" fill="white"/>
</clipPath>
</defs>
</svg>
