<svg width="593" height="574" viewBox="0 0 593 574" fill="none" xmlns="http://www.w3.org/2000/svg">
<path d="M198.693 23.7939C200.772 23.7939 202.946 24.172 205.403 25.0229C210.128 26.5355 212.113 32.3022 209.183 36.3673C184.518 70.4952 188.865 108.594 195.953 147.732C196.614 151.419 199.827 154.066 203.418 154.066C204.174 154.066 205.025 153.971 205.781 153.688C207.766 153.026 209.656 152.648 211.451 152.648C215.704 152.648 219.673 154.822 223.17 160.778C224.682 163.331 228.935 164.843 232.242 165.694C241.126 168.057 247.174 170.988 247.363 182.522C247.458 188.194 253.506 193.866 260.783 197.364C265.413 199.538 270.517 200.956 274.958 200.956C277.699 200.956 280.251 200.484 282.235 199.349C283.275 198.782 284.314 198.12 285.354 197.459C294.804 191.503 303.404 183.656 313.611 179.402C321.077 176.282 331.283 172.406 339.033 172.406C341.773 172.406 344.136 172.879 346.026 174.013C353.87 178.74 360.863 180.631 367.479 180.631C382.505 180.631 394.885 170.515 407.832 161.629C413.124 157.942 416.904 152.081 422.197 148.299C424.181 146.881 427.111 146.125 429.852 146.125C430.986 146.125 432.12 146.219 433.065 146.503C435.049 147.07 436.845 151.892 436.939 154.728C437.223 170.232 439.869 184.696 447.24 197.364C450.454 202.753 454.423 207.858 459.526 212.49C462.834 215.515 465.48 219.58 469.26 221.944C475.686 225.914 486.365 227.332 488.539 232.626C489.484 234.99 489.295 237.826 488.634 240.946C487.594 245.672 485.326 250.966 484.192 255.977C485.42 255.882 486.554 255.882 487.688 255.882C512.732 255.882 524.923 275.83 541.556 288.876C542.312 289.538 542.785 290.578 542.407 291.523C542.029 292.563 541.178 293.13 540.233 293.13C539.761 293.13 539.194 292.941 538.815 292.657C529.649 285.473 520.576 278.288 511.504 271.197C501.864 273.844 508.101 292.752 497.611 292.752C496.383 292.752 494.871 292.468 493.075 291.901C488.823 297.479 486.271 303.056 482.018 305.703C473.04 311.281 463.023 315.157 453.478 319.979C445.35 324.044 441.381 328.96 446.012 339.264C448.564 345.031 451.777 347.016 455.179 347.016C458.109 347.016 461.227 345.504 464.251 343.802C465.669 342.951 466.992 342.384 468.22 341.911C468.977 341.628 469.733 341.533 470.394 341.533C476.064 341.533 478.805 350.136 472.757 352.877C471.717 353.35 470.867 353.917 470.205 354.768C465.48 360.629 458.014 368.571 459.243 373.865C460.188 378.024 461.889 381.806 464.346 385.115C467.937 389.747 473.229 393.339 481.168 395.419C482.491 395.797 483.908 396.27 485.231 396.837C495.816 401.28 506.589 411.774 510.937 421.795C521.71 446.564 529.554 472.656 537.492 497.425C539.761 504.515 534.846 511.889 527.38 512.456H527.097C526.813 512.456 526.53 512.456 526.246 512.456C519.82 512.456 514.528 507.067 514.717 500.544L514.906 496.007C515.378 481.826 504.038 470.103 490.429 470.103C489.012 470.103 487.594 470.198 486.176 470.482C480.884 471.427 475.97 474.169 471.812 480.975C470.961 480.881 470.205 480.881 469.355 480.881C448.469 480.881 444.216 505.933 426.26 511.227C422.197 512.456 418.889 513.874 415.959 513.874C412.841 513.874 410.1 512.267 407.17 507.162C404.808 503.097 396.586 502.341 390.349 502.341C387.041 499.41 382.883 493.454 380.331 493.454C380.237 493.454 380.048 493.454 379.953 493.549C376.74 494.399 373.527 494.778 370.503 494.778C353.019 494.778 338.56 482.488 321.927 480.408C321.171 480.313 320.415 480.313 319.659 480.313C313.611 480.313 307.279 483.055 301.042 484.095C295.182 485.135 289.134 487.026 283.369 487.026C282.33 487.026 281.29 486.931 280.345 486.837C276.187 486.269 272.218 485.229 268.627 485.229C263.618 485.229 259.365 487.309 256.247 495.723C254.356 501.017 241.598 503.853 231.297 503.853C226.667 503.853 222.603 503.286 220.051 502.151C217.027 500.733 213.625 499.599 210.317 499.599C210.223 499.599 210.128 499.599 209.939 499.599C196.425 499.977 181.588 505.838 168.168 505.838C162.592 505.838 157.3 504.799 152.386 501.962C151.63 501.49 151.157 500.639 151.252 499.693C152.008 492.981 159.568 489.389 164.104 483.717C155.127 471.805 152.386 461.879 166.845 448.265C174.311 441.27 172.421 424.158 174.595 411.585C175.067 408.654 175.067 405.724 175.351 402.699C175.54 400.43 175.162 398.444 174.406 396.743C172.61 393.15 168.83 390.976 163.915 390.976C163.443 390.976 162.97 390.976 162.498 391.07C162.403 391.07 162.214 391.07 162.12 391.07C159.663 391.07 155.977 389.369 155.032 387.478C154.654 386.627 154.182 385.776 153.803 384.926C148.889 374.999 144.448 364.789 140.006 354.674C137.454 348.812 135.186 342.762 135.659 334.632C121.01 322.058 106.362 309.485 91.7139 297.006C87.4612 292.941 90.5799 289.443 94.2656 283.487C102.109 270.914 95.7776 259.664 81.98 253.141C81.0349 252.668 80.3734 251.628 80.6569 250.588C80.9404 249.454 81.8854 248.887 82.8305 248.887C83.114 248.887 83.3975 248.981 83.681 249.076C91.5249 252.29 106.362 261.649 111.56 261.649C112.316 261.649 112.788 261.46 113.072 260.987C115.435 257.584 104.85 248.036 100.408 240.946C100.314 240.757 100.125 240.473 100.03 240.284C99.3688 239.244 99.2743 238.015 99.6523 236.88C103.905 224.969 108.725 211.261 113.734 197.269C114.395 195.284 115.151 193.299 115.907 191.314C116.191 190.463 116.947 189.99 117.797 189.801C119.309 189.517 120.065 187.816 119.309 186.492C114.962 179.024 110.331 171.744 106.551 163.992C100.786 151.986 112.127 129.203 123.846 124.098C128.476 122.112 131.5 116.251 133.39 110.012C133.863 108.499 135.186 107.365 136.793 107.081C163.537 102.732 163.632 72.6696 179.32 57.4491C183.856 53.1004 183.95 44.0248 185.746 37.1236C188.298 27.6699 192.55 23.7939 198.693 23.7939ZM198.693 8.66797C191.511 8.66797 185.179 11.2205 180.17 16.1364C176.012 20.296 172.988 25.9683 171.098 33.3421C170.436 35.8946 170.058 38.3526 169.586 40.716C169.208 42.7959 168.641 45.9156 168.168 47.2391C160.797 54.613 156.45 63.6885 152.575 71.8187C145.96 85.5266 142.652 90.9152 134.336 92.2387C126.964 93.4677 121.105 98.5727 118.931 105.663C117.986 108.688 117.136 110.201 116.758 110.768C105.134 116.346 97.0062 129.014 93.226 139.224C88.8788 150.757 88.7843 161.913 92.9425 170.515C95.5886 176.093 98.6128 181.293 101.637 186.303L100.786 188.667L99.5578 192.164L88.7843 222.889L85.5711 231.87C85.3821 232.532 85.1931 233.194 85.0041 233.761C84.3426 233.666 83.681 233.666 83.0195 233.666C75.1756 233.666 68.2768 238.96 66.1977 246.618C64.0241 254.653 67.9933 263.162 75.6481 266.849C80.5624 269.212 82.4525 271.576 82.736 272.521C82.925 273.088 82.4525 274.223 81.6964 275.546C81.3184 276.113 80.9404 276.681 80.6569 277.248C78.6723 280.368 76.4042 283.865 75.3646 288.309C73.6635 295.493 76.0262 302.678 81.6019 308.067C81.7909 308.256 81.9799 308.445 82.169 308.634L121.01 341.911C121.766 349.285 123.94 355.335 126.397 360.913L126.775 361.764C131.122 371.596 135.564 381.806 140.478 391.827C140.667 392.11 140.762 392.394 140.951 392.772C141.234 393.339 141.518 393.907 141.801 394.474C145.393 401.564 153.425 405.535 160.23 406.291C160.135 407.425 160.041 408.371 159.946 409.127C159.096 413.759 158.812 418.486 158.529 423.024C158.245 427.373 157.678 435.314 156.45 437.583C138.399 454.788 140.289 470.576 145.204 481.353C141.329 485.229 137.36 490.618 136.509 498.181C135.753 504.988 139.061 511.7 145.015 515.103C151.819 519.074 159.474 521.059 168.452 521.059C176.957 521.059 185.179 519.263 193.117 517.561C199.449 516.238 205.403 514.914 210.601 514.819C210.79 514.819 211.829 515.009 214.003 515.954C218.539 518.034 224.398 519.074 231.581 519.074C239.236 519.074 264.657 517.75 270.8 500.922C270.895 500.828 270.895 500.639 270.989 500.544C271.84 500.639 272.879 500.828 273.824 501.017C275.242 501.301 276.943 501.584 278.644 501.773C280.251 501.962 282.046 502.151 283.747 502.151C289.323 502.151 294.426 501.017 298.963 499.977C300.758 499.599 302.459 499.221 303.971 498.937C307.09 498.37 309.925 497.614 312.477 496.952C315.312 496.196 318.242 495.345 320.037 495.345C320.226 495.345 320.321 495.345 320.415 495.345C325.802 496.007 331.756 498.559 337.993 501.206C347.444 505.271 358.123 509.809 370.881 509.809C372.771 509.809 374.661 509.714 376.551 509.525C377.78 510.849 379.103 512.267 380.615 513.59C383.355 516.048 386.946 517.372 390.632 517.372C393.373 517.372 395.168 517.561 396.302 517.75C401.5 525.219 408.21 528.905 416.243 528.905C420.779 528.905 424.654 527.677 428.151 526.542C429.096 526.258 430.041 525.975 430.891 525.691C443.271 522.004 450.737 513.118 456.785 506.027C463.306 498.275 465.858 496.007 469.733 496.007C470.111 496.007 470.489 496.007 470.867 496.101C471.339 496.101 471.717 496.196 472.19 496.196C477.387 496.196 482.302 493.454 485.042 489.011C486.932 485.891 488.255 485.607 489.201 485.513C489.768 485.418 490.24 485.418 490.807 485.418C494.02 485.418 496.288 487.215 497.328 488.349C498.462 489.484 500.352 492.036 500.163 495.723L499.974 500.261C499.691 507.54 502.431 514.441 507.44 519.641C512.449 524.84 519.442 527.771 526.53 527.771C527.191 527.771 527.853 527.771 528.514 527.677H528.798C537.02 527.015 544.297 522.761 548.927 515.954C553.464 509.147 554.692 500.733 552.141 492.887C551.007 489.294 549.778 485.607 548.644 482.015C541.745 460.272 534.563 437.772 525.018 415.839C519.064 402.226 505.55 388.991 491.374 382.94C489.295 382.089 487.31 381.333 485.326 380.86C481.073 379.726 478.238 378.119 476.442 375.85C475.875 375.094 475.403 374.243 474.93 373.203C476.253 371.218 478.616 368.476 479.939 366.774C480.223 366.396 480.506 366.113 480.79 365.829C488.823 361.291 492.886 352.216 490.902 343.14C489.012 334.726 482.68 328.487 474.647 326.88C479.75 324.422 485.042 321.869 490.146 318.75C494.965 315.724 498.084 311.659 500.73 307.878C507.44 307.027 513.11 303.151 516.418 297.006C516.796 296.344 517.079 295.683 517.363 295.115L529.649 304.758C532.673 307.122 536.547 308.445 540.422 308.445C547.793 308.445 554.409 303.718 556.866 296.722C559.323 289.727 556.96 281.88 551.007 277.153C547.321 274.223 543.635 270.819 539.855 267.132C530.499 258.246 519.442 247.658 503.754 243.12C504.983 236.975 504.605 231.681 502.62 227.049C498.745 217.689 489.579 214.192 482.963 211.639C480.884 210.883 478.427 209.937 477.293 209.181C476.726 208.803 475.308 207.29 474.458 206.25C473.135 204.738 471.623 203.131 469.827 201.429C466.047 197.931 462.928 194.15 460.377 189.801C454.99 180.631 452.438 169.476 452.155 154.539C452.06 147.165 447.996 135.064 437.412 132.039C435.144 131.377 432.592 130.999 430.041 130.999C423.992 130.999 418.039 132.795 413.597 135.915C409.817 138.656 406.887 141.682 404.335 144.423C402.54 146.314 400.839 148.11 399.421 149.15C397.815 150.285 396.208 151.324 394.696 152.459C384.773 159.455 376.173 165.505 367.668 165.505C363.509 165.505 358.973 164.087 354.059 161.062C349.901 158.604 344.892 157.28 339.222 157.28C331 157.28 321.266 159.833 307.846 165.505C299.624 169.003 292.82 173.824 286.299 178.551C283.275 180.725 280.345 182.805 277.416 184.696C276.66 185.169 275.998 185.547 275.431 185.925C275.336 185.925 275.242 185.925 275.053 185.925C273.446 185.925 270.517 185.358 267.304 183.845C264.846 182.711 263.24 181.387 262.389 180.536C261.161 157.847 243.016 153.026 236.117 151.135C235.456 150.946 234.983 150.757 234.51 150.663C227.139 139.885 217.972 137.522 211.262 137.522C210.601 137.522 209.939 137.522 209.278 137.617C203.418 103.394 201.434 72.7641 221.185 45.3484C225.344 39.5816 226.572 32.0186 224.304 25.212C222.036 18.4053 216.649 13.0167 209.75 10.8423C205.97 9.32973 202.284 8.66797 198.693 8.66797Z" fill="#87A5C6" fill-opacity="0.66"/>
<path d="M414.423 512.674C405.54 512.674 401.004 505.49 399.303 502.559C398.641 502.181 395.995 501.141 388.813 501.141C386.923 501.141 385.222 500.479 383.804 499.25C382.386 498.021 381.063 496.509 379.74 495.091C379.173 494.429 378.323 493.483 377.567 492.727C374.731 493.294 371.896 493.578 369.061 493.578C357.91 493.578 348.365 489.513 339.103 485.542C332.299 482.612 325.967 479.965 319.446 479.114C319.068 479.019 318.596 479.019 318.123 479.019C315.383 479.019 312.075 479.87 308.578 480.816C306.027 481.477 303.475 482.234 300.734 482.706C299.033 482.99 297.238 483.368 295.348 483.841C291 484.786 286.464 485.826 281.739 485.826C280.321 485.826 278.998 485.731 277.675 485.542C276.069 485.353 274.557 485.07 273.139 484.786C270.871 484.408 268.697 484.03 266.996 484.03C265.295 484.03 263.783 484.03 261.704 489.607C257.073 502.37 232.407 502.748 229.572 502.748C225.414 502.748 219.46 502.37 215.113 500.29C211.711 498.778 209.726 498.399 208.592 498.399H208.403C202.544 498.588 196.212 499.912 189.502 501.33C181.942 502.937 174.098 504.639 166.443 504.639C158.883 504.639 152.457 503.032 146.881 499.723C143.573 497.738 141.683 493.956 142.061 490.08C142.817 482.801 148.015 478.263 152.079 474.576C152.268 474.387 152.457 474.198 152.74 474.009C146.219 463.232 143.384 449.713 160.017 433.925C163.041 431.089 163.703 421.919 164.175 414.64C164.459 410.291 164.742 405.753 165.498 401.499C165.782 400.081 165.876 398.474 165.971 396.772C166.065 395.638 166.065 394.409 166.254 393.274C166.349 392.518 166.254 391.856 165.971 391.383C165.309 389.965 162.947 389.871 162.285 389.871C162.002 389.871 161.718 389.871 161.434 389.871C161.151 389.871 160.773 389.871 160.395 389.871C155.575 389.871 149.054 386.94 146.597 382.119C146.314 381.552 146.03 381.079 145.841 380.512C145.652 380.228 145.558 379.85 145.369 379.566C140.549 369.734 136.107 359.619 131.76 349.787L131.382 348.936C129.019 343.642 126.657 337.403 126.373 329.273L85.3582 294.01C85.2637 293.916 85.1692 293.821 85.0747 293.727C76.7583 285.786 82.3341 277.088 85.2637 272.456C85.6418 271.889 86.0198 271.321 86.3978 270.66C88.4769 267.256 89.1384 264.326 88.2879 261.49C87.1538 257.613 83.1846 253.927 77.2308 251.09C72.8836 249.011 70.6155 244.284 71.8441 239.746C72.9781 235.397 76.9473 232.467 81.2945 232.467C82.5231 232.467 83.8462 232.75 84.9802 233.223C87.3428 234.168 90.0835 235.586 93.0131 237.099C92.8241 236.815 92.6351 236.532 92.4461 236.248L92.0681 235.586C90.178 232.561 89.8 228.969 90.934 225.66L107.094 179.999C107.472 179.053 107.945 178.108 108.512 177.352C108.417 177.162 108.228 176.973 108.134 176.784C104.637 170.923 101.046 164.967 98.0219 158.539C94.8087 151.827 94.9977 142.751 98.5889 133.108C102.842 121.669 110.874 112.026 119.096 108.434C120.419 107.867 122.593 105.031 124.483 99.0748C125.806 94.7261 129.397 91.6064 133.934 90.8501C146.314 88.8648 151.039 80.1674 157.749 66.2704C161.623 58.1403 165.687 49.821 172.397 43.2979C173.909 41.8799 174.76 36.8694 175.327 33.277C175.705 31.0081 176.083 28.7392 176.65 26.4703C180.619 10.7772 189.88 7.46838 196.874 7.46838C199.614 7.46838 202.544 7.94107 205.852 8.98098C210.388 10.399 213.979 13.9914 215.491 18.5292C217.003 23.067 216.247 28.0775 213.412 31.9535C190.447 63.6234 194.7 99.9256 201.504 137.457V137.551C204.34 136.606 206.986 136.133 209.537 136.133C216.909 136.133 223.052 140.009 227.588 147.667C227.966 147.95 229.194 148.612 232.313 149.463C239.495 151.354 252.726 154.946 253.009 173.475C253.009 174.799 255.75 178.58 262.176 181.606C265.957 183.402 269.926 184.442 273.139 184.442C275.313 184.442 276.352 183.969 276.636 183.78C277.486 183.307 278.431 182.74 279.471 182.078C282.589 180.093 285.519 178.013 288.732 175.744C294.97 171.301 301.396 166.574 308.862 163.455C316.611 160.24 327.952 155.892 337.213 155.892C341.466 155.892 345.152 156.837 348.176 158.539C354.319 162.226 360.083 164.022 365.659 164.022C376.527 164.022 386.45 157.026 397.035 149.652C398.547 148.518 400.153 147.478 401.76 146.343C403.839 144.925 405.824 142.845 407.903 140.577C410.36 138.024 412.817 135.283 416.03 133.014C419.149 130.745 423.59 129.421 428.032 129.421C429.922 129.421 431.718 129.705 433.324 130.083C440.129 132.068 442.586 141.333 442.586 145.493C442.869 161.753 445.799 174.137 451.847 184.442C454.777 189.452 458.368 193.801 462.715 197.866C464.227 199.284 465.55 200.702 466.874 202.12C468.48 203.916 469.992 205.618 471.41 206.469C473.205 207.509 475.757 208.549 478.309 209.494C484.262 211.763 491.067 214.316 493.713 220.649C495.697 225.376 494.941 230.292 494.185 233.507C493.713 235.586 493.051 237.572 492.484 239.651C510.346 241.92 522.159 253.265 532.743 263.286C536.712 267.067 540.493 270.66 544.462 273.779C547.864 276.426 549.187 280.87 547.77 284.84C546.352 288.811 542.666 291.458 538.414 291.458C536.24 291.458 534.066 290.701 532.271 289.378L510.913 272.645C510.724 273.401 510.629 274.063 510.535 274.725C509.495 280.019 507.416 291.174 495.792 291.174C495.414 291.174 495.036 291.174 494.563 291.174C494.28 291.552 493.996 291.93 493.807 292.309C491.161 296.279 488.421 300.344 484.168 302.991C477.931 306.867 471.41 309.892 465.078 312.823C461.77 314.336 458.368 315.943 455.155 317.55C449.012 320.67 448.918 321.899 451.186 327.004C452.225 329.367 453.17 330.218 453.359 330.312C453.359 330.312 453.359 330.312 453.454 330.312C454.115 330.312 455.628 329.934 458.746 328.138C460.542 327.098 462.243 326.247 463.849 325.68C465.456 325.113 467.063 324.829 468.575 324.829C474.812 324.829 480.199 329.273 481.522 335.607C482.939 341.846 479.915 347.896 474.056 350.638C474.056 350.638 473.961 350.638 473.961 350.733C473.394 351.394 472.827 352.151 472.166 352.907C469.898 355.648 465.267 361.132 464.794 363.495C465.55 366.615 466.779 369.262 468.48 371.436C471.221 375.029 475.473 377.487 481.333 379.094C482.939 379.566 484.64 380.134 486.341 380.89C498.722 386.089 510.913 398.001 516.016 409.818C525.372 431.373 532.46 453.683 539.359 475.238C540.493 478.925 541.721 482.517 542.855 486.11C544.651 491.687 543.8 497.738 540.493 502.559C537.185 507.475 531.987 510.5 526.128 510.973H525.844C525.372 510.973 524.899 511.067 524.427 511.067C519.324 511.067 514.315 508.988 510.724 505.206C507.133 501.425 505.148 496.509 505.337 491.309L505.526 486.771C505.715 481.95 503.919 477.318 500.517 473.82C497.304 470.511 493.051 468.62 488.515 468.62C487.57 468.62 486.625 468.715 485.585 468.904C482.845 469.377 479.537 470.606 476.324 475.9C474.906 478.168 472.544 479.492 469.898 479.492C469.709 479.492 469.425 479.492 469.236 479.492C468.669 479.397 468.008 479.397 467.441 479.397C459.786 479.397 455.344 484.219 448.634 492.16C442.964 498.872 436.632 506.435 426.426 509.46C425.386 509.744 424.441 510.122 423.496 510.406C420.85 511.729 417.731 512.674 414.423 512.674Z" fill="#8E83F2"/>
<path d="M196.968 15.1259C199.047 15.1259 201.221 15.5041 203.678 16.3549C208.403 17.8675 210.388 23.6343 207.458 27.6994C182.793 61.8272 187.14 99.9257 194.228 139.064C194.889 142.751 198.102 145.398 201.694 145.398C202.45 145.398 203.3 145.303 204.056 145.02C206.041 144.358 207.931 143.98 209.727 143.98C213.979 143.98 217.948 146.154 221.445 152.11C222.957 154.663 227.21 156.175 230.518 157.026C239.401 159.39 245.449 162.32 245.638 173.854C245.733 179.526 251.781 185.198 259.058 188.696C263.689 190.87 268.792 192.288 273.234 192.288C275.974 192.288 278.526 191.816 280.51 190.681C281.55 190.114 282.59 189.452 283.629 188.791C293.08 182.835 301.68 174.988 311.886 170.734C319.352 167.614 329.558 163.738 337.308 163.738C340.048 163.738 342.411 164.211 344.301 165.345C352.145 170.072 359.138 171.963 365.754 171.963C380.78 171.963 393.16 161.847 406.107 152.961C411.399 149.274 415.18 143.413 420.472 139.631C422.457 138.213 425.386 137.457 428.127 137.457C429.261 137.457 430.395 137.551 431.34 137.835C433.325 138.402 435.12 143.224 435.215 146.06C435.498 161.564 438.144 176.028 445.516 188.696C448.729 194.085 452.698 199.19 457.801 203.822C461.109 206.847 463.755 210.912 467.535 213.276C473.962 217.246 484.641 218.664 486.814 223.958C487.759 226.322 487.57 229.158 486.909 232.278C485.869 237.004 483.601 242.299 482.467 247.309C483.696 247.214 484.83 247.214 485.964 247.214C511.007 247.214 523.198 267.162 539.831 280.208C540.587 280.87 541.06 281.91 540.682 282.855C540.304 283.895 539.453 284.462 538.508 284.462C538.036 284.462 537.469 284.273 537.091 283.989C527.924 276.805 518.851 269.62 509.779 262.529C500.139 265.177 506.377 284.084 495.887 284.084C494.658 284.084 493.146 283.8 491.35 283.233C487.098 288.811 484.546 294.388 480.293 297.035C471.315 302.613 461.298 306.489 451.753 311.311C443.626 315.376 439.656 320.292 444.287 330.596C446.839 336.363 450.052 338.348 453.454 338.348C456.384 338.348 459.502 336.836 462.526 335.134C463.944 334.283 465.267 333.716 466.496 333.243C467.252 332.96 468.008 332.865 468.669 332.865C474.34 332.865 477.08 341.468 471.032 344.21C469.992 344.682 469.142 345.249 468.48 346.1C463.755 351.962 456.289 359.903 457.518 365.197C458.463 369.356 460.164 373.138 462.621 376.447C466.212 381.079 471.504 384.671 479.443 386.751C480.766 387.129 482.183 387.602 483.507 388.169C494.091 392.612 504.865 403.106 509.212 413.127C519.985 437.896 527.829 463.988 535.768 488.757C538.036 495.847 533.121 503.221 525.656 503.788H525.372C525.089 503.788 524.805 503.788 524.522 503.788C518.095 503.788 512.803 498.399 512.992 491.876L513.181 487.339C513.654 473.158 502.313 461.435 488.704 461.435C487.287 461.435 485.869 461.53 484.452 461.814C479.159 462.759 474.245 465.501 470.087 472.307C469.236 472.213 468.48 472.213 467.63 472.213C446.744 472.213 442.491 497.265 424.536 502.559C420.472 503.788 417.164 505.206 414.235 505.206C411.116 505.206 408.375 503.599 405.446 498.494C403.083 494.429 394.861 493.673 388.624 493.673C385.316 490.742 381.158 484.786 378.606 484.786C378.512 484.786 378.323 484.786 378.228 484.881C375.015 485.732 371.802 486.11 368.778 486.11C351.294 486.11 336.835 473.82 320.202 471.74C319.446 471.645 318.69 471.645 317.934 471.645C311.886 471.645 305.554 474.387 299.317 475.427C293.458 476.467 287.409 478.358 281.645 478.358C280.605 478.358 279.565 478.263 278.62 478.169C274.462 477.601 270.493 476.561 266.902 476.561C261.893 476.561 257.64 478.641 254.522 487.055C252.632 492.349 239.873 495.185 229.572 495.185C224.942 495.185 220.878 494.618 218.326 493.484C215.302 492.065 211.9 490.931 208.592 490.931C208.498 490.931 208.403 490.931 208.214 490.931C194.7 491.309 179.863 497.171 166.443 497.171C160.868 497.171 155.575 496.131 150.661 493.294C149.905 492.822 149.433 491.971 149.527 491.026C150.283 484.313 157.843 480.721 162.38 475.049C153.402 463.137 150.661 453.211 165.12 439.597C172.586 432.602 170.696 415.49 172.87 402.917C173.342 399.986 173.342 397.056 173.626 394.031C173.815 391.762 173.437 389.776 172.681 388.075C170.885 384.482 167.105 382.308 162.191 382.308C161.718 382.308 161.246 382.308 160.773 382.402C160.679 382.402 160.49 382.402 160.395 382.402C157.938 382.402 154.252 380.701 153.307 378.81C152.929 377.959 152.457 377.108 152.079 376.258C147.164 366.331 142.723 356.121 138.281 346.006C135.729 340.144 133.461 334.094 133.934 325.964C119.286 313.39 104.637 300.817 89.9891 288.338C85.7364 284.273 88.855 280.775 92.5407 274.819C100.385 262.246 94.0528 250.996 80.2551 244.473C79.3101 244 78.6485 242.96 78.9321 241.92C79.2156 240.786 80.1606 240.219 81.1057 240.219C81.3892 240.219 81.6727 240.313 81.9562 240.408C89.8001 243.622 104.637 252.981 109.835 252.981C110.591 252.981 111.064 252.792 111.347 252.319C113.71 248.916 103.125 239.368 98.6835 232.278C98.589 232.089 98.4 231.805 98.3055 231.616C97.644 230.576 97.5495 229.347 97.9275 228.212C102.18 216.301 107 202.593 112.009 188.601C112.67 186.616 113.426 184.631 114.182 182.646C114.466 181.795 115.222 181.322 116.072 181.133C117.584 180.849 118.34 179.148 117.584 177.824C113.237 170.356 108.607 163.076 104.826 155.324C99.0615 143.318 110.402 120.535 122.121 115.43C126.751 113.444 129.776 107.583 131.666 101.344C132.138 99.8311 133.461 98.6967 135.068 98.4131C161.813 94.0644 161.907 64.0016 177.595 48.7811C182.131 44.4324 182.226 35.3569 184.021 28.4557C186.573 18.9074 190.826 15.1259 196.968 15.1259ZM196.968 0C189.786 0 183.454 2.5525 178.445 7.46843C174.287 11.6281 171.263 17.3003 169.373 24.6742C168.711 27.2267 168.333 29.6846 167.861 32.0481C167.483 34.1279 166.916 37.2476 166.443 38.5711C159.072 45.945 154.725 55.0206 150.85 63.1508C144.235 76.8586 140.927 82.2473 132.611 83.5708C125.239 84.7998 119.38 89.9048 117.206 96.995C116.261 100.02 115.411 101.533 115.033 102.1C103.409 107.678 95.2814 120.346 91.5012 130.556C87.154 142.089 87.0595 153.245 91.2177 161.847C93.8638 167.425 96.8879 172.625 99.9121 177.635L99.0615 179.999L97.833 183.496L86.965 214.126L83.7518 223.107C83.5628 223.769 83.3738 224.431 83.1848 224.998C82.5232 224.904 81.8617 224.904 81.2002 224.904C73.3563 224.904 66.4574 230.198 64.3783 237.855C62.2047 245.891 66.1739 254.399 73.8288 258.086C78.743 260.45 80.6331 262.813 80.9167 263.758C81.1057 264.326 80.6331 265.46 79.8771 266.784C79.4991 267.351 79.1211 267.918 78.8376 268.485C76.853 271.605 74.5848 275.103 73.5453 279.546C71.8442 286.731 74.2068 293.916 79.7826 299.304C79.9716 299.493 80.1606 299.683 80.3496 299.872L119.191 333.149C119.947 340.523 122.121 346.573 124.578 352.151L124.956 353.001C129.303 362.833 133.745 373.043 138.659 383.064C138.848 383.348 138.943 383.631 139.132 384.01C139.415 384.577 139.699 385.144 139.982 385.711C143.573 392.802 151.606 396.772 158.41 397.528C158.316 398.663 158.221 399.608 158.127 400.365C157.276 404.997 156.993 409.724 156.709 414.261C156.426 418.61 155.859 426.551 154.63 428.82C136.58 446.026 138.47 461.814 143.384 472.591C139.51 476.467 135.54 481.855 134.69 489.418C133.934 496.225 137.241 502.937 143.195 506.341C150 510.311 157.654 512.296 166.632 512.296C175.138 512.296 183.36 510.5 191.298 508.799C197.63 507.475 203.584 506.151 208.781 506.057C208.97 506.057 210.01 506.246 212.184 507.191C216.72 509.271 222.579 510.311 229.761 510.311C237.416 510.311 262.838 508.988 268.981 492.16C269.075 492.065 269.075 491.876 269.17 491.782C270.02 491.876 271.06 492.065 272.005 492.255C273.423 492.538 275.124 492.822 276.825 493.011C278.431 493.2 280.227 493.389 281.928 493.389C287.504 493.389 292.607 492.255 297.143 491.215C298.939 490.836 300.64 490.458 302.152 490.175C305.271 489.608 308.106 488.851 310.657 488.189C313.493 487.433 316.422 486.582 318.218 486.582C318.407 486.582 318.501 486.582 318.596 486.582C323.983 487.244 329.936 489.797 336.174 492.444C345.624 496.509 356.303 501.046 369.061 501.046C370.951 501.046 372.842 500.952 374.732 500.763C375.96 502.086 377.283 503.504 378.795 504.828C381.536 507.286 385.127 508.609 388.813 508.609C391.553 508.609 393.349 508.799 394.483 508.988C399.681 516.456 406.391 520.143 414.424 520.143C418.96 520.143 422.835 518.914 426.331 517.78C427.276 517.496 428.221 517.212 429.072 516.929C441.452 513.242 448.918 504.355 454.966 497.265C461.487 489.513 464.039 487.244 467.913 487.244C468.291 487.244 468.669 487.244 469.047 487.339C469.52 487.339 469.898 487.433 470.37 487.433C475.568 487.433 480.482 484.692 483.223 480.248C485.113 477.129 486.436 476.845 487.381 476.75C487.948 476.656 488.421 476.656 488.988 476.656C492.201 476.656 494.469 478.452 495.509 479.587C496.643 480.721 498.533 483.273 498.344 486.96L498.155 491.498C497.871 498.778 500.612 505.679 505.621 510.878C510.629 516.078 517.623 519.009 524.711 519.009C525.372 519.009 526.034 519.009 526.695 518.914H526.979C535.201 518.252 542.477 513.998 547.108 507.191C551.644 500.385 552.873 491.971 550.321 484.124C549.187 480.532 547.959 476.845 546.825 473.253C539.926 451.509 532.743 429.009 523.198 407.077C517.245 393.463 503.73 380.228 489.555 374.178C487.476 373.327 485.491 372.571 483.507 372.098C479.254 370.963 476.419 369.356 474.623 367.087C474.056 366.331 473.584 365.48 473.111 364.44C474.434 362.455 476.797 359.714 478.12 358.012C478.403 357.634 478.687 357.35 478.97 357.067C487.003 352.529 491.067 343.453 489.082 334.378C487.192 325.964 480.86 319.724 472.827 318.117C477.931 315.659 483.223 313.107 488.326 309.987C493.146 306.962 496.265 302.897 498.911 299.115C505.621 298.264 511.291 294.388 514.599 288.244C514.977 287.582 515.26 286.92 515.544 286.353L527.829 295.996C530.853 298.359 534.728 299.683 538.603 299.683C545.974 299.683 552.589 294.956 555.046 287.96C557.504 280.964 555.141 273.118 549.187 268.391C545.502 265.46 541.816 262.057 538.036 258.37C528.68 249.483 517.623 238.895 501.935 234.357C503.163 228.212 502.785 222.918 500.801 218.286C496.926 208.927 487.759 205.429 481.144 202.877C479.065 202.12 476.608 201.175 475.474 200.419C474.907 200.04 473.489 198.528 472.638 197.488C471.315 195.975 469.803 194.368 468.008 192.667C464.228 189.169 461.109 185.387 458.557 181.038C453.171 171.868 450.619 160.713 450.335 145.776C450.241 138.402 446.177 126.302 435.593 123.276C433.325 122.615 430.773 122.236 428.221 122.236C422.173 122.236 416.219 124.033 411.777 127.152C407.997 129.894 405.068 132.919 402.516 135.661C400.72 137.551 399.019 139.348 397.602 140.388C395.995 141.522 394.389 142.562 392.877 143.696C382.954 150.692 374.354 156.742 365.848 156.742C361.69 156.742 357.154 155.324 352.24 152.299C348.081 149.841 343.073 148.518 337.402 148.518C329.18 148.518 319.446 151.07 306.027 156.742C297.805 160.24 291.001 165.062 284.48 169.789C281.456 171.963 278.526 174.043 275.596 175.934C274.84 176.406 274.179 176.784 273.612 177.162C273.517 177.162 273.423 177.162 273.234 177.162C271.627 177.162 268.697 176.595 265.484 175.083C263.027 173.948 261.421 172.625 260.57 171.774C259.341 149.085 241.197 144.264 234.298 142.373C233.636 142.184 233.164 141.995 232.691 141.9C225.32 131.123 216.153 128.759 209.443 128.759C208.781 128.759 208.12 128.759 207.458 128.854C201.599 94.6316 199.615 64.0016 219.366 36.5858C223.524 30.8191 224.753 23.2561 222.485 16.4494C220.595 9.45371 215.113 4.06509 208.309 1.89074C204.245 0.66176 200.56 0 196.968 0Z" fill="#D7E6F7"/>
<path d="M318.557 568H281.787C281.048 568 280.339 568.294 279.816 568.816C279.294 569.339 279 570.048 279 570.787C279 571.526 279.294 572.235 279.816 572.758C280.339 573.28 281.048 573.574 281.787 573.574H318.557C319.296 573.574 320.005 573.28 320.527 572.758C321.05 572.235 321.344 571.526 321.344 570.787C321.344 570.048 321.05 569.339 320.527 568.816C320.005 568.294 319.296 568 318.557 568Z" fill="#B0CEF1"/>
<path d="M331.307 49.0601H368.062C368.444 49.0877 368.827 49.0364 369.189 48.9093C369.55 48.7821 369.881 48.5819 370.162 48.3211C370.442 48.0602 370.666 47.7444 370.819 47.3933C370.971 47.0422 371.05 46.6634 371.05 46.2804C371.05 45.8975 370.971 45.5186 370.819 45.1675C370.666 44.8164 370.442 44.5006 370.162 44.2398C369.881 43.979 369.55 43.7787 369.189 43.6516C368.827 43.5245 368.444 43.4731 368.062 43.5008H331.307C330.925 43.4731 330.541 43.5245 330.18 43.6516C329.819 43.7787 329.488 43.979 329.207 44.2398C328.927 44.5006 328.703 44.8164 328.55 45.1675C328.397 45.5186 328.318 45.8975 328.318 46.2804C328.318 46.6634 328.397 47.0422 328.55 47.3933C328.703 47.7444 328.927 48.0602 329.207 48.3211C329.488 48.5819 329.819 48.7821 330.18 48.9093C330.541 49.0364 330.925 49.0877 331.307 49.0601Z" fill="#B0CEF1"/>
<path d="M316.774 54.1525H353.544C354.283 54.1525 354.992 53.8588 355.515 53.3362C356.037 52.8135 356.331 52.1047 356.331 51.3655C356.331 50.6264 356.037 49.9176 355.515 49.3949C354.992 48.8723 354.283 48.5786 353.544 48.5786H316.774C316.035 48.5786 315.326 48.8723 314.804 49.3949C314.281 49.9176 313.987 50.6264 313.987 51.3655C313.987 52.1047 314.281 52.8135 314.804 53.3362C315.326 53.8588 316.035 54.1525 316.774 54.1525Z" fill="#B0CEF1"/>
<path d="M305.787 44.5738H342.557C343.296 44.5738 344.005 44.2802 344.527 43.7576C345.05 43.2349 345.344 42.5261 345.344 41.7869C345.344 41.0478 345.05 40.3389 344.527 39.8163C344.005 39.2937 343.296 39 342.557 39H305.787C305.048 39 304.339 39.2937 303.816 39.8163C303.294 40.3389 303 41.0478 303 41.7869C303 42.5261 303.294 43.2349 303.816 43.7576C304.339 44.2802 305.048 44.5738 305.787 44.5738Z" fill="#B0CEF1"/>
<path d="M61.5566 408.107H24.7869C24.0478 408.107 23.3389 408.401 22.8163 408.923C22.2936 409.446 22 410.155 22 410.894C22 411.633 22.2936 412.342 22.8163 412.865C23.3389 413.387 24.0478 413.681 24.7869 413.681H61.5566C62.2958 413.681 63.0047 413.387 63.5273 412.865C64.0499 412.342 64.3436 411.633 64.3436 410.894C64.3436 410.155 64.0499 409.446 63.5273 408.923C63.0047 408.401 62.2958 408.107 61.5566 408.107Z" fill="#B0CEF1"/>
<path d="M76.0752 403H39.3055C38.5663 403 37.8575 403.294 37.3349 403.816C36.8122 404.339 36.5186 405.048 36.5186 405.787C36.5186 406.526 36.8122 407.235 37.3349 407.758C37.8575 408.28 38.5663 408.574 39.3055 408.574H76.0752C76.8144 408.574 77.5233 408.28 78.0459 407.758C78.5686 407.235 78.8622 406.526 78.8622 405.787C78.8622 405.048 78.5686 404.339 78.0459 403.816C77.5233 403.294 76.8144 403 76.0752 403Z" fill="#B0CEF1"/>
<path d="M85.7874 413.007H48.9885C48.6065 412.98 48.2229 413.031 47.8617 413.158C47.5005 413.285 47.1693 413.485 46.8889 413.746C46.6085 414.007 46.3848 414.323 46.2319 414.674C46.0789 415.025 46 415.404 46 415.787C46 416.17 46.0789 416.549 46.2319 416.9C46.3848 417.251 46.6085 417.567 46.8889 417.828C47.1693 418.088 47.5005 418.289 47.8617 418.416C48.2229 418.543 48.6065 418.594 48.9885 418.567H85.7874C86.1693 418.594 86.5529 418.543 86.9141 418.416C87.2754 418.289 87.6065 418.088 87.887 417.828C88.1674 417.567 88.3911 417.251 88.544 416.9C88.6969 416.549 88.7758 416.17 88.7758 415.787C88.7758 415.404 88.6969 415.025 88.544 414.674C88.3911 414.323 88.1674 414.007 87.887 413.746C87.6065 413.485 87.2754 413.285 86.9141 413.158C86.5529 413.031 86.1693 412.98 85.7874 413.007Z" fill="#B0CEF1"/>
<path d="M590.144 120H563.856C563.099 120 562.372 120.316 561.837 120.879C561.301 121.441 561 122.204 561 123C561 123.796 561.301 124.559 561.837 125.121C562.372 125.684 563.099 126 563.856 126H590.144C590.901 126 591.628 125.684 592.163 125.121C592.699 124.559 593 123.796 593 123C593 122.204 592.699 121.441 592.163 120.879C591.628 120.316 590.901 120 590.144 120Z" fill="#B0CEF1"/>
<path d="M584.234 126H558.766C558.032 126 557.329 126.316 556.81 126.879C556.291 127.441 556 128.204 556 129C556 129.796 556.291 130.559 556.81 131.121C557.329 131.684 558.032 132 558.766 132H584.234C584.598 132 584.957 131.922 585.293 131.772C585.628 131.621 585.933 131.4 586.19 131.121C586.447 130.843 586.651 130.512 586.789 130.148C586.928 129.784 587 129.394 587 129C587 128.606 586.928 128.216 586.789 127.852C586.651 127.488 586.447 127.157 586.19 126.879C585.933 126.6 585.628 126.379 585.293 126.228C584.957 126.078 584.598 126 584.234 126Z" fill="#B0CEF1"/>
<path d="M50.5586 52H13.7889C13.0497 52 12.3409 52.2936 11.8182 52.8163C11.2956 53.3389 11.002 54.0478 11.002 54.7869C11.002 55.526 11.2956 56.2349 11.8182 56.7576C12.3409 57.2802 13.0497 57.5738 13.7889 57.5738H50.5586C51.2977 57.5738 52.0066 57.2802 52.5293 56.7576C53.0519 56.2349 53.3455 55.526 53.3455 54.7869C53.3455 54.0478 53.0519 53.3389 52.5293 52.8163C52.0066 52.2936 51.2977 52 50.5586 52Z" fill="#B0CEF1"/>
<path d="M39.5421 56.4863H2.78691C2.04777 56.4863 1.33891 56.7799 0.816267 57.3026C0.293619 57.8252 0 58.5341 0 59.2732C0 60.0124 0.293619 60.7212 0.816267 61.2439C1.33891 61.7665 2.04777 62.0602 2.78691 62.0602H39.5421C40.2812 62.0602 40.9901 61.7665 41.5127 61.2439C42.0354 60.7212 42.329 60.0124 42.329 59.2732C42.329 58.5341 42.0354 57.8252 41.5127 57.3026C40.9901 56.7799 40.2812 56.4863 39.5421 56.4863Z" fill="#B0CEF1"/>
<path d="M155 124C137.5 152.5 155 194.5 198 194.5" stroke="white" stroke-dasharray="3 3"/>
<path d="M473 257C451.5 232 400 240.5 389 269M386 269C357.5 249 312 272 312 308" stroke="white" stroke-dasharray="3 3"/>
<path d="M319.926 308.463C319.926 310.137 319.429 311.774 318.498 313.166C317.568 314.558 316.245 315.643 314.698 316.283C313.151 316.923 311.449 317.09 309.806 316.762C308.164 316.434 306.657 315.627 305.474 314.442C304.291 313.257 303.486 311.748 303.161 310.105C302.836 308.462 303.006 306.76 303.648 305.214C304.291 303.668 305.378 302.347 306.772 301.419C308.165 300.491 309.803 299.997 311.477 300C312.588 300 313.688 300.219 314.714 300.644C315.74 301.07 316.672 301.694 317.456 302.48C318.241 303.266 318.863 304.199 319.287 305.225C319.711 306.252 319.928 307.352 319.926 308.463Z" fill="#C0C0F6" fill-opacity="0.57"/>
<path d="M206.926 194.363C206.926 196.037 206.429 197.673 205.5 199.065C204.57 200.456 203.248 201.541 201.701 202.182C200.155 202.822 198.453 202.99 196.812 202.663C195.17 202.337 193.662 201.531 192.479 200.347C191.295 199.163 190.489 197.656 190.163 196.014C189.836 194.372 190.004 192.671 190.644 191.124C191.285 189.578 192.369 188.256 193.761 187.326C195.153 186.396 196.789 185.9 198.463 185.9C200.707 185.9 202.86 186.792 204.447 188.379C206.034 189.966 206.926 192.118 206.926 194.363Z" fill="#C0C0F6" fill-opacity="0.57"/>
<path d="M480.926 257.463C480.926 259.137 480.429 260.773 479.5 262.165C478.57 263.556 477.248 264.641 475.701 265.282C474.155 265.922 472.453 266.09 470.812 265.763C469.17 265.437 467.662 264.631 466.479 263.447C465.295 262.263 464.489 260.756 464.163 259.114C463.836 257.472 464.004 255.771 464.644 254.224C465.285 252.678 466.369 251.356 467.761 250.426C469.153 249.496 470.789 249 472.463 249C474.707 249 476.86 249.892 478.447 251.479C480.034 253.066 480.926 255.218 480.926 257.463Z" fill="#C0C0F6" fill-opacity="0.57"/>
<path d="M162.926 124.463C162.926 126.137 162.429 127.773 161.5 129.165C160.57 130.556 159.248 131.641 157.701 132.282C156.155 132.922 154.453 133.09 152.812 132.763C151.17 132.437 149.662 131.631 148.479 130.447C147.295 129.263 146.489 127.756 146.163 126.114C145.836 124.472 146.004 122.771 146.644 121.224C147.285 119.678 148.369 118.356 149.761 117.426C151.153 116.496 152.789 116 154.463 116C156.707 116 158.86 116.892 160.447 118.479C162.034 120.066 162.926 122.218 162.926 124.463Z" fill="#C0C0F6" fill-opacity="0.57"/>
<path d="M395.926 269.463C395.926 271.137 395.429 272.773 394.5 274.165C393.57 275.556 392.248 276.641 390.701 277.282C389.155 277.922 387.453 278.09 385.812 277.763C384.17 277.437 382.662 276.631 381.479 275.447C380.295 274.263 379.489 272.756 379.163 271.114C378.836 269.472 379.004 267.771 379.644 266.224C380.285 264.678 381.369 263.356 382.761 262.426C384.153 261.496 385.789 261 387.463 261C389.707 261 391.86 261.892 393.447 263.479C395.034 265.066 395.926 267.218 395.926 269.463Z" fill="#C0C0F6" fill-opacity="0.57"/>
<path d="M459.926 448.463C459.926 450.137 459.429 451.773 458.5 453.165C457.57 454.556 456.248 455.641 454.701 456.282C453.155 456.922 451.453 457.09 449.812 456.763C448.17 456.437 446.662 455.631 445.479 454.447C444.295 453.263 443.489 451.756 443.163 450.114C442.836 448.472 443.004 446.771 443.644 445.224C444.285 443.678 445.369 442.356 446.761 441.426C448.153 440.496 449.789 440 451.463 440C453.707 440 455.86 440.892 457.447 442.479C459.034 444.066 459.926 446.218 459.926 448.463Z" fill="#C0C0F6" fill-opacity="0.57"/>
<path d="M264.926 437.463C264.926 439.137 264.429 440.773 263.5 442.165C262.57 443.556 261.248 444.641 259.701 445.282C258.155 445.922 256.453 446.09 254.812 445.763C253.17 445.437 251.662 444.631 250.479 443.447C249.295 442.263 248.489 440.756 248.163 439.114C247.836 437.472 248.004 435.771 248.644 434.224C249.285 432.678 250.369 431.356 251.761 430.426C253.153 429.496 254.789 429 256.463 429C258.707 429 260.86 429.892 262.447 431.479C264.034 433.066 264.926 435.218 264.926 437.463Z" fill="#C0C0F6" fill-opacity="0.57"/>
<path d="M199 194.5C262.407 213.125 290.674 236.057 311 308" stroke="white" stroke-dasharray="3 3"/>
<path d="M257 438C250.833 364.667 400.5 436.5 311.5 308" stroke="white" stroke-dasharray="3 3"/>
<path d="M451 448C430.263 358.589 400.829 327.036 312 308.5" stroke="white" stroke-dasharray="3 3"/>
<circle cx="311.5" cy="308.5" r="1.5" fill="white"/>
<g filter="url(#filter0_d)">
<path d="M425.25 222.064H429.266" stroke="white" stroke-width="2.5" stroke-miterlimit="10" stroke-linecap="round" stroke-linejoin="round"/>
<path d="M389.07 228.085H411.196" stroke="white" stroke-width="2.5" stroke-miterlimit="10" stroke-linecap="round" stroke-linejoin="round"/>
<path d="M421.234 228.085H423.242C426.589 228.085 429.266 225.37 429.266 222.064V210.021C429.266 206.676 426.549 204 423.242 204H377.023C373.677 204 371 206.715 371 210.021V222.064C371 225.409 373.716 228.085 377.023 228.085H379.031" stroke="white" stroke-width="2.5" stroke-miterlimit="10" stroke-linecap="round" stroke-linejoin="round"/>
<path d="M384.07 234.106C386.854 234.106 389.11 231.851 389.11 229.069C389.11 226.287 386.854 224.032 384.07 224.032C381.287 224.032 379.031 226.287 379.031 229.069C379.031 231.851 381.287 234.106 384.07 234.106Z" stroke="white" stroke-width="2.5" stroke-miterlimit="10" stroke-linecap="round" stroke-linejoin="round"/>
<path d="M384.07 230.092C384.636 230.092 385.094 229.634 385.094 229.069C385.094 228.504 384.636 228.046 384.07 228.046C383.505 228.046 383.047 228.504 383.047 229.069C383.047 229.634 383.505 230.092 384.07 230.092Z" stroke="white" stroke-width="2.5" stroke-miterlimit="10" stroke-linecap="round" stroke-linejoin="round"/>
<path d="M416.195 230.092C416.76 230.092 417.219 229.634 417.219 229.069C417.219 228.504 416.76 228.046 416.195 228.046C415.63 228.046 415.171 228.504 415.171 229.069C415.171 229.634 415.63 230.092 416.195 230.092Z" stroke="white" stroke-width="2.5" stroke-miterlimit="10" stroke-linecap="round" stroke-linejoin="round"/>
<path d="M416.195 234.106C418.979 234.106 421.235 231.851 421.235 229.069C421.235 226.287 418.979 224.032 416.195 224.032C413.412 224.032 411.156 226.287 411.156 229.069C411.156 231.851 413.412 234.106 416.195 234.106Z" stroke="white" stroke-width="2.5" stroke-miterlimit="10" stroke-linecap="round" stroke-linejoin="round"/>
<path d="M428.754 208.014H377.023C375.921 208.014 375.016 208.919 375.016 210.021V214.036C375.016 215.137 375.921 216.043 377.023 216.043H429.266" stroke="white" stroke-width="2.5" stroke-miterlimit="10" stroke-linecap="round" stroke-linejoin="round"/>
<path d="M393.086 208.014V216.043" stroke="white" stroke-width="2.5" stroke-miterlimit="10" stroke-linecap="round" stroke-linejoin="round"/>
<path d="M385.055 208.014V216.043" stroke="white" stroke-width="2.5" stroke-miterlimit="10" stroke-linecap="round" stroke-linejoin="round"/>
<path d="M401.156 208.014V216.043" stroke="white" stroke-width="2.5" stroke-miterlimit="10" stroke-linecap="round" stroke-linejoin="round"/>
<path d="M409.188 208.014V216.043" stroke="white" stroke-width="2.5" stroke-miterlimit="10" stroke-linecap="round" stroke-linejoin="round"/>
<path d="M417.219 208.014V216.043" stroke="white" stroke-width="2.5" stroke-miterlimit="10" stroke-linecap="round" stroke-linejoin="round"/>
</g>
<g filter="url(#filter1_d)">
<path d="M360.086 310.215C362.921 310.451 365.204 309.546 366.936 308.759C369.692 307.5 372.015 305.178 371.306 302.58C370.598 299.983 367.92 298.212 364.338 299.353C360.637 300.534 357.33 306.988 356.031 309.743C355.874 309.743 355.716 309.703 355.559 309.703C355.401 309.703 355.244 309.743 355.086 309.743C353.669 307.027 350.126 300.14 346.779 299.353C343.118 298.487 340.52 299.983 339.811 302.58C339.103 305.178 341.189 307.539 344.181 308.759C345.835 309.428 348.236 310.451 351.031 310.215" stroke="white" stroke-width="2.5" stroke-miterlimit="10" stroke-linecap="round" stroke-linejoin="round"/>
<path d="M369.022 332.293C369.022 330.68 367.684 329.381 366.07 329.381C364.456 329.381 363.117 330.68 363.117 332.293" stroke="white" stroke-width="2.5" stroke-miterlimit="10" stroke-linecap="round" stroke-linejoin="round"/>
<path d="M335.914 321.549C337.449 322.061 339.102 322.336 340.795 322.336C348.59 322.336 354.929 316.787 355.519 309.703C355.519 309.703 355.519 309.703 355.559 309.703C355.598 309.703 355.637 309.703 355.637 309.703C356.228 316.748 362.606 322.297 370.361 322.297C372.054 322.297 373.668 322.021 375.204 321.51" stroke="white" stroke-width="2.5" stroke-miterlimit="10" stroke-linecap="round" stroke-linejoin="round"/>
<path d="M348.157 332.293C348.157 330.68 346.819 329.381 345.205 329.381C343.59 329.381 342.252 330.68 342.252 332.293" stroke="white" stroke-width="2.5" stroke-miterlimit="10" stroke-linecap="round" stroke-linejoin="round"/>
<path d="M355.558 354.883C368.017 354.883 378.117 344.787 378.117 332.333C378.117 319.878 368.017 309.782 355.558 309.782C343.1 309.782 333 319.878 333 332.333C333 344.787 343.1 354.883 355.558 354.883Z" stroke="white" stroke-width="2.5" stroke-miterlimit="10" stroke-linecap="round" stroke-linejoin="round"/>
<path d="M346.701 340.951C348.118 344.454 351.543 346.972 355.559 346.972C359.574 346.972 362.999 344.493 364.417 340.951" stroke="white" stroke-width="2.5" stroke-miterlimit="10" stroke-linecap="round" stroke-linejoin="round"/>
</g>
<g filter="url(#filter2_d)">
<path d="M439.242 412.948L433.849 402.558C433.849 402.558 428.81 404.605 424.282 403.935C419.755 403.266 415.621 400 415.621 400C415.621 400 411.488 403.227 406.96 403.935C402.433 404.605 397.393 402.558 397.393 402.558L392 412.948C392 412.948 396.212 417.395 395.543 421.803C394.874 426.25 390.661 433.924 392.669 440.221C394.638 446.36 399.283 450.532 414.558 457.34C414.834 457.458 415.621 457.812 415.621 457.812C415.621 457.812 416.487 457.419 416.763 457.301C431.959 450.492 436.605 446.321 438.573 440.181C440.581 433.885 436.369 426.21 435.699 421.763C435.03 417.395 439.242 412.948 439.242 412.948Z" stroke="white" stroke-width="2.5" stroke-miterlimit="10" stroke-linecap="round" stroke-linejoin="round"/>
<path d="M415.622 405.155C417.59 406.336 420.464 407.714 423.653 408.186C424.48 408.304 425.346 408.383 426.251 408.383C428.22 408.383 430.149 408.068 431.684 407.714L434.164 412.515C432.629 414.837 430.857 418.497 431.448 422.472C431.684 424.164 432.275 425.974 432.904 427.903C434.085 431.602 435.463 435.852 434.479 438.922C433.101 443.251 429.637 446.832 415.622 453.129C401.488 446.754 398.181 443.33 396.764 438.922C395.78 435.813 397.118 431.602 398.339 427.903C398.969 425.974 399.559 424.164 399.795 422.472C400.386 418.497 398.614 414.837 397.079 412.515L399.559 407.714C401.134 408.068 403.024 408.383 404.992 408.383C405.897 408.383 406.764 408.304 407.59 408.186C410.779 407.714 413.653 406.336 415.622 405.155Z" stroke="white" stroke-width="2.5" stroke-miterlimit="10" stroke-linecap="round" stroke-linejoin="round"/>
<path d="M415.621 417.71L418.928 424.439L426.369 425.502L420.975 430.736L422.275 438.135L415.621 434.632L408.968 438.135L410.267 430.736L404.874 425.502L412.314 424.439L415.621 417.71Z" stroke="white" stroke-width="2.5" stroke-miterlimit="10" stroke-linecap="round" stroke-linejoin="round"/>
</g>
<g filter="url(#filter3_d)">
<path d="M226.893 436.669V454.016H224.043V438.107" stroke="white" stroke-width="2" stroke-miterlimit="10" stroke-linecap="round" stroke-linejoin="round"/>
<path d="M229.828 445.018L227.006 446.795" stroke="white" stroke-width="2" stroke-miterlimit="10" stroke-linecap="round" stroke-linejoin="round"/>
<path d="M221.052 444.228L224.043 445.357" stroke="white" stroke-width="2" stroke-miterlimit="10" stroke-linecap="round" stroke-linejoin="round"/>
<path d="M230.872 420.393C231.831 419.829 233.044 420.478 233.073 421.578C233.101 422.48 233.975 423.129 234.85 422.932C235.922 422.678 236.882 423.693 236.571 424.737" stroke="white" stroke-width="2" stroke-miterlimit="10" stroke-linecap="round" stroke-linejoin="round"/>
<path d="M216.819 432.691C215.916 433.34 214.647 432.776 214.534 431.676" stroke="white" stroke-width="2" stroke-miterlimit="10" stroke-linecap="round" stroke-linejoin="round"/>
<path d="M237.503 431.338C237.87 432.381 237.023 433.453 235.923 433.284" stroke="white" stroke-width="2" stroke-miterlimit="10" stroke-linecap="round" stroke-linejoin="round"/>
<path d="M222.971 427.163C223.423 426.147 224.777 425.978 225.454 426.853" stroke="white" stroke-width="2" stroke-miterlimit="10" stroke-linecap="round" stroke-linejoin="round"/>
<path d="M233.637 443.495C234.089 442.479 235.443 442.31 236.12 443.185" stroke="white" stroke-width="2" stroke-miterlimit="10" stroke-linecap="round" stroke-linejoin="round"/>
<path d="M216.679 442.479C217.751 442.169 218.767 443.072 218.541 444.172" stroke="white" stroke-width="2" stroke-miterlimit="10" stroke-linecap="round" stroke-linejoin="round"/>
<path d="M215.973 421.747C216.171 420.675 217.469 420.196 218.343 420.901" stroke="white" stroke-width="2" stroke-miterlimit="10" stroke-linecap="round" stroke-linejoin="round"/>
<path d="M238.857 441.323C238.603 440.449 237.785 439.8 236.825 439.8C236.289 439.8 235.781 440.025 235.415 440.364C235.048 440.025 234.54 439.8 234.004 439.8C233.016 439.8 232.198 440.477 231.944 441.379C231.69 441.295 231.436 441.21 231.154 441.21C229.969 441.21 229.009 442.169 229.009 443.354C229.009 444.539 229.969 445.498 231.154 445.498C231.492 445.498 231.831 445.413 232.113 445.244C232.565 446.231 233.552 446.908 234.681 446.908C235.838 446.908 236.825 446.231 237.249 445.244C237.531 445.385 237.869 445.498 238.208 445.498C239.393 445.498 240.353 444.539 240.353 443.354C240.381 442.395 239.732 441.605 238.857 441.323Z" stroke="white" stroke-width="2" stroke-miterlimit="10" stroke-linecap="round" stroke-linejoin="round"/>
<path d="M218.541 440.533C218.146 440.082 217.582 439.8 216.961 439.8C215.973 439.8 215.155 440.477 214.901 441.379C214.647 441.295 214.393 441.21 214.111 441.21C212.926 441.21 211.966 442.169 211.966 443.354C211.966 444.313 212.615 445.131 213.49 445.385C213.744 446.259 214.562 446.908 215.522 446.908C216.255 446.908 216.904 446.541 217.271 445.977C217.61 446.118 217.977 446.203 218.343 446.203C219.924 446.203 221.193 444.933 221.193 443.354C221.193 441.859 220.008 440.646 218.541 440.533Z" stroke="white" stroke-width="2" stroke-miterlimit="10" stroke-linecap="round" stroke-linejoin="round"/>
<path d="M243.231 427.022C243.231 425.781 242.61 424.709 241.651 424.06C241.058 421.324 238.857 419.18 236.092 418.644C235.81 416.162 233.694 414.244 231.154 414.244C229.969 414.244 228.897 414.639 228.05 415.344C227.034 413.821 225.285 412.833 223.338 412.833C220.657 412.833 218.428 414.695 217.807 417.177C217.525 417.121 217.243 417.093 216.933 417.093C214.421 417.093 212.333 418.983 212.023 421.409C209.596 421.719 207.706 423.806 207.706 426.317C207.706 428.319 208.891 430.012 210.584 430.802C210.584 430.971 210.556 431.112 210.556 431.281C210.556 434.412 213.095 436.951 216.227 436.951C217.356 436.951 218.4 436.612 219.303 436.048C219.811 437.402 221.109 438.361 222.633 438.361C224.156 438.361 225.454 437.374 225.962 436.02C226.583 436.584 227.401 436.923 228.332 436.923C229.828 436.923 231.098 435.992 231.634 434.666C232.678 436.02 234.314 436.923 236.149 436.923C239.281 436.923 241.82 434.384 241.82 431.253C241.82 430.802 241.764 430.378 241.651 429.955C242.582 429.335 243.231 428.263 243.231 427.022Z" stroke="white" stroke-width="2" stroke-miterlimit="10" stroke-linecap="round" stroke-linejoin="round"/>
</g>
<g filter="url(#filter4_d)">
<path d="M232.881 269.95H228.905C227.252 269.95 225.913 268.612 225.913 266.959V264.991C225.913 263.338 227.252 262 228.905 262H232.881" stroke="white" stroke-width="2.5" stroke-miterlimit="10" stroke-linecap="round" stroke-linejoin="round"/>
<path d="M236.858 262.039H244.771C246.425 262.039 247.763 263.377 247.763 265.03V266.998C247.763 268.651 246.425 269.989 244.771 269.989H236.858" stroke="white" stroke-width="2.5" stroke-miterlimit="10" stroke-linecap="round" stroke-linejoin="round"/>
<path d="M229.928 269.95V272.862C229.928 273.531 229.613 274.161 229.062 274.515L222.015 279.198C219.535 280.851 218.039 283.645 218.039 286.636V312.571C218.039 316.388 221.149 319.497 224.968 319.497H248.747C252.565 319.497 255.676 316.388 255.676 312.571V286.636C255.676 283.645 254.18 280.89 251.699 279.198L244.652 274.515C244.101 274.161 243.786 273.531 243.786 272.862V269.95" stroke="white" stroke-width="2.5" stroke-miterlimit="10" stroke-linecap="round" stroke-linejoin="round"/>
<path d="M229.929 285.81H255.676V311.587H229.929" stroke="white" stroke-width="2.5" stroke-miterlimit="10" stroke-linecap="round" stroke-linejoin="round"/>
<path d="M224.968 311.587H218V285.81H224.968" stroke="white" stroke-width="2.5" stroke-miterlimit="10" stroke-linecap="round" stroke-linejoin="round"/>
<path d="M243.787 295.727H239.81V291.752C239.81 290.65 238.905 289.785 237.842 289.785H235.874C234.771 289.785 233.905 290.69 233.905 291.752V295.727H229.929C228.827 295.727 227.96 296.632 227.96 297.695V299.663C227.96 300.765 228.866 301.63 229.929 301.63H233.905V305.605C233.905 306.707 234.811 307.573 235.874 307.573H237.842C238.944 307.573 239.81 306.668 239.81 305.605V301.63H243.787C244.889 301.63 245.755 300.725 245.755 299.663V297.695C245.755 296.593 244.889 295.727 243.787 295.727Z" stroke="white" stroke-width="2.5" stroke-miterlimit="10" stroke-linecap="round" stroke-linejoin="round"/>
</g>
<g filter="url(#filter5_d)">
<path d="M192.323 188.483C192.323 189.074 191.851 189.507 191.3 189.507C190.749 189.507 190.276 189.034 190.276 188.483C190.276 187.893 190.749 187.46 191.3 187.46C191.851 187.46 192.323 187.932 192.323 188.483Z" stroke="white" stroke-width="2.5" stroke-miterlimit="10" stroke-linecap="round" stroke-linejoin="round"/>
<path d="M193.308 181.754C193.347 176.323 190.001 172.19 186.418 173.135C183.465 173.883 182.56 177.385 185.316 181.242C184.843 181.321 183.465 181.321 182.993 181.321C178.466 181.596 175.67 177.267 166.104 177.582C155.474 177.936 150.041 185.689 148.978 191.553C148.703 195.921 151.183 195.803 154.254 197.417C154.136 197.692 154.018 197.929 153.939 198.243C152.64 201.746 152.758 203.478 153.388 204.737C154.096 206.114 155.514 206.665 157.325 205.485C159.254 204.225 156.931 200.29 158.151 198.637C160.514 199.739 168.545 200.88 175.277 199.345C175.356 199.581 175.474 199.818 175.552 200.054C177.088 203.478 178.663 205.012 179.844 205.563C182.127 206.665 184.41 205.642 184.332 203.753C184.292 202.415 179.568 200.014 180.592 198.007C181.379 197.732 182.088 197.417 182.718 197.063C196.457 199.07 201.969 194.741 203.465 191.278C202.914 188.759 198.662 183.446 193.308 181.754Z" stroke="white" stroke-width="2.5" stroke-miterlimit="10" stroke-linecap="round" stroke-linejoin="round"/>
<path d="M179.844 214.497C176.655 215.717 171.104 217.094 165.198 216.819C152.64 216.307 144.845 210.286 145.002 199.936C145.081 196.276 146.656 193.245 148.782 191.829" stroke="white" stroke-width="2.5" stroke-miterlimit="10" stroke-linecap="round" stroke-linejoin="round"/>
<path d="M187.875 181.124C187.402 181.124 185.867 181.124 185.276 181.203" stroke="white" stroke-width="2.5" stroke-miterlimit="10" stroke-linecap="round" stroke-linejoin="round"/>
<path d="M157.876 199.345C157.876 199.345 158.427 197.417 159.333 196.118" stroke="white" stroke-width="2.5" stroke-miterlimit="10" stroke-linecap="round" stroke-linejoin="round"/>
<path d="M175.277 199.345C175.002 198.598 174.687 197.614 174.372 196.158" stroke="white" stroke-width="2.5" stroke-miterlimit="10" stroke-linecap="round" stroke-linejoin="round"/>
</g>
<defs>
<filter id="filter0_d" x="365.75" y="202.75" width="68.7657" height="40.6064" filterUnits="userSpaceOnUse" color-interpolation-filters="sRGB">
<feFlood flood-opacity="0" result="BackgroundImageFix"/>
<feColorMatrix in="SourceAlpha" type="matrix" values="0 0 0 0 0 0 0 0 0 0 0 0 0 0 0 0 0 0 127 0"/>
<feOffset dy="4"/>
<feGaussianBlur stdDeviation="2"/>
<feColorMatrix type="matrix" values="0 0 0 0 0 0 0 0 0 0 0 0 0 0 0 0 0 0 0.25 0"/>
<feBlend mode="normal" in2="BackgroundImageFix" result="effect1_dropShadow"/>
<feBlend mode="normal" in="SourceGraphic" in2="effect1_dropShadow" result="shape"/>
</filter>
<filter id="filter1_d" x="327.75" y="297.75" width="55.6165" height="66.3828" filterUnits="userSpaceOnUse" color-interpolation-filters="sRGB">
<feFlood flood-opacity="0" result="BackgroundImageFix"/>
<feColorMatrix in="SourceAlpha" type="matrix" values="0 0 0 0 0 0 0 0 0 0 0 0 0 0 0 0 0 0 127 0"/>
<feOffset dy="4"/>
<feGaussianBlur stdDeviation="2"/>
<feColorMatrix type="matrix" values="0 0 0 0 0 0 0 0 0 0 0 0 0 0 0 0 0 0 0.25 0"/>
<feBlend mode="normal" in2="BackgroundImageFix" result="effect1_dropShadow"/>
<feBlend mode="normal" in="SourceGraphic" in2="effect1_dropShadow" result="shape"/>
</filter>
<filter id="filter2_d" x="386.75" y="398.75" width="57.7425" height="68.3123" filterUnits="userSpaceOnUse" color-interpolation-filters="sRGB">
<feFlood flood-opacity="0" result="BackgroundImageFix"/>
<feColorMatrix in="SourceAlpha" type="matrix" values="0 0 0 0 0 0 0 0 0 0 0 0 0 0 0 0 0 0 127 0"/>
<feOffset dy="4"/>
<feGaussianBlur stdDeviation="2"/>
<feColorMatrix type="matrix" values="0 0 0 0 0 0 0 0 0 0 0 0 0 0 0 0 0 0 0.25 0"/>
<feBlend mode="normal" in2="BackgroundImageFix" result="effect1_dropShadow"/>
<feBlend mode="normal" in="SourceGraphic" in2="effect1_dropShadow" result="shape"/>
</filter>
<filter id="filter3_d" x="202.706" y="411.833" width="45.5255" height="51.1827" filterUnits="userSpaceOnUse" color-interpolation-filters="sRGB">
<feFlood flood-opacity="0" result="BackgroundImageFix"/>
<feColorMatrix in="SourceAlpha" type="matrix" values="0 0 0 0 0 0 0 0 0 0 0 0 0 0 0 0 0 0 127 0"/>
<feOffset dy="4"/>
<feGaussianBlur stdDeviation="2"/>
<feColorMatrix type="matrix" values="0 0 0 0 0 0 0 0 0 0 0 0 0 0 0 0 0 0 0.25 0"/>
<feBlend mode="normal" in2="BackgroundImageFix" result="effect1_dropShadow"/>
<feBlend mode="normal" in="SourceGraphic" in2="effect1_dropShadow" result="shape"/>
</filter>
<filter id="filter4_d" x="212.75" y="260.75" width="48.1758" height="67.9974" filterUnits="userSpaceOnUse" color-interpolation-filters="sRGB">
<feFlood flood-opacity="0" result="BackgroundImageFix"/>
<feColorMatrix in="SourceAlpha" type="matrix" values="0 0 0 0 0 0 0 0 0 0 0 0 0 0 0 0 0 0 127 0"/>
<feOffset dy="4"/>
<feGaussianBlur stdDeviation="2"/>
<feColorMatrix type="matrix" values="0 0 0 0 0 0 0 0 0 0 0 0 0 0 0 0 0 0 0.25 0"/>
<feBlend mode="normal" in2="BackgroundImageFix" result="effect1_dropShadow"/>
<feBlend mode="normal" in="SourceGraphic" in2="effect1_dropShadow" result="shape"/>
</filter>
<filter id="filter5_d" x="139.75" y="171.748" width="68.9648" height="54.3563" filterUnits="userSpaceOnUse" color-interpolation-filters="sRGB">
<feFlood flood-opacity="0" result="BackgroundImageFix"/>
<feColorMatrix in="SourceAlpha" type="matrix" values="0 0 0 0 0 0 0 0 0 0 0 0 0 0 0 0 0 0 127 0"/>
<feOffset dy="4"/>
<feGaussianBlur stdDeviation="2"/>
<feColorMatrix type="matrix" values="0 0 0 0 0 0 0 0 0 0 0 0 0 0 0 0 0 0 0.25 0"/>
<feBlend mode="normal" in2="BackgroundImageFix" result="effect1_dropShadow"/>
<feBlend mode="normal" in="SourceGraphic" in2="effect1_dropShadow" result="shape"/>
</filter>
</defs>
</svg>
